<svg width="32" height="32" viewBox="0 0 32 32" fill="none" xmlns="http://www.w3.org/2000/svg">
<path d="M15.1416 30.9878C12.3095 30.9878 9.90687 30.5314 7.93378 29.6187C5.96068 28.6926 4.40369 27.4376 3.26279 25.8537C2.12189 24.2565 1.38364 22.4512 1.04809 20.4378C0.725948 18.411 0.793077 16.3037 1.24944 14.1159C1.81318 11.4314 2.79301 9.10931 4.18894 7.14964C5.58487 5.17655 7.38345 3.65982 9.58472 2.59946C11.7994 1.52567 14.4034 0.98877 17.3966 0.98877C20.1213 0.98877 22.4635 1.43171 24.4232 2.31759C26.3963 3.20346 27.9734 4.41819 29.1546 5.96176C30.3357 7.50534 31.1075 9.2838 31.4699 11.2972C31.8323 13.2971 31.7719 15.4178 31.2887 17.6594C30.725 20.2902 29.7451 22.6055 28.3492 24.6055C26.9533 26.6054 25.148 28.1691 22.9333 29.2966C20.732 30.4241 18.1348 30.9878 15.1416 30.9878Z" fill="#E65245"/>
<path d="M8.61215 17.5384C8.09324 17.4282 7.64181 18.2461 7.48096 18.6689C7.48096 19.0572 7.62196 19.7806 8.42414 20.8015C9.22631 21.8224 11.1189 23.4947 15.7158 23.2912C20.3126 23.0876 23.6529 19.3172 24.5052 17.2753C25.3575 15.2335 24.3673 13.9026 23.7626 12.8692C23.1578 11.8357 23.4837 10.533 23.7626 10.0225C24.0414 9.51209 24.1636 8.78555 23.6529 8.25944C23.1421 7.73333 21.9357 8.86071 22.0767 10.0225C22.2178 11.1844 22.1519 12.4965 21.3623 13.4078C20.5727 14.3191 20.1246 16.7492 16.7529 18.3589C13.3813 19.9685 9.26078 17.6762 8.61215 17.5384Z" fill="#F6F8F9"/>
</svg>
