<?xml version="1.0" encoding="UTF-8"?>
<svg id="Capa_1" data-name="Capa 1" xmlns="http://www.w3.org/2000/svg" xmlns:xlink="http://www.w3.org/1999/xlink" viewBox="0 0 423.76 300.99">
  <defs>
    <style>
      .cls-1 {
        fill: #683208;
      }

      .cls-2 {
        fill: #edcb00;
      }

      .cls-3 {
        fill: #912424;
      }

      .cls-4 {
        fill: #a53030;
      }

      .cls-5 {
        fill: #ad9000;
      }

      .cls-6 {
        fill: #558e23;
      }

      .cls-7 {
        fill: #31637c;
      }

      .cls-8 {
        fill: #4884aa;
      }

      .cls-9 {
        fill: url(#Degradado_sin_nombre_452);
      }

      .cls-10 {
        fill: url(#Degradado_sin_nombre_346);
      }

      .cls-11 {
        fill: url(#Degradado_sin_nombre_284);
      }

      .cls-12 {
        fill: url(#Degradado_sin_nombre_284-2);
      }

      .cls-13 {
        fill: url(#Degradado_sin_nombre_346-3);
      }

      .cls-14 {
        fill: url(#Degradado_sin_nombre_346-2);
      }

      .cls-15 {
        fill: url(#Degradado_sin_nombre_452-3);
      }

      .cls-16 {
        fill: url(#Degradado_sin_nombre_452-5);
      }

      .cls-17 {
        fill: url(#Degradado_sin_nombre_452-2);
      }

      .cls-18 {
        fill: url(#Degradado_sin_nombre_452-4);
      }
    </style>
    <linearGradient id="Degradado_sin_nombre_284" data-name="Degradado sin nombre 284" x1="74.69" y1="238.43" x2="173.27" y2="238.43" gradientUnits="userSpaceOnUse">
      <stop offset="0" stop-color="#b7875b"/>
      <stop offset="1" stop-color="#683207"/>
    </linearGradient>
    <linearGradient id="Degradado_sin_nombre_284-2" data-name="Degradado sin nombre 284" x1="161.21" y1="210.12" x2="214.51" y2="210.12" xlink:href="#Degradado_sin_nombre_284"/>
    <radialGradient id="Degradado_sin_nombre_346" data-name="Degradado sin nombre 346" cx="147.12" cy="235.31" fx="147.12" fy="235.31" r="27.49" gradientUnits="userSpaceOnUse">
      <stop offset=".13" stop-color="#fff1e6"/>
      <stop offset=".42" stop-color="#efcaac"/>
      <stop offset=".79" stop-color="#deb28b"/>
    </radialGradient>
    <radialGradient id="Degradado_sin_nombre_346-2" data-name="Degradado sin nombre 346" cx="137.15" cy="209.59" fx="137.15" fy="209.59" r="14.67" xlink:href="#Degradado_sin_nombre_346"/>
    <radialGradient id="Degradado_sin_nombre_346-3" data-name="Degradado sin nombre 346" cx="152.26" cy="218.86" fx="152.26" fy="218.86" r="3.39" xlink:href="#Degradado_sin_nombre_346"/>
    <linearGradient id="Degradado_sin_nombre_452" data-name="Degradado sin nombre 452" x1="82.33" y1="56.27" x2="271.68" y2="56.27" gradientUnits="userSpaceOnUse">
      <stop offset="0" stop-color="#7ace38"/>
      <stop offset="1" stop-color="#558e23"/>
    </linearGradient>
    <linearGradient id="Degradado_sin_nombre_452-2" data-name="Degradado sin nombre 452" x1="162.51" y1="105.32" x2="251.38" y2="105.32" xlink:href="#Degradado_sin_nombre_452"/>
    <linearGradient id="Degradado_sin_nombre_452-3" data-name="Degradado sin nombre 452" x1="204.08" y1="154.38" x2="292.95" y2="154.38" xlink:href="#Degradado_sin_nombre_452"/>
    <linearGradient id="Degradado_sin_nombre_452-4" data-name="Degradado sin nombre 452" x1="299.21" y1="201.39" x2="388.08" y2="201.39" xlink:href="#Degradado_sin_nombre_452"/>
    <linearGradient id="Degradado_sin_nombre_452-5" data-name="Degradado sin nombre 452" x1="299.21" y1="227.12" x2="388.08" y2="227.12" xlink:href="#Degradado_sin_nombre_452"/>
  </defs>
  <path class="cls-3" d="M127.41,275.62c-5.04,0-10.07,.01-15.11-.01-.74,0-1.52-.05-2.22-.26-1.65-.5-2.73-1.96-2.78-3.61-.06-1.72,.98-3.28,2.68-3.86,.64-.22,1.36-.31,2.04-.31,10.25-.02,20.49-.01,30.74,0,.74,0,1.51,.08,2.22,.28,1.76,.5,2.89,1.98,2.91,3.68,.03,1.76-1.13,3.33-2.97,3.81-.77,.21-1.6,.24-2.4,.25-5.04,.02-10.07,.01-15.11,.01h0Z"/>
  <path class="cls-3" d="M292.23,143.64c0-27.88-.02-55.76,.01-83.64,0-6.08,.2-12.17,.31-18.25,0-.52,.02-1.05,.1-1.56,.21-1.29,.89-1.98,1.83-1.94,.89,.04,1.5,.68,1.66,1.91,.14,1.09,.2,2.19,.22,3.29,.11,7.53,.29,15.07,.29,22.6,0,43.59-.01,87.17-.05,130.76-.01,15.24-.12,30.49-.17,45.73,0,1.1,.08,2.2,.08,3.3,0,.58-.03,1.17-.17,1.72-.24,.93-1.02,1.49-1.9,1.5-.91,0-1.66-.5-1.89-1.48-.19-.78-.24-1.6-.24-2.41,0-5.04,.07-10.08,.06-15.12-.08-28.81-.18-57.61-.27-86.42,.05,0,.09,0,.14,0Z"/>
  <path class="cls-3" d="M177.04,143.64c0-27.88-.02-55.76,.01-83.64,0-6.08,.2-12.17,.31-18.25,0-.52,.02-1.05,.1-1.56,.21-1.29,.89-1.98,1.83-1.94,.89,.04,1.5,.68,1.66,1.91,.14,1.09,.2,2.19,.22,3.29,.11,7.53,.29,15.07,.29,22.6,0,43.59-.01,87.17-.05,130.76-.01,15.24-.12,30.49-.17,45.73,0,1.1,.08,2.2,.08,3.3,0,.58-.03,1.17-.17,1.72-.24,.93-1.02,1.49-1.9,1.5-.91,0-1.66-.5-1.89-1.48-.19-.78-.24-1.6-.24-2.41,0-5.04,.07-10.08,.06-15.12-.08-28.81-.18-57.61-.27-86.42,.05,0,.09,0,.14,0Z"/>
  <path class="cls-3" d="M389.06,143.64c0-27.88-.02-55.76,.01-83.64,0-6.08,.2-12.17,.31-18.25,0-.52,.02-1.05,.1-1.56,.21-1.29,.89-1.98,1.83-1.94,.89,.04,1.5,.68,1.66,1.91,.14,1.09,.2,2.19,.22,3.29,.11,7.53,.29,15.07,.29,22.6,0,43.59-.01,87.17-.05,130.76-.01,15.24-.12,30.49-.17,45.73,0,1.1,.08,2.2,.08,3.3,0,.58-.03,1.17-.17,1.72-.24,.93-1.02,1.49-1.9,1.5-.91,0-1.66-.5-1.89-1.48-.19-.78-.24-1.6-.24-2.41,0-5.04,.07-10.08,.06-15.12-.08-28.81-.18-57.61-.27-86.42,.05,0,.09,0,.14,0Z"/>
  <g>
    <path class="cls-3" d="M71.81,253.98c.67,0,1.07,0,1.47,0,36.87-.08,73.73-.2,110.6-.22,52.75-.03,155.14,0,207.89,.02,.69,0,1.39,.02,2.07,.14,.83,.15,1.33,.7,1.36,1.57,.03,.72-.55,1.41-1.38,1.56-.62,.12-1.27,.09-1.9,.09-37.27,0-124.18,.02-161.46,.01-48.81-.01-97.62-.03-146.43-.06-3.83,0-7.65-.12-11.48-.15-.56,0-1.14,.12-1.68,.27-1.24,.35-2.06-.06-2.33-1.29-.1-.44-.08-.92-.08-1.38-.01-67.88-.03-135.76-.02-203.64,0-5.68,.1-11.36,.17-17.04,.01-.92,.07-1.86,.22-2.77,.12-.68,.64-1.22,1.36-1.04,.47,.12,.95,.58,1.22,1.02,.22,.35,.16,.9,.17,1.36,.08,4.58,.22,9.16,.22,13.74,.02,49.68,.01,99.36,.01,149.04,0,18.9,0,37.8,0,56.69,0,.63,0,1.26,0,2.1Z"/>
    <path class="cls-3" d="M42.28,60.32c-5.04,0-10.07,.01-15.11-.01-.74,0-1.52-.05-2.22-.26-1.65-.5-2.73-1.96-2.78-3.61-.06-1.72,.98-3.28,2.68-3.86,.64-.22,1.36-.31,2.04-.31,10.25-.02,20.49-.01,30.74,0,.74,0,1.51,.08,2.22,.28,1.76,.5,2.89,1.98,2.91,3.68,.03,1.76-1.13,3.33-2.97,3.81-.77,.21-1.6,.24-2.4,.25-5.04,.02-10.07,.01-15.11,.01h0Z"/>
  </g>
  <g>
    <path class="cls-1" d="M159.22,195.86c-.48-3.13,.65-5.46,2.84-7.37,1.99-1.73,4.18-2.98,6.91-3.03,.69-.01,1.39-.19,2.34-.33-.45-.46-.74-.85-1.12-1.13-1.66-1.21-3.34-2.4-5.04-3.55-.73-.5-1.52-.93-2.31-1.32-2.02-1-2.63-2.52-2.01-5.24,.31-1.37,1.6-2.2,3.13-2.05,1.06,.1,2.13,.34,3.13,.69,2.96,1.03,5.48,2.8,7.77,4.91,.96,.89,1.91,1.79,2.87,2.68,.19,.17,.41,.31,.87,.65-.41-1.62-.97-2.85-1.76-3.94-1.45-2.01-2.94-3.99-4.44-5.96-.72-.95-1.26-1.96-1.45-3.15-.42-2.68,1.28-4.47,3.97-4.18,2.44,.27,4.33,1.57,5.66,3.53,1.36,2,2.53,4.15,3.7,6.28,.72,1.3,1.29,2.68,2.04,4.27,.11-.47,.22-.71,.21-.95-.04-3.08-.06-6.17-.18-9.25-.05-1.45,.07-2.8,1.1-3.92,1.14-1.24,2.74-1.43,4-.32,.65,.57,1.18,1.33,1.58,2.11,1.57,3,1.96,6.24,1.53,9.55-.4,3.06-.99,6.09-1.47,9.13-.07,.43-.05,.94,.12,1.32,1.65,3.76,3.27,7.55,5.05,11.25,2.12,4.39,3.74,8.97,5.3,13.58,.11,.34,.24,.67,.42,1.19,.38-.86,.65-1.54,.97-2.2,.3-.63,.79-1.07,1.53-1.05,.73,.02,1.27,.46,1.48,1.12,.32,1.02,.7,2.08,.7,3.12,0,2.19-.22,4.38-.36,6.57-.02,.27-.05,.54-.09,1,.56-.37,.95-.67,1.38-.91,1.03-.57,1.97-.31,2.19,.83,.24,1.21,.31,2.52,.11,3.73-.27,1.65-.82,3.26-1.35,4.86-.23,.71-.28,1.36-.09,2.05,1.04,3.74,2.12,7.46,3.11,11.21,1.16,4.43,2.27,8.87,3.35,13.32,.5,2.05-.37,3.15-2.52,3.12-6.55-.07-13.1-.19-19.64-.29-2.24-.04-4.5-.28-6.73-.1-2.1,.16-4.16-.14-6.25-.15-3.36-.02-6.73-.03-10.08-.23-1.89-.12-3.34,.53-4.75,1.8,.28,.25,.54,.49,.82,.71,1.26,.97,2.53,1.93,3.79,2.89,2.22,1.69,3.63,3.8,3.87,6.67,.23,2.71,.47,5.41-.11,8.1-.29,1.34-.79,2.6-1.66,3.67-.87,1.06-1.94,1.76-3.4,1.54-1.45-.22-2.46-1.06-2.61-2.52-.16-1.48-.11-2.98-.06-4.47,.05-1.17,.01-2.3-.73-3.35,0,.53-.02,1.06,0,1.59,.09,2.61-.54,5.1-1.32,7.56-.53,1.66-1.74,2.74-3.24,3.52-1.47,.75-2.81,.36-3.89-.45-1.01,.24-1.86,.56-2.72,.61-2.65,.15-4.07-1.22-3.99-3.86,.05-1.63,.34-3.26,.41-4.89,.07-1.85,.02-3.7-.17-5.64-.18,.33-.37,.67-.54,1-.91,1.74-1.73,3.53-2.75,5.2-1.16,1.9-2.84,3.22-5.13,3.58-.41,.06-.84,.12-1.25,.11-2.19-.03-3.8-1.92-3.31-4.07,.23-1.02,.77-2,1.27-2.94,.74-1.4,1.61-2.74,2.36-4.14,.64-1.2,1.03-2.49,1.17-3.92-2.54-1.59-4.49-3.79-6.42-6.02-.45-.52-.97-.67-1.61-.64-2.38,.08-4.77,.13-7.15,.21-9.77,.33-19.55,.36-29.32,0-1.68-.06-3.37-.06-5.05-.18-1.07-.08-2.12-.33-3.18-.49-.51-.07-1.03-.21-1.52-.14-2.82,.39-5.59-.2-8.39-.3-.98-.04-1.95-.24-2.92-.4-.41-.07-.83-.17-1.22-.31-1.79-.66-2.25-1.43-1.97-3.32,.11-.73,.3-1.46,.49-2.35-.52,.11-.95,.23-1.39,.3-.69,.1-1.43,.28-1.94-.4-.52-.68-.44-1.46-.06-2.12,.62-1.09,1.28-2.18,2.08-3.14,.7-.86,1.61-1.56,2.42-2.33,.26-.25,.53-.49,.89-.83-.59-.13-1.04-.21-1.48-.33-1.59-.42-2.12-1.77-1.17-3.11,.32-.45,.74-.86,1.18-1.18,3.06-2.23,6.18-4.35,9.78-5.68,2.89-1.07,5.68-2.41,8.56-3.48,4.03-1.5,8.28-1.85,12.54-2.13,1.06-.07,2.12-.11,3.22-.16-.22-1.26-.33-2.43-.64-3.54-.81-2.91-.37-5.77,.27-8.6,2.78-12.26,13.17-21.67,25.68-23.29,7.01-.91,13.49,.54,19.3,4.64,1.06,.74,2.03,1.09,3.17,.24,.37-.27,.82-.42,1.29-.65Zm-38.78,30.95c.76-.97,.78-1.84-.03-2.87-1.12-1.42-1.67-3.14-1.96-4.91-.6-3.6,.11-6.92,2.55-9.7,3.28-3.73,7.35-6.1,12.29-7.05,2.42-.46,4.78-1.27,7.12-2.06,.99-.34,1.92-.96,2.77-1.59,.67-.49,1.16-1.22,1.78-1.78,.65-.58,1.36-1.09,2.07-1.66-.43-.12-.78-.2-1.12-.32-3.29-1.23-6.72-1.38-10.1-.86-10.54,1.59-18.01,7.36-22.29,17.12-1.85,4.23-2.63,8.66-1.65,13.27,.31,1.44,.51,2.92,1.68,4.05,.64,.62,.21,1.53-.69,1.61-.36,.03-.74-.06-1.1-.13-.96-.19-1.93-.6-2.88-.56-2.57,.1-5.18,.11-7.67,.64-7.79,1.65-15.1,4.57-21.8,8.94-.85,.55-1.58,1.18-2.22,2.19,.62,0,1.07,0,1.52,0,.79,0,1.6-.06,2.38,.05,.34,.05,.8,.41,.9,.73,.1,.31-.1,.81-.33,1.11-.24,.32-.68,.48-1,.75-1.79,1.5-3.57,3-5.34,4.52-.21,.18-.33,.48-.63,.94,1.09-.26,1.76-.71,2.39-1.26,.42-.37,.94-.42,1.43-.12,.5,.32,.6,.82,.49,1.36-.08,.36-.26,.7-.37,1.06-.44,1.46-.87,2.93-1.34,4.54,.67,.2,1.13,.42,1.62,.48,1.81,.23,3.62,.53,5.43,.6,4.2,.16,8.42,.17,12.62,.3,5.56,.17,11.12,.52,16.69,.58,6.97,.07,13.94-.08,20.91-.14,.18,0,.35-.06,.58-.1,0-.37-.09-.73,.02-1,.15-.35,.41-.74,.74-.92,.44-.24,.91-.04,1.24,.36,.15,.18,.25,.39,.38,.59,2.13,3.42,4.75,6.35,8.43,8.17,.64,.32,.89,.79,.72,1.48-.82,3.23-1.92,6.34-3.87,9.1-.48,.68-.9,1.43-1.23,2.2-.53,1.23,.06,1.93,1.35,1.74,1.15-.18,2.2-.62,2.86-1.6,.93-1.39,1.85-2.81,2.59-4.31,.97-1.97,1.73-4.04,2.65-6.03,.5-1.09,1.47-1.23,2.17-.26,.48,.66,.84,1.47,1.04,2.26,.66,2.61,.64,5.28,.44,7.95-.13,1.72-.35,3.44-.44,5.17-.06,1.04,.33,1.34,1.35,1.3,.72-.02,1.32-.32,1.61-.95,.39-.84,.82-1.71,.96-2.6,.55-3.57,.71-7.16,.57-10.77-.02-.42-.05-.84-.01-1.26,.07-.85,.5-1.35,1.13-1.37,.57-.02,1.01,.39,1.19,1.16,.08,.36,.15,.74,.16,1.11,.08,4.95,.26,9.91-1.46,14.69,.52,.53,1.1,.41,1.66,.09,.97-.55,1.69-1.33,1.99-2.43,.6-2.21,1.13-4.43,1.05-6.76-.06-1.87,.07-3.74,.11-5.6,.01-.59,.11-1.14,.74-1.38,.55-.21,1,0,1.39,.41,.1,.1,.23,.17,.32,.28,1.5,1.71,2.73,3.58,2.98,5.91,.1,.92,.08,1.86,.08,2.8,0,1.12-.09,2.25-.02,3.36,.05,.87,.69,1.12,1.35,.56,.31-.26,.62-.61,.76-.99,.36-.91,.74-1.83,.9-2.78,.49-2.8,.15-5.6-.25-8.38-.12-.86-.59-1.47-1.32-2.04-3.8-2.96-7.53-6-11.29-9.01-1.38-1.11-2.78-2.2-4.14-3.34-.67-.56-1.26-1.2-1.98-1.88,.7-.8,1.28-1.48,2.09-2.4-.95,.09-1.54,.18-2.13,.19-1.35,.03-2.72,.14-4.06,0-1.41-.14-1.63-.83-.81-1.97,.45-.63,.93-1.24,1.05-2.17-.77,.07-1.42,.16-2.06,.19-1.68,.1-3.36,.28-5.03,.23-2.19-.07-4.38-.31-6.57-.52-4.51-.42-9.02-.85-13.54-1.29-3.35-.33-6.7-.66-10.04-1.02-3.76-.41-7.52-.85-11.28-1.28-.7-.08-1.4-.08-2.09-.19-.91-.14-1.13-.65-.8-1.52,.38-1,1.19-.74,1.9-.67,3.95,.38,7.9,.79,11.85,1.17,.29,.03,.59-.02,.92-.04-2.55-5.74,1.56-13.15,7.01-13.49Zm89.75-6.21c-.48,.38-.71,.52-.88,.71-.65,.73-1.3,1.47-1.92,2.23-.28,.34-.59,.74-1.02,.43-.29-.21-.56-.66-.57-1-.02-.69,.17-1.39,.24-2.08,.26-2.7,.51-5.39,.73-8.09,.04-.48-.08-.97-.12-1.45-.1,0-.2-.01-.29-.02-.14,.42-.31,.83-.43,1.25-.39,1.44-.77,2.89-1.13,4.34-.22,.88-.53,1.69-1.27,2.21-.67-.75-.5-1.74-.68-2.64-.34-1.74-.78-3.44-1.48-5.09-.82-1.93-1.32-3.99-2.11-5.94-2.55-6.33-5.14-12.64-7.76-18.94-.56-1.34-.76-2.63-.47-4.08,.53-2.66,.92-5.34,1.3-8.02,.44-3.1-.1-6.06-1.57-8.83-.28-.52-.53-1.16-1.3-1.09-.55,.05-1.05,.79-1.13,1.61-.02,.28,0,.56,.03,.84,.09,.79,.22,1.58,.27,2.37,.24,3.23,.19,6.45-.39,9.64-.11,.63-.37,1.25-.68,1.82-.35,.65-1.01,.79-1.7,.73-.74-.07-.98-.6-1.15-1.23-.2-.77-.36-1.56-.66-2.28-1.38-3.34-3.03-6.54-5.11-9.49-.63-.89-1.53-1.65-2.44-2.26-.62-.41-1.47-.56-2.24-.66-.76-.1-1.1,.25-1.23,1.02-.16,.94,.18,1.76,.73,2.49,.6,.78,1.27,1.5,1.87,2.28,2.02,2.64,4.02,5.3,4.83,8.62,.17,.68,.3,1.38,.33,2.07,.04,.84-.61,1.66-1.39,1.92-.72,.24-1.13-.24-1.56-.68-.1-.1-.18-.21-.29-.31-2.38-2.24-4.64-4.62-7.37-6.47-1.71-1.16-3.54-2.11-5.59-2.51-1.58-.31-2.03,.16-1.98,1.77,.02,.63,.26,1.06,.82,1.35,.5,.25,.98,.55,1.48,.8,3.81,1.92,6.94,4.73,10,7.63,.53,.5,.88,1.08,.46,1.84-.2,.01-.34,.05-.47,.02-3.49-.56-6.78,.14-9.94,1.62-1.26,.59-2.27,1.48-3,2.66-.62,.99-.83,2.08-.7,3.23,.09,.78,.53,1.25,1.29,1.18,.56-.06,1.17-.32,1.6-.68,.57-.47,1-1.11,1.45-1.7,.88-1.17,2.01-1.95,3.4-2.35,2.04-.58,4.06-.51,6.07,.17,1.15,.39,2.07,1.07,2.8,2.02,1.2,1.57,1.89,3.34,1.96,5.31,.09,2.38-.88,4.26-2.88,5.59-1.32,.87-2.8,1.27-4.34,1.49-1.02,.15-2.04,.22-3.06,.36-1.12,.15-1.85,1.2-1.35,2.11,.51,.93,1.13,1.86,2.43,1.82,1.03-.03,2.06,.05,3.08-.04,5.44-.5,8.56-3.71,9.92-8.49,.19-.67,.16-1.46,1.07-1.59,.98-.14,1.22,.71,1.6,1.31,.15,.23,.2,.52,.28,.79,.23,.71,.43,1.43,.67,2.14,4.62,13.79,8.69,27.74,12.06,41.88,.21,.86,.41,1.73,.57,2.6,.26,1.42-.37,2.13-1.83,2.07-.42-.02-.85-.05-1.25-.17-2.22-.72-4.5-1.3-6.62-2.25-2.89-1.3-5.65-2.9-8.47-4.37-.39-.2-.78-.42-1.16-.62-.76,1.33-1.53,2.46-2.07,3.69-1.22,2.76-3.13,4.97-5.25,7.03-.22,.21-.4,.46-.71,.8,.36,.02,.54,.04,.71,.04,4.02-.08,8.04-.26,12.05-.21,5.8,.07,11.59,.31,17.39,.5,3.46,.11,6.92,.26,10.37,.39,.45,.02,.9,0,1.43,0-.13-.65-.2-1.11-.31-1.56-1.06-4.17-2.12-8.33-3.19-12.5-.92-3.62-1.78-7.26-2.81-10.85-.34-1.18-.22-2.13,.23-3.21,.54-1.29,.93-2.65,1.28-4,.23-.88,.29-1.8,.48-3.03Zm-58.6,26.61c.53,.05,.9,.14,1.25,.1,1.44-.14,2.87-.28,4.3-.49,.57-.08,1.11-.26,1.55,.26,.43,.51,.27,1.07,.04,1.59-.22,.51-.5,1-.78,1.48-.23,.39-.5,.76-.67,1.03,2.52,2.08,4.97,4.1,7.44,6.13,5.53-3.11,10.11-7.15,12.64-12.97,2.52-5.8,2.46-11.76-.33-17.53-1.83-3.78-4.76-6.31-8.96-7.19-1.4-.3-2.42-1.08-3.09-2.38-.67-1.32-1.44-2.6-2.18-3.93-1.52,.75-2.93,1.44-4.34,2.13,.42,1.74-.3,3.05-1.43,4.1-1.87,1.73-3.96,3.11-6.49,3.73-1.81,.44-3.54,.57-4.7-1.16-2.28,1.44-4.47,2.88-6.72,4.2-1.16,.68-2.41,1.26-3.68,1.69-2.01,.69-3.74,.25-5.08-1.54-1.46-1.95-2.92-3.89-3.89-6.15-.12-.28-.28-.53-.52-.97-.72,1.72-1.32,3.28-2.02,4.8-.31,.66-.24,1.14,.25,1.63,.95,.96,1.9,1.94,2.84,2.91,.29,.3,.69,.58,.81,.94,.13,.4,.14,.99-.08,1.29-.22,.3-.79,.39-1.22,.45-.24,.03-.52-.17-.78-.28-1.16-.5-2.31-1-3.47-1.5-1.42-.61-2.74-.37-3.98,.47-2.36,1.61-3.72,5.19-3.04,7.94,.44,1.77,1.89,2.94,3.71,3.09,2.7,.22,5.4,.47,8.1,.76,.79,.08,1.47-.05,2.13-.48,.92-.6,1.66-1.34,2.16-2.34,.4-.81,1.11-1.04,1.72-.7,.54,.3,.72,.97,.42,1.74-.15,.39-.39,.74-.61,1.1-.18,.3-.39,.59-.69,1.05,3.25,.3,6.33,.51,9.39,.89,3.07,.39,6.06,.18,9.01-.71,.73-.22,1.38-.26,1.93,.35,.55,.6,.46,1.3,.26,1.99-.12,.4-.37,.75-.56,1.13-.19,.41-.37,.82-.61,1.35Zm29.79-6.2c-.13-.09-.02,0,.1,.06,3.48,1.82,6.93,3.68,10.44,5.42,1.33,.66,2.8,1.03,4.21,1.51,.28,.09,.61,.06,1.01,.09-3.36-14.7-7.68-29-12.15-43.31-.83,1.14-1.48,2.23-2.31,3.15-2.47,2.73-5.64,4.1-9.26,4.43-2.27,.21-4.52,.19-6.23-1.71-.05-.05-.17-.05-.3-.08-.66,.36-1.36,.74-2.16,1.18,1.06,1.87,2.09,3.68,3.08,5.44,.87,.19,1.65,.31,2.41,.52,3.44,.99,6,3.15,7.96,6.08,1.97,2.94,3.05,6.22,3.26,9.73,.14,2.41-.04,4.84-.08,7.5Zm-59.2-18.86c.29-.64,.5-1.05,.67-1.47,.59-1.52,1.19-3.04,1.75-4.58,.36-.99,.93-1.79,1.79-2.43,3.76-2.85,8.01-4.78,12.3-6.63,.73-.31,1.41-.23,1.93,.34,.97,1.07,2.01,2.1,2.77,3.31,1.32,2.08,2.44,4.29,3.66,6.44,.13,.23,.3,.44,.47,.69,.9-.64,1.71-1.26,2.58-1.8,.85-.53,1.75-.96,2.71-1.48-.67-.82-1.34-1.49-1.83-2.27-1.31-2.1-2.57-4.23-3.78-6.39-.88-1.56-.8-2.13,.63-3.24,1.54-1.2,3.21-2.25,4.83-3.36,.33-.23,.66-.45,1.01-.68-2.33-2.37-5.34-1.82-7.19,.02-.3,.3-.62,.57-.9,.89-1.39,1.6-3.16,2.64-5.16,3.24-2.32,.69-4.67,1.34-7.04,1.83-4.28,.89-7.84,2.97-10.65,6.29-.7,.83-1.21,1.88-1.59,2.92-1.02,2.82-.44,5.51,1.03,8.37Zm17.64-12.82c-4.44,1.7-10.94,5.22-12.51,6.76,1.08,2.77,2.41,5.42,4.29,7.78,1.86,2.34,1.74,2.77,4.91,1.08,2.66-1.43,5.16-3.17,7.72-4.79,.5-.31,.93-.72,1.4-1.09-1.97-3.31-3.87-6.5-5.8-9.73Zm15.49,4.74c1.08-.62,2.07-1.2,3.07-1.77,2.39-1.38,4.78-2.74,7.17-4.13,.83-.48,1.51-2.14,1.12-2.84-1.15-2.08-2.29-4.18-3.54-6.21-.91-1.48-1.57-1.64-3.17-.91-1.23,.56-2.37,1.32-3.61,1.84-2.52,1.06-4.73,2.62-6.97,4.14-.1,.07-.13,.22-.23,.39,.81,1.36,1.57,2.76,2.44,4.09,1.17,1.8,2.42,3.54,3.71,5.41Zm9.71-16.71c1.3,2.38,2.54,4.65,3.82,7.01,1.84-.11,3.75-.28,5.57-.91,2.43-.84,3.55-2.71,3.14-5.23-.14-.82-.44-1.62-.77-2.38-.68-1.58-1.87-2.5-3.63-2.68-2.71-.28-5.12,.15-6.78,2.63-.38,.58-.9,1.06-1.35,1.58Zm-8.64,19.05c-3.45-.38-8.05,2.36-8.23,4.82,2.59,.59,7.38-2.18,8.23-4.82Z"/>
    <path class="cls-11" d="M120.44,226.81c-5.45,.34-9.56,7.75-7.01,13.49-.34,.02-.64,.06-.92,.04-3.95-.39-7.9-.79-11.85-1.17-.71-.07-1.52-.33-1.9,.67-.33,.87-.11,1.38,.8,1.52,.69,.11,1.4,.11,2.09,.19,3.76,.42,7.52,.87,11.28,1.28,3.35,.36,6.7,.7,10.04,1.02,4.51,.44,9.02,.87,13.54,1.29,2.19,.2,4.38,.45,6.57,.52,1.67,.05,3.36-.13,5.03-.23,.65-.04,1.29-.12,2.06-.19-.12,.93-.59,1.55-1.05,2.17-.82,1.14-.6,1.83,.81,1.97,1.34,.13,2.7,.03,4.06,0,.59-.01,1.18-.1,2.13-.19-.81,.93-1.39,1.6-2.09,2.4,.71,.68,1.31,1.32,1.98,1.88,1.36,1.14,2.76,2.23,4.14,3.34,3.76,3.01,7.5,6.05,11.29,9.01,.72,.56,1.19,1.18,1.32,2.04,.39,2.78,.73,5.58,.25,8.38-.17,.95-.54,1.88-.9,2.78-.15,.37-.45,.72-.76,.99-.66,.56-1.3,.31-1.35-.56-.06-1.12,.03-2.24,.02-3.36,0-.93,.02-1.87-.08-2.8-.26-2.33-1.48-4.2-2.98-5.91-.09-.1-.22-.17-.32-.28-.39-.4-.84-.62-1.39-.41-.63,.24-.73,.79-.74,1.38-.04,1.87-.17,3.74-.11,5.6,.07,2.33-.45,4.55-1.05,6.76-.3,1.1-1.02,1.88-1.99,2.43-.56,.32-1.14,.43-1.66-.09,1.72-4.78,1.54-9.74,1.46-14.69,0-.37-.07-.75-.16-1.11-.18-.77-.62-1.18-1.19-1.16-.63,.02-1.06,.52-1.13,1.37-.03,.42,0,.84,.01,1.26,.14,3.61-.02,7.2-.57,10.77-.14,.9-.57,1.77-.96,2.6-.3,.63-.9,.92-1.61,.95-1.02,.03-1.4-.26-1.35-1.3,.09-1.73,.31-3.45,.44-5.17,.2-2.67,.22-5.34-.44-7.95-.2-.8-.56-1.6-1.04-2.26-.71-.97-1.67-.83-2.17,.26-.91,2-1.67,4.07-2.65,6.03-.74,1.5-1.66,2.92-2.59,4.31-.66,.98-1.7,1.42-2.86,1.6-1.3,.2-1.88-.51-1.35-1.74,.33-.77,.75-1.51,1.23-2.2,1.95-2.76,3.05-5.86,3.87-9.1,.17-.69-.08-1.16-.72-1.48-3.68-1.82-6.3-4.75-8.43-8.17-.12-.2-.23-.41-.38-.59-.33-.4-.8-.61-1.24-.36-.32,.18-.58,.57-.74,.92-.12,.27-.02,.63-.02,1-.22,.04-.4,.1-.58,.1-6.97,.06-13.94,.21-20.91,.14-5.56-.06-11.12-.4-16.69-.58-4.21-.13-8.42-.14-12.62-.3-1.82-.07-3.63-.37-5.43-.6-.49-.06-.95-.28-1.62-.48,.47-1.61,.9-3.07,1.34-4.54,.11-.36,.29-.7,.37-1.06,.12-.54,.02-1.04-.49-1.36-.49-.31-1.01-.25-1.43,.12-.63,.55-1.3,1-2.39,1.26,.3-.46,.41-.75,.63-.94,1.77-1.52,3.56-3.03,5.34-4.52,.32-.27,.76-.43,1-.75,.22-.3,.42-.8,.33-1.11-.1-.32-.55-.68-.9-.73-.78-.11-1.58-.05-2.38-.05-.45,0-.91,0-1.52,0,.64-1.01,1.37-1.64,2.22-2.19,6.7-4.37,14.01-7.29,21.8-8.94,2.49-.53,5.11-.54,7.67-.64,.95-.04,1.92,.37,2.88,.56,.36,.07,.74,.17,1.1,.13,.9-.09,1.32-1,.69-1.61-1.17-1.13-1.37-2.6-1.68-4.05-.98-4.61-.2-9.05,1.65-13.27,4.28-9.76,11.75-15.52,22.29-17.12,3.39-.51,6.82-.37,10.1,.86,.34,.13,.7,.2,1.12,.32-.72,.57-1.43,1.08-2.07,1.66-.62,.56-1.12,1.29-1.78,1.78-.86,.63-1.78,1.25-2.77,1.59-2.34,.79-4.7,1.6-7.12,2.06-4.94,.94-9.01,3.31-12.29,7.05-2.45,2.78-3.15,6.1-2.55,9.7,.29,1.76,.84,3.49,1.96,4.91,.81,1.03,.79,1.9,.03,2.87Z"/>
    <path class="cls-12" d="M210.19,220.61c-.19,1.23-.25,2.15-.48,3.03-.36,1.35-.74,2.71-1.28,4-.45,1.08-.57,2.03-.23,3.21,1.04,3.59,1.89,7.23,2.81,10.85,1.06,4.17,2.13,8.33,3.19,12.5,.11,.45,.18,.91,.31,1.56-.54,0-.99,.01-1.43,0-3.46-.13-6.92-.28-10.37-.39-5.8-.19-11.59-.42-17.39-.5-4.02-.05-8.04,.13-12.05,.21-.17,0-.35-.02-.71-.04,.3-.35,.49-.59,.71-.8,2.12-2.07,4.04-4.27,5.25-7.03,.54-1.23,1.31-2.36,2.07-3.69,.38,.2,.77,.41,1.16,.62,2.82,1.47,5.57,3.07,8.47,4.37,2.11,.95,4.4,1.53,6.62,2.25,.39,.13,.83,.16,1.25,.17,1.46,.06,2.09-.65,1.83-2.07-.16-.87-.36-1.74-.57-2.6-3.38-14.15-7.44-28.1-12.06-41.88-.24-.71-.45-1.43-.67-2.14-.08-.27-.13-.56-.28-.79-.39-.61-.63-1.45-1.6-1.31-.91,.13-.88,.92-1.07,1.59-1.36,4.78-4.48,7.99-9.92,8.49-1.02,.09-2.06,.01-3.08,.04-1.3,.04-1.93-.89-2.43-1.82-.5-.91,.23-1.95,1.35-2.11,1.02-.14,2.05-.21,3.06-.36,1.54-.22,3.02-.62,4.34-1.49,2-1.33,2.97-3.2,2.88-5.59-.07-1.97-.77-3.74-1.96-5.31-.73-.95-1.65-1.63-2.8-2.02-2.01-.67-4.03-.75-6.07-.17-1.39,.4-2.53,1.18-3.4,2.35-.45,.6-.88,1.23-1.45,1.7-.43,.36-1.05,.62-1.6,.68-.76,.08-1.2-.4-1.29-1.18-.13-1.15,.08-2.24,.7-3.23,.74-1.18,1.75-2.07,3-2.66,3.16-1.48,6.45-2.18,9.94-1.62,.13,.02,.28-.01,.47-.02,.42-.75,.07-1.34-.46-1.84-3.06-2.9-6.19-5.71-10-7.63-.5-.25-.98-.55-1.48-.8-.56-.28-.8-.72-.82-1.35-.05-1.61,.4-2.08,1.98-1.77,2.05,.4,3.88,1.35,5.59,2.51,2.73,1.85,4.99,4.22,7.37,6.47,.1,.1,.19,.21,.29,.31,.43,.44,.84,.92,1.56,.68,.78-.26,1.43-1.08,1.39-1.92-.03-.69-.17-1.39-.33-2.07-.81-3.32-2.8-5.98-4.83-8.62-.6-.78-1.27-1.5-1.87-2.28-.55-.72-.89-1.54-.73-2.49,.13-.77,.47-1.12,1.23-1.02,.77,.1,1.62,.24,2.24,.66,.91,.61,1.81,1.37,2.44,2.26,2.07,2.95,3.73,6.15,5.11,9.49,.3,.73,.46,1.52,.66,2.28,.16,.63,.41,1.16,1.15,1.23,.69,.06,1.35-.08,1.7-.73,.3-.57,.56-1.19,.68-1.82,.58-3.19,.62-6.41,.39-9.64-.06-.79-.19-1.58-.27-2.37-.03-.28-.06-.56-.03-.84,.07-.82,.58-1.56,1.13-1.61,.77-.07,1.03,.57,1.3,1.09,1.47,2.77,2.01,5.72,1.57,8.83-.38,2.68-.78,5.37-1.3,8.02-.29,1.45-.08,2.74,.47,4.08,2.62,6.3,5.21,12.61,7.76,18.94,.78,1.95,1.29,4.01,2.11,5.94,.7,1.65,1.14,3.36,1.48,5.09,.18,.9,0,1.88,.68,2.64,.75-.52,1.06-1.33,1.27-2.21,.36-1.45,.74-2.9,1.13-4.34,.11-.42,.28-.83,.43-1.25,.1,0,.2,.01,.29,.02,.04,.48,.16,.97,.12,1.45-.22,2.7-.48,5.4-.73,8.09-.07,.7-.26,1.39-.24,2.08,0,.35,.28,.8,.57,1,.44,.31,.74-.09,1.02-.43,.63-.76,1.27-1.5,1.92-2.23,.17-.19,.4-.33,.88-.71Z"/>
    <path class="cls-10" d="M151.59,247.21c.24-.53,.42-.94,.61-1.35,.18-.38,.44-.73,.56-1.13,.21-.68,.29-1.39-.26-1.99-.55-.6-1.2-.57-1.93-.35-2.95,.89-5.94,1.1-9.01,.71-3.06-.39-6.14-.59-9.39-.89,.3-.45,.51-.74,.69-1.05,.22-.36,.46-.71,.61-1.1,.3-.77,.11-1.44-.42-1.74-.61-.34-1.31-.11-1.72,.7-.5,1-1.24,1.74-2.16,2.34-.66,.43-1.34,.56-2.13,.48-2.7-.29-5.4-.54-8.1-.76-1.81-.15-3.27-1.32-3.71-3.09-.68-2.75,.68-6.33,3.04-7.94,1.24-.85,2.56-1.09,3.98-.47,1.16,.5,2.31,1,3.47,1.5,.26,.11,.54,.32,.78,.28,.43-.06,1-.16,1.22-.45,.22-.3,.21-.9,.08-1.29-.12-.36-.52-.64-.81-.94-.94-.98-1.88-1.95-2.84-2.91-.49-.49-.55-.97-.25-1.63,.7-1.51,1.3-3.07,2.02-4.8,.24,.44,.4,.69,.52,.97,.97,2.26,2.42,4.2,3.89,6.15,1.34,1.79,3.07,2.23,5.08,1.54,1.27-.44,2.52-1.01,3.68-1.69,2.25-1.32,4.44-2.76,6.72-4.2,1.17,1.73,2.89,1.6,4.7,1.16,2.53-.62,4.63-2,6.49-3.73,1.13-1.05,1.86-2.36,1.43-4.1,1.41-.69,2.82-1.38,4.34-2.13,.75,1.33,1.51,2.61,2.18,3.93,.66,1.31,1.68,2.09,3.09,2.38,4.2,.89,7.13,3.42,8.96,7.19,2.79,5.77,2.84,11.73,.33,17.53-2.53,5.82-7.11,9.86-12.64,12.97-2.47-2.04-4.91-4.05-7.44-6.13,.18-.27,.45-.64,.67-1.03,.28-.48,.56-.97,.78-1.48,.23-.52,.39-1.08-.04-1.59-.44-.52-.98-.34-1.55-.26-1.43,.21-2.87,.35-4.3,.49-.35,.03-.72-.06-1.25-.1Zm6.26-12.73c3.83-.35,6.73-2.15,9.02-5,.34-.42,.58-.97,.75-1.49,.27-.83-.03-1.53-.66-1.77-.66-.25-1.15,.09-1.66,.88-.52,.81-1.1,1.62-1.79,2.28-1.48,1.41-3.29,2.28-5.3,2.68-.45,.09-.96,.16-1.33,.4-.3,.2-.56,.63-.6,.99-.06,.51,.34,.84,.85,.95,.27,.06,.55,.05,.71,.07Zm-40.11,2.17c.03,.27,.04,.65,.13,1,.34,1.32,.99,2.42,2.29,3,.54,.24,1.03,.12,1.37-.34,.35-.47,.29-.97-.08-1.41-.15-.18-.34-.32-.51-.48-.73-.71-.93-1.59-.79-2.57,.14-.98,.65-1.73,1.48-2.27,.52-.33,.85-.76,.58-1.4-.22-.53-.82-.66-1.59-.37-.26,.1-.52,.22-.74,.38-1.47,1.07-2.11,2.56-2.16,4.45Z"/>
    <path class="cls-14" d="M122.18,222.15c-1.47-2.86-2.05-5.55-1.03-8.37,.37-1.03,.89-2.09,1.59-2.92,2.8-3.32,6.36-5.4,10.65-6.29,2.37-.49,4.71-1.14,7.04-1.83,2-.6,3.76-1.63,5.16-3.24,.28-.32,.6-.59,.9-.89,1.85-1.85,4.86-2.39,7.19-.02-.35,.23-.68,.45-1.01,.68-1.62,1.11-3.29,2.15-4.83,3.36-1.43,1.11-1.51,1.68-.63,3.24,1.21,2.16,2.48,4.29,3.78,6.39,.49,.78,1.16,1.45,1.83,2.27-.96,.52-1.87,.96-2.71,1.48-.86,.54-1.67,1.16-2.58,1.8-.17-.24-.34-.45-.47-.69-1.21-2.15-2.34-4.35-3.66-6.44-.76-1.21-1.8-2.24-2.77-3.31-.52-.57-1.21-.65-1.93-.34-4.29,1.85-8.54,3.78-12.3,6.63-.86,.65-1.43,1.44-1.79,2.43-.56,1.53-1.16,3.06-1.75,4.58-.17,.42-.37,.83-.67,1.47Z"/>
    <path class="cls-2" d="M139.81,209.34c1.93,3.24,3.83,6.43,5.8,9.73-.47,.37-.91,.77-1.4,1.09-2.56,1.62-5.05,3.37-7.72,4.79-3.17,1.7-3.05,1.27-4.91-1.08-1.88-2.36-3.21-5.01-4.29-7.78,1.57-1.54,8.08-5.06,12.51-6.76Z"/>
    <path class="cls-2" d="M155.31,214.08c-1.29-1.87-2.54-3.61-3.71-5.41-.87-1.33-1.63-2.72-2.44-4.09,.09-.16,.13-.32,.23-.39,2.24-1.52,4.44-3.08,6.97-4.14,1.24-.52,2.38-1.28,3.61-1.84,1.6-.73,2.26-.58,3.17,.91,1.25,2.03,2.39,4.12,3.54,6.21,.39,.7-.3,2.36-1.12,2.84-2.38,1.38-4.78,2.75-7.17,4.13-1,.58-2,1.15-3.07,1.77Z"/>
    <path class="cls-13" d="M156.37,216.42c-.84,2.65-5.64,5.41-8.23,4.82,.18-2.47,4.78-5.21,8.23-4.82Z"/>
    <path class="cls-1" d="M157.84,234.48c-.16-.01-.44-.01-.71-.07-.51-.1-.91-.43-.85-.95,.04-.36,.3-.79,.6-.99,.37-.25,.87-.31,1.33-.4,2.02-.41,3.82-1.27,5.3-2.68,.69-.66,1.27-1.47,1.79-2.28,.51-.8,1-1.13,1.66-.88,.63,.24,.93,.94,.66,1.77-.17,.52-.41,1.07-.75,1.49-2.3,2.85-5.2,4.64-9.02,5Z"/>
    <path class="cls-1" d="M117.73,236.65c.05-1.89,.68-3.38,2.16-4.45,.22-.16,.48-.29,.74-.38,.77-.29,1.37-.16,1.59,.37,.27,.64-.06,1.07-.58,1.4-.83,.53-1.34,1.28-1.48,2.27-.14,.98,.05,1.86,.79,2.57,.17,.16,.36,.3,.51,.48,.37,.44,.43,.95,.08,1.41-.35,.46-.84,.58-1.37,.34-1.3-.58-1.95-1.68-2.29-3-.09-.36-.1-.74-.13-1Z"/>
  </g>
  <g>
    <g>
      <path class="cls-6" d="M273.36,66.33c-.5,0-1.07,0-1.65,0-61.37-.02-122.74-.04-184.11-.06-1.56,0-3.13-.11-4.69-.03-1.56,.08-2.3-1.18-3.32-1.92-.45-.32-.51-1.36-.51-2.08,0-4.17,.03-8.34,.1-12.52,.04-2.31,.66-2.97,2.98-3.18,1.21-.11,2.43-.09,3.65-.09,35.64-.05,71.28-.1,106.92-.14,25.79-.03,51.58-.03,77.36-.04,.41,0,.82,.04,1.22,0,1.87-.21,3.05,.84,3.21,3.06,.31,4.33,.28,8.69,.29,13.03,0,1.39-.39,2.75-1.45,3.96Zm-1.68-17.03H82.33v13.92h189.35v-13.92Z"/>
      <path class="cls-9" d="M271.68,49.31v13.92H82.33v-13.92h189.35Z"/>
    </g>
    <g>
      <path class="cls-5" d="M218.14,90.86c-.5,0-1.07,0-1.65,0-61.37-.02-22.25-.04-83.62-.06-1.56,0-3.13-.11-4.69-.03-1.56,.08-2.3-1.18-3.32-1.92-.45-.32-.51-1.36-.51-2.08,0-4.17,.03-8.34,.1-12.52,.04-2.31,.66-2.97,2.98-3.18,1.21-.11,2.43-.09,3.65-.09,35.64-.05,58.01-.17,83.79-.18,.41,0,.82,.04,1.22,0,1.87-.21,3.05,.84,3.21,3.06,.31,4.33,.28,8.69,.29,13.03,0,1.39-.39,2.75-1.45,3.96Zm-1.68-17.03H127.59v13.92h88.86v-13.92Z"/>
      <path class="cls-2" d="M216.46,73.83v13.92H127.59v-13.92h88.86Z"/>
    </g>
    <g>
      <path class="cls-6" d="M253.06,115.39c-.5,0-1.07,0-1.65,0-61.37-.02-22.25-.04-83.62-.06-1.56,0-3.13-.11-4.69-.03-1.56,.08-2.3-1.18-3.32-1.92-.45-.32-.51-1.36-.51-2.08,0-4.17,.03-8.34,.1-12.52,.04-2.31,.66-2.97,2.98-3.18,1.21-.11,2.43-.09,3.65-.09,35.64-.05,58.01-.17,83.79-.18,.41,0,.82,.04,1.22,0,1.87-.21,3.05,.84,3.21,3.06,.31,4.33,.28,8.69,.29,13.03,0,1.39-.39,2.75-1.45,3.96Zm-1.68-17.03h-88.86v13.92h88.86v-13.92Z"/>
      <path class="cls-17" d="M251.38,98.36v13.92h-88.86v-13.92h88.86Z"/>
    </g>
    <g>
      <path class="cls-7" d="M294.63,139.92c-.5,0-1.07,0-1.65,0-61.37-.02-22.25-.04-83.62-.06-1.56,0-3.13-.11-4.69-.03-1.56,.08-2.3-1.18-3.32-1.92-.45-.32-.51-1.36-.51-2.08,0-4.17,.03-8.34,.1-12.52,.04-2.31,.66-2.97,2.98-3.18,1.21-.11,2.43-.09,3.65-.09,35.64-.05,58.01-.17,83.79-.18,.41,0,.82,.04,1.22,0,1.87-.21,3.05,.84,3.21,3.06,.31,4.33,.28,8.69,.29,13.03,0,1.39-.39,2.75-1.45,3.96Zm-1.68-17.03h-88.86v13.92h88.86v-13.92Z"/>
      <path class="cls-8" d="M292.95,122.89v13.92h-88.86v-13.92h88.86Z"/>
    </g>
    <g>
      <path class="cls-6" d="M294.63,164.44c-.5,0-1.07,0-1.65,0-61.37-.02-22.25-.04-83.62-.06-1.56,0-3.13-.11-4.69-.03-1.56,.08-2.3-1.18-3.32-1.92-.45-.32-.51-1.36-.51-2.08,0-4.17,.03-8.34,.1-12.52,.04-2.31,.66-2.97,2.98-3.18,1.21-.11,2.43-.09,3.65-.09,35.64-.05,58.01-.17,83.79-.18,.41,0,.82,.04,1.22,0,1.87-.21,3.05,.84,3.21,3.06,.31,4.33,.28,8.69,.29,13.03,0,1.39-.39,2.75-1.45,3.96Zm-1.68-17.03h-88.86v13.92h88.86v-13.92Z"/>
      <path class="cls-15" d="M292.95,147.42v13.92h-88.86v-13.92h88.86Z"/>
    </g>
    <g>
      <path class="cls-5" d="M336.2,188.97c-.5,0-1.07,0-1.65,0-61.37-.02-22.25-.04-83.62-.06-1.56,0-3.13-.11-4.69-.03-1.56,.08-2.3-1.18-3.32-1.92-.45-.32-.51-1.36-.51-2.08,0-4.17,.03-8.34,.1-12.52,.04-2.31,.66-2.97,2.98-3.18,1.21-.11,2.43-.09,3.65-.09,35.64-.05,58.01-.17,83.79-.18,.41,0,.82,.04,1.22,0,1.87-.21,3.05,.84,3.21,3.06,.31,4.33,.28,8.69,.29,13.03,0,1.39-.39,2.75-1.45,3.96Zm-1.68-17.03h-88.86v13.92h88.86v-13.92Z"/>
      <path class="cls-2" d="M334.52,171.94v13.92h-88.86v-13.92h88.86Z"/>
    </g>
    <g>
      <path class="cls-6" d="M389.76,211.46c-.5,0-1.07,0-1.65,0-61.37-.02-22.25-.04-83.62-.06-1.56,0-3.13-.11-4.69-.03-1.56,.08-2.3-1.18-3.32-1.92-.45-.32-.51-1.36-.51-2.08,0-4.17,.03-8.34,.1-12.52,.04-2.31,.66-2.97,2.98-3.18,1.21-.11,2.43-.09,3.65-.09,35.64-.05,58.01-.17,83.79-.18,.41,0,.82,.04,1.22,0,1.87-.21,3.05,.84,3.21,3.06,.31,4.33,.28,8.69,.29,13.03,0,1.39-.39,2.75-1.45,3.96Zm-1.68-17.03h-88.86v13.92h88.86v-13.92Z"/>
      <path class="cls-18" d="M388.08,194.43v13.92h-88.86v-13.92h88.86Z"/>
    </g>
    <g>
      <path class="cls-6" d="M389.76,237.19c-.5,0-1.07,0-1.65,0-61.37-.02-22.25-.04-83.62-.06-1.56,0-3.13-.11-4.69-.03-1.56,.08-2.3-1.18-3.32-1.92-.45-.32-.51-1.36-.51-2.08,0-4.17,.03-8.34,.1-12.52,.04-2.31,.66-2.97,2.98-3.18,1.21-.11,2.43-.09,3.65-.09,35.64-.05,58.01-.17,83.79-.18,.41,0,.82,.04,1.22,0,1.87-.21,3.05,.84,3.21,3.06,.31,4.33,.28,8.69,.29,13.03,0,1.39-.39,2.75-1.45,3.96Zm-1.68-17.03h-88.86v13.92h88.86v-13.92Z"/>
      <path class="cls-16" d="M388.08,220.16v13.92h-88.86v-13.92h88.86Z"/>
    </g>
  </g>
  <path class="cls-3" d="M340.23,275.62c-5.04,0-10.07,.01-15.11-.01-.74,0-1.52-.05-2.22-.26-1.65-.5-2.73-1.96-2.78-3.61-.06-1.72,.98-3.28,2.68-3.86,.64-.22,1.36-.31,2.04-.31,10.25-.02,20.49-.01,30.74,0,.74,0,1.51,.08,2.22,.28,1.76,.5,2.89,1.98,2.91,3.68,.03,1.76-1.13,3.33-2.97,3.81-.77,.21-1.6,.24-2.4,.25-5.04,.02-10.07,.01-15.11,.01h0Z"/>
  <path class="cls-3" d="M236.57,275.62c-5.04,0-10.07,.01-15.11-.01-.74,0-1.52-.05-2.22-.26-1.65-.5-2.73-1.96-2.78-3.61-.06-1.72,.98-3.28,2.68-3.86,.64-.22,1.36-.31,2.04-.31,10.25-.02,20.49-.01,30.74,0,.74,0,1.51,.08,2.22,.28,1.76,.5,2.89,1.98,2.91,3.68,.03,1.76-1.13,3.33-2.97,3.81-.77,.21-1.6,.24-2.4,.25-5.04,.02-10.07,.01-15.11,.01h0Z"/>
  <path class="cls-4" d="M42.28,84.82c-5.04,0-10.07,.01-15.11-.01-.74,0-1.52-.05-2.22-.26-1.65-.5-2.73-1.96-2.78-3.61-.06-1.72,.98-3.28,2.68-3.86,.64-.22,1.36-.31,2.04-.31,10.25-.02,20.49-.01,30.74,0,.74,0,1.51,.08,2.22,.28,1.76,.5,2.89,1.98,2.91,3.68,.03,1.76-1.13,3.33-2.97,3.81-.77,.21-1.6,.24-2.4,.25-5.04,.02-10.07,.01-15.11,.01h0Z"/>
  <path class="cls-4" d="M42.28,109.35c-5.04,0-10.07,.01-15.11-.01-.74,0-1.52-.05-2.22-.26-1.65-.5-2.73-1.96-2.78-3.61-.06-1.72,.98-3.28,2.68-3.86,.64-.22,1.36-.31,2.04-.31,10.25-.02,20.49-.01,30.74,0,.74,0,1.51,.08,2.22,.28,1.76,.5,2.89,1.98,2.91,3.68,.03,1.76-1.13,3.33-2.97,3.81-.77,.21-1.6,.24-2.4,.25-5.04,.02-10.07,.01-15.11,.01h0Z"/>
  <path class="cls-3" d="M42.28,133.88c-5.04,0-10.07,.01-15.11-.01-.74,0-1.52-.05-2.22-.26-1.65-.5-2.73-1.96-2.78-3.61-.06-1.72,.98-3.28,2.68-3.86,.64-.22,1.36-.31,2.04-.31,10.25-.02,20.49-.01,30.74,0,.74,0,1.51,.08,2.22,.28,1.76,.5,2.89,1.98,2.91,3.68,.03,1.76-1.13,3.33-2.97,3.81-.77,.21-1.6,.24-2.4,.25-5.04,.02-10.07,.01-15.11,.01h0Z"/>
  <path class="cls-4" d="M42.28,158.4c-5.04,0-10.07,.01-15.11-.01-.74,0-1.52-.05-2.22-.26-1.65-.5-2.73-1.96-2.78-3.61-.06-1.72,.98-3.28,2.68-3.86,.64-.22,1.36-.31,2.04-.31,10.25-.02,20.49-.01,30.74,0,.74,0,1.51,.08,2.22,.28,1.76,.5,2.89,1.98,2.91,3.68,.03,1.76-1.13,3.33-2.97,3.81-.77,.21-1.6,.24-2.4,.25-5.04,.02-10.07,.01-15.11,.01h0Z"/>
  <path class="cls-3" d="M42.28,182.93c-5.04,0-10.07,.01-15.11-.01-.74,0-1.52-.05-2.22-.26-1.65-.5-2.73-1.96-2.78-3.61-.06-1.72,.98-3.28,2.68-3.86,.64-.22,1.36-.31,2.04-.31,10.25-.02,20.49-.01,30.74,0,.74,0,1.51,.08,2.22,.28,1.76,.5,2.89,1.98,2.91,3.68,.03,1.76-1.13,3.33-2.97,3.81-.77,.21-1.6,.24-2.4,.25-5.04,.02-10.07,.01-15.11,.01h0Z"/>
  <path class="cls-4" d="M42.28,207.46c-5.04,0-10.07,.01-15.11-.01-.74,0-1.52-.05-2.22-.26-1.65-.5-2.73-1.96-2.78-3.61-.06-1.72,.98-3.28,2.68-3.86,.64-.22,1.36-.31,2.04-.31,10.25-.02,20.49-.01,30.74,0,.74,0,1.51,.08,2.22,.28,1.76,.5,2.89,1.98,2.91,3.68,.03,1.76-1.13,3.33-2.97,3.81-.77,.21-1.6,.24-2.4,.25-5.04,.02-10.07,.01-15.11,.01h0Z"/>
  <path class="cls-3" d="M42.28,231.99c-5.04,0-10.07,.01-15.11-.01-.74,0-1.52-.05-2.22-.26-1.65-.5-2.73-1.96-2.78-3.61-.06-1.72,.98-3.28,2.68-3.86,.64-.22,1.36-.31,2.04-.31,10.25-.02,20.49-.01,30.74,0,.74,0,1.51,.08,2.22,.28,1.76,.5,2.89,1.98,2.91,3.68,.03,1.76-1.13,3.33-2.97,3.81-.77,.21-1.6,.24-2.4,.25-5.04,.02-10.07,.01-15.11,.01h0Z"/>
</svg>