<?xml version="1.0" encoding="UTF-8"?>
<svg id="Capa_1" data-name="Capa 1" xmlns="http://www.w3.org/2000/svg" xmlns:xlink="http://www.w3.org/1999/xlink" viewBox="0 0 423.76 300.99">
  <defs>
    <style>
      .cls-1, .cls-2, .cls-3, .cls-4 {
        fill: none;
      }

      .cls-5 {
        clip-path: url(#clippath);
      }

      .cls-6 {
        fill: #683208;
      }

      .cls-7 {
        fill: #683c11;
      }

      .cls-8 {
        fill: #e9c0a0;
      }

      .cls-9 {
        fill: #fff5c5;
      }

      .cls-10 {
        fill: #ffeb5c;
      }

      .cls-11 {
        fill: #f0cbae;
      }

      .cls-12 {
        fill: #e2cc2d;
      }

      .cls-13 {
        fill: #774318;
      }

      .cls-14 {
        fill: #274274;
      }

      .cls-2 {
        stroke: url(#Degradado_sin_nombre_419);
        stroke-width: 8px;
      }

      .cls-2, .cls-3, .cls-4 {
        stroke-linecap: round;
        stroke-linejoin: round;
      }

      .cls-3 {
        stroke: #683c11;
        stroke-width: 13px;
      }

      .cls-15 {
        fill: url(#Degradado_sin_nombre_424);
      }

      .cls-16 {
        fill: url(#Degradado_sin_nombre_435);
      }

      .cls-17 {
        fill: url(#Degradado_sin_nombre_346);
      }

      .cls-18 {
        fill: url(#Degradado_sin_nombre_287);
      }

      .cls-19 {
        fill: url(#Degradado_sin_nombre_284);
      }

      .cls-20 {
        fill: #fff;
        stroke: #fac924;
        stroke-miterlimit: 10;
      }

      .cls-21 {
        fill: url(#Degradado_sin_nombre_287-3);
      }

      .cls-22 {
        fill: url(#Degradado_sin_nombre_287-2);
      }

      .cls-23 {
        fill: url(#Degradado_sin_nombre_284-2);
      }

      .cls-24 {
        fill: url(#Degradado_sin_nombre_284-4);
      }

      .cls-25 {
        fill: url(#Degradado_sin_nombre_284-3);
      }

      .cls-26 {
        fill: url(#Degradado_sin_nombre_284-5);
      }

      .cls-27 {
        fill: url(#Degradado_sin_nombre_435-2);
      }

      .cls-28 {
        fill: url(#Degradado_sin_nombre_435-3);
      }

      .cls-29 {
        fill: url(#Degradado_sin_nombre_435-5);
      }

      .cls-30 {
        fill: url(#Degradado_sin_nombre_435-4);
      }

      .cls-31 {
        fill: url(#Degradado_sin_nombre_435-6);
      }

      .cls-32 {
        fill: url(#Degradado_sin_nombre_424-2);
      }

      .cls-33 {
        fill: url(#Degradado_sin_nombre_424-3);
      }

      .cls-34 {
        fill: url(#Degradado_sin_nombre_424-4);
      }

      .cls-35 {
        fill: url(#Degradado_sin_nombre_424-5);
      }

      .cls-4 {
        stroke: #683208;
        stroke-width: 3px;
      }
    </style>
    <linearGradient id="Degradado_sin_nombre_287" data-name="Degradado sin nombre 287" x1="138.53" y1="142.34" x2="258.35" y2="142.34" gradientUnits="userSpaceOnUse">
      <stop offset="0" stop-color="#5dadcc"/>
      <stop offset="1" stop-color="#274173"/>
    </linearGradient>
    <radialGradient id="Degradado_sin_nombre_346" data-name="Degradado sin nombre 346" cx="178.12" cy="85.11" fx="178.12" fy="85.11" r="39.33" gradientUnits="userSpaceOnUse">
      <stop offset=".13" stop-color="#fff1e6"/>
      <stop offset=".42" stop-color="#efcaac"/>
      <stop offset=".79" stop-color="#deb28b"/>
    </radialGradient>
    <linearGradient id="Degradado_sin_nombre_287-2" data-name="Degradado sin nombre 287" x1="266.3" y1="83.03" x2="307.4" y2="83.03" xlink:href="#Degradado_sin_nombre_287"/>
    <linearGradient id="Degradado_sin_nombre_284" data-name="Degradado sin nombre 284" x1="256.69" y1="133.33" x2="244.67" y2="158.23" gradientUnits="userSpaceOnUse">
      <stop offset="0" stop-color="#b7875b"/>
      <stop offset="1" stop-color="#683207"/>
    </linearGradient>
    <linearGradient id="Degradado_sin_nombre_424" data-name="Degradado sin nombre 424" x1="223.88" y1="239.18" x2="252.99" y2="239.18" gradientUnits="userSpaceOnUse">
      <stop offset="0" stop-color="#a47347"/>
      <stop offset=".79" stop-color="#c49d7b"/>
    </linearGradient>
    <linearGradient id="Degradado_sin_nombre_424-2" data-name="Degradado sin nombre 424" x1="196.75" y1="236.61" x2="222.02" y2="236.61" xlink:href="#Degradado_sin_nombre_424"/>
    <linearGradient id="Degradado_sin_nombre_424-3" data-name="Degradado sin nombre 424" x1="254.15" y1="235.89" x2="279.66" y2="235.89" xlink:href="#Degradado_sin_nombre_424"/>
    <linearGradient id="Degradado_sin_nombre_287-3" data-name="Degradado sin nombre 287" x1="240.35" y1="59.24" x2="275.34" y2="59.24" xlink:href="#Degradado_sin_nombre_287"/>
    <linearGradient id="Degradado_sin_nombre_284-2" data-name="Degradado sin nombre 284" x1="144.83" y1="46.02" x2="207.98" y2="46.02" xlink:href="#Degradado_sin_nombre_284"/>
    <linearGradient id="Degradado_sin_nombre_284-3" data-name="Degradado sin nombre 284" x1="123.71" y1="125.67" x2="96.23" y2="92.19" xlink:href="#Degradado_sin_nombre_284"/>
    <linearGradient id="Degradado_sin_nombre_424-4" data-name="Degradado sin nombre 424" x1="185.31" y1="201.53" x2="187.03" y2="251.33" xlink:href="#Degradado_sin_nombre_424"/>
    <linearGradient id="Degradado_sin_nombre_435" data-name="Degradado sin nombre 435" x1="183.24" y1="270.73" x2="287.55" y2="270.73" gradientUnits="userSpaceOnUse">
      <stop offset="0" stop-color="#e2cc2d"/>
      <stop offset=".5" stop-color="#fcea10"/>
      <stop offset="1" stop-color="#f9b233"/>
    </linearGradient>
    <linearGradient id="Degradado_sin_nombre_424-5" data-name="Degradado sin nombre 424" x1="276.94" y1="227.94" x2="298.42" y2="227.94" xlink:href="#Degradado_sin_nombre_424"/>
    <linearGradient id="Degradado_sin_nombre_435-2" data-name="Degradado sin nombre 435" x1="264.4" y1="183.45" x2="266.98" y2="198.05" xlink:href="#Degradado_sin_nombre_435"/>
    <linearGradient id="Degradado_sin_nombre_435-3" data-name="Degradado sin nombre 435" x1="117.2" y1="53.11" x2="117.2" y2="75.44" xlink:href="#Degradado_sin_nombre_435"/>
    <linearGradient id="Degradado_sin_nombre_284-4" data-name="Degradado sin nombre 284" x1="277.53" y1="166.83" x2="275.98" y2="188.82" xlink:href="#Degradado_sin_nombre_284"/>
    <linearGradient id="Degradado_sin_nombre_435-4" data-name="Degradado sin nombre 435" x1="142.72" y1="53.11" x2="142.72" y2="75.44" xlink:href="#Degradado_sin_nombre_435"/>
    <linearGradient id="Degradado_sin_nombre_435-5" data-name="Degradado sin nombre 435" x1="187.29" y1="181" x2="192.44" y2="211.91" xlink:href="#Degradado_sin_nombre_435"/>
    <linearGradient id="Degradado_sin_nombre_435-6" data-name="Degradado sin nombre 435" x1="158.85" y1="53.11" x2="158.85" y2="75.44" xlink:href="#Degradado_sin_nombre_435"/>
    <linearGradient id="Degradado_sin_nombre_284-5" data-name="Degradado sin nombre 284" x1="189.28" y1="160.64" x2="187.73" y2="182.62" xlink:href="#Degradado_sin_nombre_284"/>
    <clipPath id="clippath">
      <path class="cls-1" d="M277.72,185.48l22.54-8.05s43.94,38.98,69.83,35.19,46.72-31.44,46.72-41.13-13.57-63.1-55.55-55.65-73.56,42.97-73.56,42.97l-9.96,26.66Z"/>
    </clipPath>
    <linearGradient id="Degradado_sin_nombre_419" data-name="Degradado sin nombre 419" x1="282.85" y1="167.55" x2="392.84" y2="167.55" gradientUnits="userSpaceOnUse">
      <stop offset="0" stop-color="#b7875b"/>
      <stop offset="1" stop-color="#683207"/>
    </linearGradient>
  </defs>
  <path class="cls-6" d="M213.96,79.6c1.1,7.4-1.2,14.16-3.87,21.09,3.63-.21,7.12-.65,10.51,.49,3.25,1.1,6.5,2.23,10.04,3.44,0-.82,1.14-17.43,1.28-51.37,.04-8.73,.15-17.45,.29-26.18,.02-.98-.31-1.51-1.07-2.07-3.86-2.91-3.38-7.77,1.02-9.77,3.11-1.41,6.31-1.28,9.23,.53,3.97,2.45,3.9,7.16-.03,9.64-.41,.26-.82,.5-1.22,.74v2.55c.46,0,.86,.02,1.25,0,8.25-.39,16.49-.3,24.61,1.44,2.41,.52,4.77,1.36,7.09,2.22,2.94,1.1,4.94,3.23,5.95,6.21,.23,.68,.32,1.42,.35,2.14,.14,3.82,.24,7.63,.35,11.45,.02,.72,0,1.43,0,2.3,2.39,.36,4.59,.84,6.8,.99,5.26,.36,10.52,.58,15.78,.82,.9,.04,1.81-.16,2.71-.21,1.21-.07,2.42-.19,3.63-.15,1.2,.05,1.72,.69,1.69,1.9-.09,4.91-.24,9.81-.28,14.72-.08,10.3-.12,20.6-.14,30.9,0,1.51,.11,3.03,.28,4.53,.33,2.88-1.27,4.69-3.46,6.05-1.11,.69-2.41,1.18-3.69,1.49-10.88,2.62-21.15,1.03-30.82-4.56-1.2-.7-2.35-1.5-3.47-2.32-2.75-2-4.34-4.84-5.57-7.92-.17-.43-.15-.95-.15-1.43,.02-1.58,.08-3.15,.1-4.73,.02-1.51,0-3.02,0-4.7-1.91-.47-3.8-1.02-5.73-1.4-4.51-.88-8.92-.32-13.25,1.09-.52,.17-1,.43-1.51,.62-.85,.32-1.15,.89-1.11,1.82,.12,3.51,.19,7.03,.26,10.54,.36,19.03,.07,6.22,.02,7.24,.56,.27,1.19,.6,1.84,.9,7.55,3.58,15.14,7.09,22.65,10.75,4.13,2.01,8.13,4.28,12.28,6.48,.03-.23,.07-.61,.11-.98,.05-.6,.06-1.21,.16-1.81,.46-2.83,2.57-3.67,4.87-1.96,2.58,1.92,3.19,4.75,3.47,7.69,.11,1.13,.02,2.28,.02,3.6,.56-.35,.98-.67,1.45-.88,.65-.3,1.32-.65,2.01-.75,1.28-.19,2.03,.45,1.97,1.72-.06,1.13-.24,2.3-.61,3.37-.48,1.36-1.07,2.72-1.84,3.94-3.69,5.9-7.46,11.76-11.21,17.63-.39,.61-.8,1.2-1.32,1.97,.67,.19,1.21,.37,1.77,.49,4.92,1.07,9.78,2.31,14.38,4.4,2.93,1.33,5.81,2.77,8.27,4.88,1.28,1.09,2.51,2.32,3.47,3.68,2.46,3.47,2.47,7.37,.04,10.86-.92,1.33-2.14,2.45-3.28,3.62-.44,.45-.73,.83-.82,1.51-.91,6.84-1.83,13.69-2.86,20.51-1.83,12.04-3.73,24.06-5.61,36.09-1.09,6.94-2.19,13.88-3.28,20.82-.1,.61-.14,1.16-.91,1.39-.35,.1-.62,.55-.88,.88-2.71,3.51-6.09,6.23-9.88,8.46-6.11,3.6-12.72,5.94-19.63,7.4-16.86,3.58-33.58,3.07-50.11-1.97-4.65-1.42-9.16-3.23-13.28-5.82-2.5-1.57-4.88-3.38-7.16-5.26-2.16-1.78-3.69-4.09-5.09-6.55-1.93-3.4-2.83-6.96-3.25-10.82-1.32-12.41-2.87-24.8-4.25-37.2-.98-8.79-1.85-17.59-2.75-26.39-.1-.95-.01-1.92-.01-2.9-.7-.86-1.49-1.71-2.13-2.65-2.41-3.51-2.53-7.38-.07-10.86,1.14-1.61,2.56-3.12,4.14-4.27,2.29-1.66,4.85-2.96,7.3-4.39,.57-.33,1.19-.58,1.95-.95-.21-.6-.36-1.17-.6-1.7-3.27-7.03-6.54-14.06-9.83-21.07-.36-.77-.79-1.5-1.23-2.23-1-1.64-2.05-2.08-3.96-1.81-6.21,.88-12.45,.76-18.68,.36-7.66-.49-15.07-2.35-22.42-4.39-5.48-1.52-10.93-3.17-16.33-4.95-2.04-.67-3.93-1.84-5.84-2.87-.79-.42-1.58-1.02-1.36-2.14,.22-1.11,1.15-1.29,2.06-1.47,.21-.04,.43-.09,.99-.21-.78-.45-1.28-.76-1.79-1.03-3.39-1.79-6.66-3.76-9.44-6.42-1.44-1.37-2.69-2.95-3.98-4.47-.48-.57-.78-1.28-.34-2.02,.47-.78,1.27-.86,2.09-.77,.53,.06,1.05,.16,1.81,.28-5.94-9.69-9.35-19.99-10.02-31.33-1.84-.11-3.65-.34-5.44-.29-3.4,.08-5.97-1.4-7.92-4.03-2.85-3.83-3.7-8.22-3.45-12.89,.17-3.22,1.21-6.21,2.85-8.92,1.75-2.88,4.32-4.51,7.89-4.11,.7,.08,1.42-.07,2.32-.12,.09-.76,.27-1.46,.25-2.15-.11-4.37,1.11-8.37,3.2-12.15,1.03-1.85,3.18-2.72,5.28-2.22,2.11,.5,3.49,2.08,3.62,4.22,.06,.95,0,1.92,0,3,2.18-.58,4.32-.95,6.37,0,4.28-3.11,7.59-2.63,10.86,1.56,.29-.18,.58-.36,.88-.54,2.27-1.32,4.14-1.27,5.96,.59,2.83,2.91,4.66,6.32,4.24,10.59-.01,.12,.04,.24,.06,.38,1.5,.4,2.99,.84,4.51,1.2,1.41,.34,2.55,1.07,3.54,2.09,.32,.33,.74,.7,1.16,.78,3.21,.58,6.43,1.09,9.78,1.64,.16-4.37,.9-8.51,2.66-12.4-2.76-2.31-2.74-4.69,0-7.08,1.85-1.61,3.27-2.31,6.79-3.27-.52-.22-.9-.35-1.25-.54-.74-.4-1.54-.74-2.18-1.27-2.37-1.99-2.05-4.99,.68-6.53,.68-.38,1.43-.69,2.18-.87,3.44-.8,6.91-1.26,10.45-.9,2.16,.22,4.32,.36,6.62,.55-.09-.41-.16-.68-.21-.95-.25-1.48,.24-2.47,1.64-3.04,1.48-.6,3.02-.88,4.63-.53,6.38,1.37,12.52,3.46,18.02,7,8.35,5.37,15.12,12.28,19.73,21.17,.19,.38,.45,.73,.57,1.13,.25,.85,.81,1.18,1.64,1.46,5.78,1.95,9.32,5.95,10.43,11.95,1.18,6.34-1.86,12.68-7.45,15.9-.52,.3-1.07,.57-1.86,1Zm-3.08,1.29c-.45-.03-.74-.04-1.03-.08-1.97-.23-3.95-.44-5.92-.73-.58-.09-1.16-.36-1.69-.64-.88-.48-1.19-1.32-.91-2.13,.28-.8,1.09-1.24,2.06-1.06,.47,.09,.92,.33,1.4,.39,1.37,.19,2.77,.54,4.13,.44,5.75-.42,10.33-4.81,10.97-10.36,.68-5.8-2.71-11.34-8.33-12.95-6.59-1.9-11.56,.05-14.05,6.59-.6,1.57-.98,3.25-1.25,4.92-.27,1.67-.25,3.38-.39,5.07-.12,1.45-.39,1.72-1.85,1.93-2.26,.33-4.22-.83-6.31-1.32-.3-.07-.63-.75-.65-1.16-.05-1.19,.06-2.39,.07-3.59,.03-2.17,.37-4.41-.01-6.51-.71-3.86-1.61-7.7-5.44-10.02-1.56-.95-3.05-1.35-4.8-1.09-2.62,.39-4.99,1.46-7.25,2.77-1.57,.91-3.11,1.87-4.69,2.78-3.13,1.81-6.31,1.9-9.53,.21-.91-.48-1.85-.9-2.78-1.34-1.52-.72-3.05-.64-4.59-.07-2.07,.77-3.05,2.52-4.23,4.37,.56,.12,.9,.2,1.25,.26,4.65,.81,9.31,1.58,13.96,2.44,4.28,.79,7.06,3.79,7.68,8.1,.06,.45,.12,.89,.18,1.31,1.77-.9,3.41-1.78,5.09-2.57,.64-.3,1.39-.45,2.1-.52,.72-.07,1.33,.27,1.48,1.05,.14,.79-.33,1.24-1.04,1.47-.29,.09-.59,.15-.88,.21-3.06,.66-5.61,2.35-7.86,4.36-1.57,1.4-2.87,3.09-4.98,3.68,.61,2.34,.13,3.59-1.77,4.75-1.89,1.16-3.97,1.42-6.13,1.22-3.28-.31-4.66-1.58-5.16-4.9-1.51,.07-3.04,.14-4.63,.21,.03,.73,.04,1.21,.08,1.69,.11,1.17-.05,2.16-1.37,2.64-.35,.13-.64,.54-.85,.88-1.64,2.57-3.03,5.26-3.81,8.21-2.38,8.95-.14,16.52,6.91,22.59,2.94,2.53,6.35,4.21,10.02,5.39,7.08,2.29,14.29,2.45,21.55,1.08,8.13-1.53,15.44-4.85,21.88-10.08,8.06-6.54,12.05-15.12,12.92-25.31,.13-1.49,.28-2.97,.43-4.56Zm13,192.65c9.2,1.17,18.11,1.16,27.11-.4,.05-.82,.12-1.54,.14-2.26,.15-5.27,.27-10.54,.43-15.81,.46-14.77,.94-29.55,1.39-44.32,.07-2.28,0-4.57,0-6.77-9.58,.11-18.94,.21-28.26,.32-.27,22.97-.55,46.02-.83,69.24Zm-3.17-.5c.44-23.18,.88-46.14,1.31-69.19-8.51-.63-16.89-1.76-25.27-3.66,1.04,22.09,2.07,44.02,3.1,66.02,6.53,3.38,13.42,5.62,20.85,6.83Zm35.27-69.63c-.16,2.51-.37,4.79-.43,7.09-.17,6.9-.26,13.81-.42,20.72-.31,12.96-.65,25.92-.97,38.88-.02,.76,0,1.52,0,2.3,5.14-.62,15.43-4.22,19.44-6.73,2.02-22.06,4.04-44.09,6.07-66.26-7.83,1.99-15.66,3.17-23.69,4.02Zm-80.35-11.47c.04,.69,.03,1.1,.08,1.5,.54,4.08,1.14,8.16,1.62,12.24,1.65,13.95,3.26,27.9,4.86,41.86,.16,1.35,.53,2.58,1.22,3.76,3.14,5.35,7.54,9.42,12.72,12.72,.13,.08,.34,.03,.68,.04-.87-21.51-1.74-42.96-2.61-64.5-6.46-1.77-12.73-3.91-18.58-7.62Zm111.93,67.89c-.5,.36-.8,.53-1.06,.76-5.88,5.33-12.7,9.07-20.17,11.59-15.78,5.31-31.87,6.24-48.19,3.07-7.65-1.49-14.96-3.98-21.74-7.9-4.76-2.76-9.02-6.11-12.38-10.52-.15-.2-.4-.31-.77-.59,.14,1.25,.28,2.27,.35,3.29,.11,1.72,.61,3.3,1.49,4.8,1.48,2.54,3.31,4.77,5.5,6.72,3.65,3.26,7.84,5.67,12.31,7.6,7.45,3.21,15.27,5.02,23.32,5.92,11.24,1.26,22.37,.74,33.38-1.91,6.69-1.61,13.08-4,18.84-7.84,2.74-1.82,5.24-3.91,7.24-6.56,.32-.43,.69-.9,.78-1.4,.41-2.25,.73-4.52,1.12-7.03Zm-5.33-61.11c-.43,10.99-1.61,21.75-2.5,32.53-.88,10.77-1.85,21.53-2.79,32.43,.4-.12,.58-.14,.72-.23,3.93-2.36,7.36-5.31,10.34-8.78,.33-.38,.51-.96,.6-1.47,.89-5.56,1.74-11.12,2.63-16.68,2-12.49,4.03-24.97,6.05-37.46,.35-2.18,.72-4.35,1.14-6.87-5.36,3.05-10.81,4.96-16.19,6.52Zm-55.27,2.09c.83,.06,1.43,.11,2.03,.14,11.41,.48,22.78-.12,34.09-1.64,7.69-1.03,15.29-2.55,22.66-5.04,4.78-1.61,9.42-3.53,13.5-6.57,1.61-1.2,3.07-2.56,4.07-4.35,1.08-1.93,1.32-3.94,.22-5.9-1.37-2.45-3-4.7-5.77-5.79-1.9-.75-3.83-1.47-5.67-2.35-4.4-2.1-9.04-3.45-13.78-4.48-.87-.19-1.76-.32-2.69-.49-.92,1.37-1.77,2.63-2.69,4,8.61,1.33,16.3,4.22,23.3,9.11,.44-.54,.89-1.08,1.35-1.63,.88,.53,1.7,1.02,2.68,1.61-.57,.78-1.05,1.54-1.64,2.2-1.49,1.63-3.35,2.78-5.29,3.79-3.35,1.73-6.9,2.96-10.53,3.94-9.84,2.66-19.89,4.05-30.05,4.78-8.11,.58-16.22,.82-24.34,.56-.35-.01-.7,.09-1.02,.14-.54,1.41-.47,2.69,.3,3.9,.55,.85,.61,1.65-.05,2.51-.3,.39-.41,.93-.67,1.56Zm-86.55-84.96c-.63-.69-1.04-1.11-1.42-1.56-4.73-5.46-6.86-11.75-6.02-18.97,.62-5.31,2.66-10.04,6-14.19,.62-.78,.94-1.47,.48-2.54-2.63,.13-5.22,.23-7.81,.44-.45,.04-.96,.45-1.27,.83-1.41,1.77-3,2.72-5.46,2.95-4.47,.42-8.93,.61-13.41,.61-.57,0-1.15,.07-1.73,.11,2.34,17.05,15.74,30.95,30.64,32.33Zm153.31,63.73c.01-.18,.02-.36,.04-.54-2.27-1.11-4.5-2.32-6.81-3.32-4.67-2.03-9.48-3.6-14.58-4.18-1.13-.13-1.9,.12-2.59,1.12-3.32,4.84-6.71,9.62-10.07,14.43-.26,.38-.47,.8-.78,1.34,.53,0,.89,.05,1.23,0,4.84-.75,9.69-1.38,14.5-2.3,5.46-1.05,10.84-2.49,15.9-4.87,1.08-.51,2.11-1.11,3.16-1.67Zm-89.89,16.75c-.25,.06-.48,.11-.71,.18-2.61,.71-4.39,.13-5.74-2.17-.79-1.34-1.34-2.83-1.83-4.32-.3-.9-.68-1.34-1.64-1.63-3.24-.98-6.46-2.04-9.62-3.23-2.16-.81-4.15-2.02-5.81-3.65-.75-.74-1.37-1.62-2.11-2.51,.89-.81,1.59-1.44,2.29-2.07,.69,.79,1.3,1.49,1.71,1.96,2.56-1.5,4.88-2.86,7.24-4.24-.65-1.41-1.29-2.78-1.93-4.14-.07-.16-.21-.28-.31-.41-3.87,.67-5.24,1.28-8.16,3.61-.33,.26-.64,.57-1,.78-1.48,.82-2.5,2.1-3.37,3.49-1.46,2.34-1.47,4.76,.13,6.98,.94,1.31,2.07,2.59,3.38,3.5,2.18,1.5,4.49,2.88,6.9,3.99,6.42,2.95,13.24,4.59,20.16,5.87,.71,.13,1.44,.21,2.5,.37-.87-.98-1.47-1.65-2.09-2.35Zm48.01-40.21c2.23-3.21,4.46-6.42,6.69-9.64-2.49-1.53-16.92-7.98-18.18-8.02,2.55,6,3.25,11.36,5.72,17.18,2.07,.17,3.87,.32,5.76,.48ZM95.31,49.35c-.18-.83-.32-1.29-.37-1.76-.07-.66,.16-1.31,.83-1.43,.44-.08,1.07,.14,1.42,.45,.48,.43,.7,1.15,1.17,1.6,.59,.56,1.26,1.17,2.01,1.4,1.34,.4,2.52-.83,1.98-2.11-.82-1.94-1.81-3.82-2.86-5.65-.57-1-1.59-1.42-2.8-1.35-3.17,.18-7.4,3.71-6.18,8.53,1.47,.1,3.02,.2,4.8,.31Zm-7.4-.6c.04-2.66,.56-4.87,1.33-7.06,.64-1.82,1.15-3.7,1.57-5.58,.27-1.24-.12-1.83-1.05-2.23-.94-.4-1.64-.24-2.39,.68-1.64,2-2.85,4.23-3.1,6.85-.17,1.81-.23,3.63-.31,5.44-.02,.46,.09,.93,.16,1.5,1.27,.14,2.43,.27,3.79,.41Zm13.18,30.28c-3.96-3.55-5.27-7.82-5.22-12.62,.05-4.86,1.64-9.07,5.59-12.27-2.47-.73-3.4-.57-4.8,1.22-.88,1.12-1.68,2.42-2.09,3.77-1.66,5.37-1.28,10.65,1.35,15.66,.6,1.15,1.54,2.16,2.44,3.12,.6,.64,1.39,1.15,2.74,1.12Zm-22.1-4.77c-2.79-2.43-3.52-3.31-4.33-5.37-1.47-3.74-1.62-7.55-.41-11.37,.79-2.5,2.16-4.59,4.72-5.65,.07-.03,.09-.21,.15-.36-1.62-.74-3.08-.37-4.35,.72-1.36,1.15-2.37,2.54-2.82,4.33-1.04,4.12-.87,8.18,.78,12.09,.6,1.42,1.53,2.74,2.5,3.95,.84,1.05,2.05,1.65,3.77,1.66Zm23.28-34.1c1.02,2.67,1.85,5.05,2.86,7.35,.34,.77,1.04,1.47,1.74,1.95,.76,.51,1.63,.14,2.35-.39,.56-.42,.96-.95,.66-1.7-.86-2.11-1.7-4.23-2.62-6.31-.4-.9-1.24-1.31-2.23-1.24-.93,.07-1.86,.23-2.76,.35Zm9.55,2.33c.22,.63,.49,1.29,.69,1.97,.31,1.09,.79,2.2,.81,3.31,.03,1.59,1.02,2.49,1.95,3.49,.18,.2,.53,.32,.81,.33,1.45,.03,2.81-1.61,2.48-3.07-.48-2.14-1.41-4.1-2.87-5.75-1.23-1.39-2.02-1.43-3.86-.26Zm124.9-19.12c1.01-.35,2.09-.56,3-1.08,1.47-.85,1.52-2.3,.28-3.44-1.73-1.58-4.96-1.79-6.9-.43-1.52,1.06-1.54,2.57-.02,3.68,1.05,.77,2.26,1.1,3.63,1.27Zm-47.61,153.93c-2.88,1.14-4.52,2.18-5.73,3.56,1.94,1.5,6.98,3.45,8.7,3.34-.98-2.28-1.95-4.53-2.96-6.9ZM99.69,61.76c.05,.9,.35,1.64,1.22,2.06,.88,.42,1.7,.22,2.32-.43,.66-.69,1.23-1.49,1.74-2.3,.7-1.1,.56-2.2-.27-2.95-.83-.74-2.02-.81-3-.08-1.24,.92-1.79,2.24-2.02,3.71Zm-19.62-7.21c-1.91,.06-3.94,3.01-3.32,4.8,.43,1.22,1.97,1.77,2.95,.86,.91-.84,1.72-1.89,2.25-3.01,.68-1.4-.36-2.71-1.89-2.66Zm78.96,23.16c-4.54-.38-7.08,.09-8.14,1.42,1.73,1.25,5.56,1.42,7.15,.22,.41-.31,.58-.94,.99-1.64Zm90.75,81.12h-2.2c.33,.71,.59,1.25,.96,2.03,.49-.81,.82-1.35,1.24-2.03Z"/>
  <path class="cls-18" d="M176.34,124.38c0,.49,0,.78,0,1.06-.06,3.55,1.5,5.99,4.76,7.42,2.82,1.23,5.79,1.35,8.75,.96,6.78-.89,12.83-3.54,17.96-8.08,1.61-1.43,2.89-3.24,4.29-4.9,.27-.32,.44-.73,.63-1.1,2.83-5.59,.75-10.45-5.24-12.21-.4-.12-.81-.22-1.47-.4,.68-.98,1.26-1.87,1.92-2.7,.19-.23,.62-.34,.95-.36,1.69-.12,3.39-.16,5.08-.29,2.72-.21,5.33,.26,7.83,1.26,5.17,2.07,10.37,4.09,15.44,6.37,6.57,2.96,13.03,6.15,19.54,9.24,.49,.23,.97,.48,1.57,.77-.15,.49-.23,.96-.44,1.36-1.59,3.2-3.19,6.39-4.83,9.56-1.08,2.09-2.23,4.14-3.4,6.31-.5-.2-1-.38-1.48-.59-6.06-2.62-12.11-5.25-18.17-7.87-.94-.41-1.91-.78-2.88-1.1-1.32-.44-2.07-.25-2.39,.5-.3,.72,.08,1.4,1.32,2.09,1,.56,2.06,1.03,3.09,1.53,1.58,.76,3.52,1.17,4.64,2.37,1.11,1.19,1.37,3.17,2.05,4.79,3.33,7.99,6.67,15.98,10.14,24.3-3.06,4.5-6.31,9.29-9.68,14.25-1.47-.97-2.87-1.8-4.16-2.77-2.27-1.72-4.44-3.57-6.72-5.27-1.6-1.19-3.26-2.32-4.99-3.32-2.6-1.52-5.44-1.97-8.42-1.42-7.61,1.41-12.67,5.92-15.68,12.92-.24,.55-.45,1.12-.67,1.68-.02,.05-.09,.08-.25,.21-.27-.35-.62-.66-.81-1.05-2-3.94-4.06-7.85-5.95-11.84-4.15-8.76-8.21-17.55-12.32-26.33-.38-.82-.89-1.58-1.35-2.37-1.59-2.69-4.09-3.58-6.99-3.19-4.89,.66-9.79,.82-14.68,.53-4.1-.24-8.18-.87-12.27-1.35-.59-.07-1.17-.26-1.95-.44-.19-5.13-.37-10.24-.56-15.44,2.49,.11,4.72,.19,6.94,.32,.34,.02,.67,.26,.98,.44,7.69,4.25,15.96,5.48,24.6,4.73,1.69-.15,3.37-.37,5.28-.59Z"/>
  <path class="cls-17" d="M210.88,80.89c-.15,1.59-.31,3.08-.43,4.56-.87,10.19-4.86,18.78-12.92,25.31-6.44,5.23-13.76,8.55-21.88,10.08-7.26,1.37-14.47,1.21-21.55-1.08-3.66-1.18-7.08-2.86-10.02-5.39-7.05-6.07-9.29-13.64-6.91-22.59,.78-2.95,2.17-5.65,3.81-8.21,.22-.34,.51-.75,.85-.88,1.31-.48,1.47-1.47,1.37-2.64-.04-.48-.05-.96-.08-1.69,1.59-.07,3.12-.14,4.63-.21,.5,3.32,1.88,4.59,5.16,4.9,2.16,.21,4.24-.06,6.13-1.22,1.9-1.17,2.38-2.41,1.77-4.75,2.11-.59,3.4-2.28,4.98-3.68,2.25-2.01,4.8-3.7,7.86-4.36,.3-.06,.6-.12,.88-.21,.71-.23,1.18-.68,1.04-1.47-.14-.78-.76-1.12-1.48-1.05-.71,.07-1.45,.22-2.1,.52-1.69,.78-3.33,1.67-5.09,2.57-.06-.41-.11-.86-.18-1.31-.62-4.31-3.4-7.31-7.68-8.1-4.64-.86-9.3-1.63-13.96-2.44-.35-.06-.69-.14-1.25-.26,1.17-1.84,2.16-3.6,4.23-4.37,1.55-.57,3.07-.65,4.59,.07,.93,.44,1.87,.86,2.78,1.34,3.22,1.69,6.4,1.6,9.53-.21,1.57-.91,3.11-1.87,4.69-2.78,2.27-1.31,4.63-2.38,7.25-2.77,1.75-.26,3.24,.14,4.8,1.09,3.83,2.32,4.73,6.16,5.44,10.02,.39,2.1,.04,4.34,.01,6.51-.02,1.2-.13,2.39-.07,3.59,.02,.41,.35,1.09,.65,1.16,2.09,.49,4.05,1.65,6.31,1.32,1.46-.21,1.73-.48,1.85-1.93,.14-1.69,.12-3.4,.39-5.07,.27-1.66,.65-3.35,1.25-4.92,2.49-6.54,7.46-8.48,14.05-6.59,5.62,1.62,9,7.15,8.33,12.95-.65,5.54-5.23,9.94-10.97,10.36-1.36,.1-2.76-.25-4.13-.44-.47-.07-.92-.31-1.4-.39-.97-.18-1.78,.26-2.06,1.06-.29,.82,.03,1.65,.91,2.13,.52,.29,1.1,.56,1.69,.64,1.97,.29,3.94,.5,5.92,.73,.29,.03,.58,.04,1.03,.08Zm-66.66,8.26c.59,1.48,.6,2.83,.09,4.2-.42,1.14-.89,2.26-1.22,3.42-.44,1.57-.89,3.15-1.12,4.75-.24,1.68,.18,3.3,1.46,4.5,2.03,1.91,4.18,3.69,6.7,4.95,7.26,3.65,14.94,4.76,22.95,3.7,5.88-.78,10.99-3.22,15.26-7.36,1.37-1.33,2.37-2.9,3.12-4.64,1.71-3.99,1.71-8.13,1.05-12.31-.08-.53-.28-1.07-.55-1.53-2.07-3.42-4.66-6.34-8.27-8.19-.85-.43-1.82-.66-2.75-.89-3.01-.73-5.92-.16-8.71,.94-2.64,1.04-5.26,2.18-7.82,3.4-4.76,2.28-9.6,2.7-14.64,1.07-1.31-.42-2.71-.63-4.09-.72-1.63-.1-2.92,.89-3.48,2.4-.65,1.76,.07,2.62,2.03,2.31Zm63.67-32.36c-.2,.01-.63,0-1.04,.07-1.6,.25-3.03,.87-4.14,2.07-.42,.45-.82,.99-.32,1.61,.43,.53,.97,.32,1.48,.06,.54-.27,1.06-.59,1.63-.8,2.3-.84,4.44-.59,6.2,1.21,1.83,1.87,2.23,4.13,1.37,6.56-.82,2.34-2.59,3.58-5.04,3.83-.48,.05-.98-.02-1.45,.06-.66,.11-1.09,.54-1.16,1.22-.07,.69,.29,1.25,.93,1.38,.75,.16,1.57,.23,2.33,.13,3.52-.49,6.4-3.19,7.3-6.74,1.37-5.41-2.47-10.62-8.08-10.65Z"/>
  <path class="cls-22" d="M307.4,59.59c-.91,16.83-1.67,33.7-.77,50.56-3.08,1.91-6.47,2.62-9.9,2.85-9.04,.59-17.44-1.42-24.95-6.67-2.35-1.64-4.22-3.63-4.92-6.51-.14-.58-.29-1.17-.3-1.76-.1-14.3-.18-28.59-.27-42.89,0-.66,0-1.32,0-2.19,.51,.25,.89,.37,1.2,.59,3.51,2.42,7.46,3.7,11.63,4.34,5.93,.9,11.87,1.73,17.88,1.79,3.38,.03,6.76-.06,10.39-.1Z"/>
  <path class="cls-19" d="M202.6,192.93c-1.47,.62-1.7,.58-2.41-.68-1.69-3-1.97-6.26-1.27-9.53,1.45-6.81,7.19-12.19,13.42-13.32,2.1-.38,4.14-.29,6,.76,1.84,1.04,3.64,2.17,5.35,3.41,2.3,1.67,4.44,3.58,6.77,5.21,1.62,1.13,3.43,2.01,5.21,2.9,1.05,.52,2.1,.46,2.91-.62,.47-.62,1.11-1.12,1.54-1.76,6.47-9.52,12.92-19.05,19.37-28.59,.64-.95,1.23-1.94,1.91-3.02,.41,.09,.86,.23,1.32,.29,.81,.11,1.45-.21,1.77-.96,.34-.79,0-1.43-.64-1.89-.39-.28-.84-.48-1.28-.68-2.65-1.19-5.31-2.37-7.96-3.56-.49-.22-.97-.46-1.61-.76,.48-1.05,.86-2.06,1.39-2.98,2.59-4.45,5.14-8.92,6.94-13.77,.04-.1,.17-.16,.35-.32,.52,.24,1.14,.47,1.71,.77,4.92,2.6,7.47,4,14.27,7.56,1.32,.69,2.65,1.51,4.29,1.08,.55-.84,.48-1.67,.2-2.58-.44-1.43-.82-2.89-.37-4.57,1.06,.56,1.57,1.37,1.91,2.35,.62,1.75,.75,3.55,.56,5.38-.16,1.57-.4,3.12-.6,4.68-.05,.36-.09,.72-.12,1.08-.04,.73,.17,1.34,.91,1.6,.67,.24,1.13-.13,1.58-.6,.89-.94,1.82-1.84,2.74-2.75,.11,.08,.23,.16,.34,.23-.35,.81-.61,1.67-1.05,2.43-1.56,2.66-3.07,5.36-4.8,7.91-4.84,7.1-9.78,14.13-14.68,21.19-4.36,6.27-8.75,12.51-13.07,18.8-.64,.93-1.33,1.42-2.48,1.5-7.93,.54-15.86,.66-23.76,.47-1.3-1.64-2.34-1.71-3.61-.11-1.73,2.19-2.59,4.64-1.71,7.46,.05,.17,.12,.34,.16,.52,.19,.85-.19,2.13-.74,2.46-.57,.35-1.74,0-2.37-.87-.48-.67-.88-1.46-1.09-2.25-.7-2.68-.19-5.31,.66-7.86,.67-2,1.4-4,2.9-5.6,.23-.25,.37-.84,.23-1.1-.16-.29-.74-.58-1.04-.51-.68,.16-1.41,.44-1.93,.88-.63,.53-1.16,1.24-1.6,1.96-2.27,3.66-3.41,7.6-2.89,11.94,.06,.53,.07,1.07,.11,1.68-1.08,.22-1.68-.38-2.14-1.07-.71-1.07-1.21-2.22-1.22-3.55-.06-5.13,1.09-9.85,4.54-13.82,.12-.14,.3-.26,.34-.42,.1-.44,.35-1.12,.15-1.3-.32-.31-1-.51-1.41-.38-.66,.21-1.32,.64-1.82,1.13-2.12,2.09-3.44,4.68-4.24,7.51-.86,3.05-1.43,6.14-.8,9.33,.03,.16-.05,.34-.07,.5-1.52,.09-2.56-.56-3.11-2.12-.66-1.84-.92-3.78-.69-5.73,.32-2.59,.97-5.11,2.08-7.5,.89-1.9,2.06-3.56,3.92-4.65,.55-.32,1.37-.67,1-1.48-.38-.83-1.23-.59-1.94-.39-1.91,.53-3.26,1.83-4.38,3.37-2,2.75-3.18,5.87-3.68,9.19-.29,1.95-.19,3.96-.26,6.12Z"/>
  <path class="cls-15" d="M223.88,273.54c.28-23.22,.55-46.26,.83-69.24,9.32-.1,18.67-.21,28.26-.32,0,2.2,.06,4.49,0,6.77-.45,14.77-.93,29.55-1.39,44.32-.16,5.27-.28,10.54-.43,15.81-.02,.72-.09,1.44-.14,2.26-9,1.56-17.91,1.57-27.11,.4Z"/>
  <path class="cls-32" d="M220.71,273.04c-7.43-1.2-14.32-3.45-20.85-6.83-1.03-22.01-2.07-43.94-3.1-66.02,8.39,1.9,16.76,3.03,25.27,3.66-.44,23.06-.87,46.02-1.31,69.19Z"/>
  <path class="cls-33" d="M255.98,203.41c8.03-.85,15.86-2.03,23.69-4.02-2.03,22.17-4.05,44.21-6.07,66.26-4.01,2.52-14.3,6.11-19.44,6.73,0-.78-.02-1.54,0-2.3,.32-12.96,.66-25.92,.97-38.88,.16-6.9,.25-13.81,.42-20.72,.06-2.29,.27-4.58,.43-7.09Z"/>
  <path class="cls-21" d="M241.55,87.07c-.4-18.65-.79-37.05-1.19-55.65,.56,0,1.07,0,1.59,0,5.88,0,11.75,.17,17.6,.85,4.05,.47,8.02,1.3,11.75,2.95,1.24,.55,2.42,1.38,3.4,2.33,1.03,.99,.81,1.78-.52,2.37-1.1,.49-2.3,.74-3.44,1.12-1.43,.47-2.92,.83-4.28,1.47-2.32,1.1-3.62,2.85-3.37,5.64,.17,1.92-.06,3.87-.04,5.81,.06,10.12,.14,20.23,.22,30.35,0,.65,0,1.29,0,2.06-7.36-2.58-14.43-2.3-21.71,.71Z"/>
  <path class="cls-23" d="M144.83,51.2c.32-2.48,1.18-4.59,2.29-6.6,.15-.28,.5-.52,.81-.64,1.36-.5,2.72-1.03,4.12-1.4,.94-.25,1.5-.85,2.24-1.62-3.07-.49-6,.86-9.23-.31,.74-.65,1.19-1.12,1.71-1.47,3.67-2.49,7.64-4.15,12.1-4.6,1.03-.1,2.19,0,3.09-.94-.41-.68-1.06-.55-1.62-.6-3.65-.37-7.11-1.43-10.49-2.78-.21-.08-.38-.28-.65-.49,1.48-1.18,3.17-1.62,4.87-2,3.42-.76,6.88-.54,10.32-.21,4.73,.45,9.31,1.54,13.73,3.31,.28,.11,.58,.28,.86,.26,.37-.02,.73-.2,1.1-.31-.16-.36-.23-.88-.5-1.04-1.73-.99-3.48-1.96-5.28-2.82-1.84-.88-3.08-2.42-4.84-3.65,1.64-.73,3.02-.5,4.34-.13,8.2,2.32,15.74,5.93,22.27,11.49,4.77,4.05,8.49,8.95,11.53,14.4,.14,.25,.22,.53,.4,.99-4.81,.46-8.75,2.47-11.58,6.19-2.83,3.72-3.52,8.16-3.45,13.01-.97-.24-1.8-.46-2.78-.7,.15-1.12,.28-2.18,.42-3.24,.74-5.28-.46-10.28-3.31-14.58-2.68-4.03-6.92-6.48-12.03-5.07-2.54,.7-4.88,1.79-7.12,3.14-1.45,.87-2.89,1.78-4.33,2.68-2.33,1.47-4.66,1.47-7.03,.07-.94-.55-1.91-1.06-2.9-1.51-2.42-1.09-4.82-1-7.18,.21-.58,.3-1.15,.6-1.87,.98Z"/>
  <path class="cls-25" d="M95.66,113.03c2.77,.66,5.15,2.31,8.23,2.58-9.56-10.62-14.07-23.26-16.06-37.24,1.52,.11,2.88,.3,4.24,.29,1.47-.01,2.57,.41,3.61,1.54,1.38,1.5,3.25,2.27,5.31,2.5,1.92,.22,3.83,.51,5.76,.77,2.83,17.23,11.38,29.78,28.55,35.3,0,2.56-.04,5.09,.01,7.62,.05,2.47,.18,4.95,.28,7.68-1.12-.29-2.02-.56-2.94-.74-1.06-.21-2.13-.35-3.19-.51-.77-.12-1.58-.14-2.32-.36-4.59-1.32-9.17-2.68-13.75-4.04-.63-.19-1.22-.49-2.15-.87,1.09-.46,1.98-.31,2.78-.54,.43-.12,1.1-.44,1.11-.69,.02-.44-.31-.97-.64-1.33-.31-.35-.78-.56-1.21-.79-3.29-1.79-6.66-3.47-9.87-5.4-2.38-1.43-4.56-3.18-6.81-4.81-.36-.26-.63-.65-.95-.98Z"/>
  <path class="cls-34" d="M175.62,191.94c5.85,3.71,12.12,5.85,18.58,7.62,.87,21.54,1.74,42.99,2.61,64.5-.35-.02-.56,.04-.68-.04-5.18-3.29-9.58-7.37-12.72-12.72-.69-1.18-1.07-2.41-1.22-3.76-1.61-13.95-3.22-27.91-4.86-41.86-.48-4.09-1.08-8.16-1.62-12.24-.05-.4-.05-.81-.08-1.5Z"/>
  <path class="cls-16" d="M287.55,259.83c-.39,2.52-.71,4.78-1.12,7.03-.09,.5-.46,.97-.78,1.4-1.99,2.64-4.5,4.73-7.24,6.56-5.77,3.84-12.15,6.23-18.84,7.84-11.01,2.65-22.14,3.17-33.38,1.91-8.05-.9-15.86-2.71-23.32-5.92-4.47-1.93-8.66-4.34-12.31-7.6-2.19-1.95-4.01-4.18-5.5-6.72-.88-1.5-1.37-3.07-1.49-4.8-.07-1.02-.21-2.04-.35-3.29,.37,.28,.62,.4,.77,.59,3.36,4.41,7.62,7.76,12.38,10.52,6.78,3.92,14.09,6.41,21.74,7.9,16.32,3.17,32.41,2.24,48.19-3.07,7.48-2.52,14.29-6.26,20.17-11.59,.26-.23,.56-.41,1.06-.76Z"/>
  <path class="cls-35" d="M282.23,198.72c5.38-1.56,10.84-3.48,16.19-6.52-.42,2.51-.79,4.69-1.14,6.87-2.02,12.49-4.04,24.97-6.05,37.46-.89,5.56-1.73,11.12-2.63,16.68-.08,.51-.27,1.09-.6,1.47-2.98,3.47-6.41,6.42-10.34,8.78-.14,.08-.32,.1-.72,.23,.94-10.9,1.9-21.66,2.79-32.43,.88-10.78,2.07-21.54,2.5-32.53Z"/>
  <path class="cls-27" d="M226.95,200.81c.26-.63,.37-1.17,.67-1.56,.66-.86,.6-1.65,.05-2.51-.77-1.21-.84-2.49-.3-3.9,.32-.05,.67-.15,1.02-.14,8.12,.26,16.24,.01,24.34-.56,10.15-.72,20.2-2.12,30.05-4.78,3.63-.98,7.17-2.21,10.53-3.94,1.95-1.01,3.8-2.15,5.29-3.79,.6-.66,1.07-1.43,1.64-2.2-.99-.59-1.81-1.08-2.68-1.61-.46,.55-.91,1.1-1.35,1.63-7-4.89-14.69-7.79-23.3-9.11,.92-1.37,1.77-2.63,2.69-4,.93,.17,1.82,.3,2.69,.49,4.74,1.04,9.38,2.39,13.78,4.48,1.85,.88,3.77,1.6,5.67,2.35,2.77,1.09,4.4,3.34,5.77,5.79,1.1,1.96,.86,3.97-.22,5.9-1,1.78-2.46,3.14-4.07,4.35-4.08,3.04-8.73,4.96-13.5,6.57-7.37,2.49-14.97,4.01-22.66,5.04-11.31,1.52-22.68,2.12-34.09,1.64-.6-.03-1.19-.08-2.03-.14Z"/>
  <path class="cls-28" d="M106.8,80.49c3.91-4.71,4.84-9.86,4.26-15.33-.59-5.47-2.56-10.3-7.24-13.65,1.3,.45,2.59,1.22,3.91,1.27,1.31,.05,2.64-.62,4.12-1.01,.19,.24,.51,.67,.84,1.08,1.65,2.05,3.44,2.53,5.76,1.33,.94-.49,1.76-.62,2.75-.33,1.1,.33,2.23,.53,3.34,.83,2.01,.54,3.45,1.82,4.2,3.71,.65,1.62,1.23,3.3,1.52,5.01,.64,3.82,.36,7.61-.93,11.29-.34,.96-.81,1.9-1.32,2.78-.83,1.42-1.99,2.23-3.77,2.43-5.67,.64-11.35,.47-17.44,.58Z"/>
  <path class="cls-12" d="M235.32,26.69c.69,.03,1.23,.06,1.86,.09,.79,44.59,.68,36.58,1.48,81.46-1.71-.76-3.21-1.43-4.72-2.11,0,0,1.22-35.36,1.38-79.44Z"/>
  <path class="cls-13" d="M179.69,123.71c2.71-.98,5.31-1.82,7.81-2.86,5.42-2.25,10.31-5.37,14.54-9.46,.72-.69,1.39-1.08,2.39-.78,1.26,.39,2.63,.54,3.8,1.1,1.83,.87,2.51,2.43,1.98,4.39-.31,1.15-.78,2.33-1.47,3.28-1.03,1.4-2.2,2.77-3.53,3.88-5.02,4.17-10.76,6.74-17.35,7.06-1.49,.07-3.04-.11-4.49-.47-2.74-.69-3.72-2.17-3.68-5.03,0-.36,0-.72,0-1.1Z"/>
  <path class="cls-24" d="M293.72,179.58c-1.05,.56-2.08,1.17-3.16,1.67-5.07,2.38-10.44,3.82-15.9,4.87-4.8,.92-9.66,1.55-14.5,2.3-.34,.05-.7,0-1.23,0,.31-.54,.52-.96,.78-1.34,3.36-4.81,6.75-9.59,10.07-14.43,.69-1,1.46-1.25,2.59-1.12,5.1,.59,9.91,2.15,14.58,4.18,2.32,1.01,4.55,2.21,6.81,3.32-.01,.18-.02,.36-.04,.54Z"/>
  <path class="cls-30" d="M132.33,76.36c2-6.04,2.02-11.98-.04-18.16,1.41,.21,2.65,.36,3.88,.57,4,.68,7.98,1.43,11.98,2.04,1.72,.26,2.88,1.13,3.75,2.54,1.95,3.17,1.56,8.66-.9,11.47-.37,.42-1.13,.65-1.73,.7-3.26,.23-6.53,.38-9.79,.55-1.75,.09-3.51,.2-5.26,.28-.59,.03-1.17,0-1.89,0Z"/>
  <path class="cls-29" d="M203.83,196.33c.62,.7,1.21,1.36,2.09,2.35-1.07-.16-1.79-.24-2.5-.37-6.92-1.28-13.75-2.92-20.16-5.87-2.4-1.11-4.72-2.48-6.9-3.99-1.31-.91-2.44-2.19-3.38-3.5-1.6-2.23-1.6-4.64-.13-6.98,.87-1.39,1.89-2.66,3.37-3.49,.37-.2,.67-.51,1-.78,2.92-2.34,4.3-2.95,8.16-3.61,.1,.13,.24,.26,.31,.41,.64,1.36,1.27,2.73,1.93,4.14-2.36,1.38-4.67,2.74-7.24,4.24-.41-.47-1.02-1.16-1.71-1.96-.7,.63-1.4,1.26-2.29,2.07,.74,.89,1.35,1.77,2.11,2.51,1.66,1.63,3.65,2.84,5.81,3.65,3.16,1.19,6.38,2.25,9.62,3.23,.96,.29,1.34,.73,1.64,1.63,.49,1.48,1.04,2.98,1.83,4.32,1.35,2.29,3.13,2.88,5.74,2.17,.23-.06,.46-.11,.71-.18Z"/>
  <path class="cls-31" d="M153.41,75.36c2.37-4.54,2.7-8.89,.25-13.5,2.97,.43,5.83,.44,8.18,2.04,2.01,1.36,2.63,3.57,2.4,5.94-.19,1.97-1.14,3.56-2.81,4.65-.39,.26-.87,.48-1.32,.52-2.11,.15-4.22,.23-6.71,.35Z"/>
  <path class="cls-12" d="M92.24,75.71c-2.56-.21-5-.4-7.52-.61,5.05-8.11,4.61-15.99-.34-23.94,3.8,.34,7.5,.67,11.26,1-.06,.17-.06,.39-.17,.47-3.05,2.48-4.36,5.87-4.98,9.59-.7,4.21-.22,8.31,1.35,12.29,.13,.33,.23,.68,.4,1.19Z"/>
  <path class="cls-8" d="M95.31,49.35c-1.78-.12-3.33-.22-4.8-.31-1.22-4.82,3.01-8.35,6.18-8.53,1.2-.07,2.22,.35,2.8,1.35,1.05,1.83,2.04,3.71,2.86,5.65,.54,1.27-.63,2.51-1.98,2.11-.75-.22-1.42-.84-2.01-1.4-.47-.45-.69-1.17-1.17-1.6-.35-.31-.97-.53-1.42-.45-.67,.12-.89,.77-.83,1.43,.05,.47,.19,.93,.37,1.76Z"/>
  <path class="cls-14" d="M276.34,43.01c.04,.17,.11,.33,.11,.5,0,3.32,0,6.64,0,10.13-.54-.07-.93-.07-1.3-.18-2.66-.74-5.1-1.92-7.1-3.84-2.26-2.16-1.98-3.47,1-4.47,2.39-.8,4.83-1.43,7.28-2.15Z"/>
  <path class="cls-8" d="M87.91,48.75c-1.36-.15-2.52-.28-3.79-.41-.06-.57-.18-1.03-.16-1.5,.08-1.81,.14-3.63,.31-5.44,.25-2.62,1.46-4.85,3.1-6.85,.75-.91,1.45-1.08,2.39-.68,.93,.4,1.32,.99,1.05,2.23-.42,1.89-.93,3.76-1.57,5.58-.77,2.19-1.29,4.4-1.33,7.06Z"/>
  <path class="cls-10" d="M101.1,79.03c-1.35,.03-2.14-.48-2.74-1.12-.9-.96-1.84-1.97-2.44-3.12-2.62-5.01-3.01-10.29-1.35-15.66,.42-1.35,1.22-2.65,2.09-3.77,1.4-1.79,2.33-1.95,4.8-1.22-3.95,3.21-5.54,7.41-5.59,12.27-.05,4.8,1.26,9.07,5.22,12.62Z"/>
  <path class="cls-10" d="M79,74.26c-1.72,0-2.93-.6-3.77-1.66-.97-1.22-1.9-2.53-2.5-3.95-1.64-3.91-1.82-7.97-.78-12.09,.45-1.78,1.46-3.18,2.82-4.33,1.28-1.09,2.73-1.47,4.35-.72-.06,.16-.07,.33-.15,.36-2.56,1.06-3.93,3.14-4.72,5.65-1.21,3.83-1.06,7.64,.41,11.37,.81,2.06,1.54,2.94,4.33,5.37Z"/>
  <path class="cls-8" d="M102.28,40.17c.9-.12,1.82-.29,2.76-.35,.98-.07,1.83,.34,2.23,1.24,.92,2.08,1.76,4.2,2.62,6.31,.3,.75-.09,1.28-.66,1.7-.71,.53-1.59,.9-2.35,.39-.71-.47-1.41-1.18-1.74-1.95-1.01-2.3-1.84-4.68-2.86-7.35Z"/>
  <path class="cls-8" d="M111.83,42.5c1.84-1.16,2.64-1.13,3.86,.26,1.46,1.65,2.39,3.61,2.87,5.75,.33,1.46-1.03,3.1-2.48,3.07-.28,0-.63-.13-.81-.33-.93-1-1.92-1.89-1.95-3.49-.02-1.11-.5-2.21-.81-3.31-.19-.68-.46-1.34-.69-1.97Z"/>
  <path class="cls-12" d="M236.73,23.38c-1.37-.17-2.58-.5-3.63-1.27-1.53-1.11-1.51-2.62,.02-3.68,1.94-1.35,5.16-1.15,6.9,.43,1.25,1.14,1.19,2.58-.28,3.44-.91,.52-1.99,.73-3,1.08Z"/>
  <path class="cls-26" d="M189.13,177.31c1.02,2.36,1.99,4.62,2.96,6.9-1.72,.11-6.75-1.84-8.7-3.34,1.21-1.38,2.85-2.42,5.73-3.56Z"/>
  <path class="cls-11" d="M99.69,61.76c.23-1.48,.78-2.8,2.02-3.71,.98-.72,2.17-.66,3,.08,.83,.75,.97,1.85,.27,2.95-.52,.81-1.08,1.61-1.74,2.3-.62,.65-1.44,.85-2.32,.43-.87-.41-1.18-1.15-1.22-2.06Z"/>
  <path class="cls-11" d="M80.07,54.55c1.53-.05,2.56,1.26,1.89,2.66-.54,1.11-1.35,2.16-2.25,3.01-.98,.91-2.52,.36-2.95-.86-.63-1.8,1.41-4.74,3.32-4.8Z"/>
  <path class="cls-13" d="M159.03,77.71c-.41,.7-.58,1.33-.99,1.64-1.58,1.2-5.42,1.03-7.15-.22,1.06-1.33,3.59-1.8,8.14-1.42Z"/>
  <path class="cls-20" d="M249.78,158.82c-.42,.69-.75,1.23-1.24,2.03-.37-.78-.62-1.32-.96-2.03h2.2Z"/>
  <path class="cls-6" d="M144.22,89.14c-1.96,.31-2.68-.56-2.03-2.31,.56-1.51,1.85-2.51,3.48-2.4,1.38,.09,2.78,.3,4.09,.72,5.05,1.63,9.88,1.21,14.64-1.07,2.56-1.23,5.18-2.36,7.82-3.4,2.8-1.1,5.71-1.66,8.71-.94,.94,.23,1.9,.45,2.75,.89,3.62,1.85,6.2,4.77,8.27,8.19,.28,.46,.47,1,.55,1.53,.66,4.19,.66,8.33-1.05,12.31-.75,1.74-1.75,3.32-3.12,4.64-4.28,4.14-9.38,6.58-15.26,7.36-8.01,1.06-15.69-.05-22.95-3.7-2.51-1.26-4.66-3.04-6.7-4.95-1.28-1.2-1.7-2.82-1.46-4.5,.23-1.61,.68-3.19,1.12-4.75,.33-1.16,.8-2.29,1.22-3.42,.51-1.37,.5-2.72-.09-4.2Zm44.68-.07c-1.69-1.71-3.05-3.36-4.68-4.68-2.38-1.92-5.21-2.55-8.22-1.88-1.59,.35-3.13,.92-4.67,1.46-3.08,1.08-6.13,2.27-9.22,3.31-2.72,.91-5.54,1.3-8.41,1.13-.77-.05-1.53-.15-2.62-.25,.56,2.53,1.07,4.85,1.6,7.26,2.08,.34,4.04,.69,6.01,.97,.39,.06,.85-.07,1.22-.23,2.97-1.25,5.92-1.12,8.82,.15,1.2,.53,2.3,.57,3.47-.02,.75-.38,1.56-.66,2.36-.94,1.46-.52,2.93-1.02,4.42-1.53,.35,.68,.59,1.15,.85,1.67-2.81,1.18-5.52,2.39-8.28,3.44-.8,.3-1.8,.35-2.65,.19-1.54-.29-3.04-.78-4.54-1.25-1.03-.32-2.06-.47-3,.08-1.54,.89-3.12,.74-4.76,.45-1.88-.32-3.77-.58-5.9-.9-.28,2.78-.53,5.42-.82,8.06-.14,1.26,.42,2.06,1.53,2.56,.33,.15,.64,.33,.97,.5,5.42,2.78,11.17,3.87,17.23,3.44,4.8-.34,9.25-1.65,13.29-4.37,3.68-2.47,5.99-5.76,6.69-10.14,.27-1.7,.25-3.4,.05-5.2-1.89,1.24-3.54,2.36-5.22,3.42-1.02,.65-2.1,.83-3.25,.15,.33-.37,.87-.7,.92-1.09,.22-1.59,1.53-2.05,2.6-2.78,1.33-.91,2.64-1.87,4.19-2.97Z"/>
  <path class="cls-13" d="M207.9,56.78c5.61,.03,9.46,5.24,8.08,10.65-.9,3.55-3.78,6.25-7.3,6.74-.76,.11-1.57,.03-2.33-.13-.64-.14-1-.7-.93-1.38,.07-.68,.5-1.11,1.16-1.22,.47-.08,.97-.01,1.45-.06,2.45-.25,4.22-1.49,5.04-3.83,.85-2.42,.46-4.69-1.37-6.56-1.76-1.8-3.9-2.05-6.2-1.21-.56,.21-1.09,.53-1.63,.8-.51,.26-1.05,.47-1.48-.06-.5-.62-.1-1.16,.32-1.61,1.12-1.2,2.54-1.82,4.14-2.07,.42-.07,.85-.05,1.04-.07Z"/>
  <path class="cls-9" d="M188.9,89.08c-1.55,1.1-2.86,2.05-4.19,2.97-1.07,.74-2.38,1.19-2.6,2.78-.05,.39-.59,.71-.92,1.09,1.15,.68,2.23,.49,3.25-.15,1.68-1.07,3.33-2.18,5.22-3.42,.2,1.8,.22,3.5-.05,5.2-.7,4.38-3.01,7.67-6.69,10.14-4.04,2.71-8.49,4.03-13.29,4.37-6.06,.43-11.81-.66-17.23-3.44-.32-.17-.64-.35-.97-.5-1.11-.5-1.67-1.3-1.53-2.56,.29-2.63,.54-5.27,.82-8.06,2.12,.32,4.02,.58,5.9,.9,1.64,.28,3.22,.44,4.76-.45,.94-.54,1.97-.4,3-.08,1.5,.47,3,.97,4.54,1.25,.85,.16,1.85,.11,2.65-.19,2.76-1.05,5.46-2.25,8.28-3.44-.27-.52-.5-.99-.85-1.67-1.49,.52-2.96,1.01-4.42,1.53-.8,.29-1.61,.56-2.36,.94-1.17,.59-2.27,.55-3.47,.02-2.9-1.27-5.85-1.4-8.82-.15-.38,.16-.83,.29-1.22,.23-1.97-.28-3.93-.63-6.01-.97-.53-2.41-1.05-4.73-1.6-7.26,1.08,.11,1.85,.21,2.62,.25,2.88,.17,5.69-.22,8.41-1.13,3.1-1.04,6.14-2.23,9.22-3.31,1.54-.54,3.08-1.11,4.67-1.46,3.01-.67,5.84-.04,8.22,1.88,1.63,1.31,2.99,2.96,4.68,4.68Z"/>
  <path class="cls-8" d="M242.96,175.1c-.95,1.4-1.9,2.8-2.85,4.2-.44,.64-1.08,1.14-1.54,1.76-.81,1.08-1.86,1.14-2.91,.62-1.78-.88-3.59-1.77-5.21-2.9-2.33-1.63-4.47-3.53-6.77-5.21-1.71-1.24-3.51-2.38-5.35-3.41-1.86-1.05-3.9-1.14-6-.76-6.23,1.13-11.97,6.51-13.42,13.32-.7,3.27-.42,6.52,1.27,9.53,.71,1.26,.94,1.3,2.41,.68,.08-2.17-.03-4.17,.26-6.12,.5-3.32,1.69-6.44,3.68-9.19,1.12-1.54,2.47-2.84,4.38-3.37,.71-.2,1.55-.44,1.94,.39,.37,.81-.45,1.16-1,1.48-1.86,1.09-3.03,2.74-3.92,4.65-1.11,2.38-1.77,4.9-2.08,7.5-.24,1.95,.03,3.88,.68,5.73,.55,1.56,1.59,2.2,3.11,2.12,.03-.16,.1-.34,.07-.5-.64-3.19-.07-6.28,.8-9.33,.8-2.83,2.12-5.42,4.24-7.51,.5-.49,1.16-.92,1.82-1.13,.41-.13,1.09,.07,1.41,.38,.19,.18-.05,.86-.15,1.3-.04,.16-.22,.28-.34,.42-3.45,3.97-4.6,8.69-4.54,13.82,.01,1.33,.51,2.49,1.22,3.55,.46,.69,1.06,1.29,2.14,1.07-.04-.61-.04-1.15-.11-1.68-.52-4.34,.62-8.28,2.89-11.94,.44-.71,.96-1.42,1.6-1.96,.53-.44,1.25-.72,1.93-.88,.31-.07,.88,.22,1.04,.51,.14,.25,0,.85-.23,1.1-1.5,1.6-2.23,3.6-2.9,5.6-.85,2.55-1.36,5.18-.66,7.86,.21,.79,.61,1.58,1.09,2.25,.62,.87,1.8,1.22,2.37,.87,.54-.33,.93-1.61,.74-2.46-.04-.18-.11-.35-.16-.52-.88-2.82-.02-5.27,1.71-7.46,1.27-1.61,2.31-1.53,3.61,.11,7.9,.19,15.83,.07,23.76-.47,1.15-.08,1.84-.57,2.48-1.5,1.32-1.92,2.65-3.83,3.98-5.75l-16.51-6.76Z"/>
  <path class="cls-6" d="M260.61,180.95c-1.58,2.37,1.23,8.17-2.59,9.4s-5.33-5.1-5.33-5.1c0,0-1.05,5.27-2.98,3.18s-1.39-4.94-1.39-4.94c0,0-5.45,6.02-7.22,3.69s2.11-6.24,2.11-6.24c0,0-2.28,.44-6.09,.1s-3.06-2.65,.08-4.59,6.89-7.28,6.89-7.28l16.52,11.76Z"/>
  <path class="cls-4" d="M245.54,169.2s-3.74,5.34-6.89,7.28-3.89,4.25-.08,4.59,6.09-.1,6.09-.1c0,0-3.88,3.91-2.11,6.24s7.22-3.69,7.22-3.69c0,0-.54,2.85,1.39,4.94s2.98-3.18,2.98-3.18c0,0,1.51,6.33,5.33,5.1s1.01-7.03,2.59-9.4"/>
  <g class="cls-5">
    <g>
      <g>
        <path class="cls-3" d="M286.85,187.66s2.51-17.15,18.17-24.64c15.66-7.49,30.24,3.72,40.32,11.58s29,16.9,37.99,7.29,5.27-25.2,.78-29.77-15.66-7.91-19.69,.47"/>
        <path class="cls-2" d="M286.85,187.66s2.51-17.15,18.17-24.64c15.66-7.49,30.24,3.72,40.32,11.58s29,16.9,37.99,7.29,5.27-25.2,.78-29.77-15.66-7.91-19.69,.47"/>
      </g>
      <path class="cls-6" d="M392.02,156.37s.91-2.86,2.78-2.39,2.8,3.88,1.87,8.06c-.93,4.19-2.14,7.27-2.14,7.27l-1.65-8.36-.86-4.59Z"/>
      <path class="cls-7" d="M391.25,161.42s1.71-6.36,2.79-4.81,.78,7.84-1.4,11.83-1.4-7.02-1.4-7.02Z"/>
      <path class="cls-6" d="M394.56,168.68s2.42-1.77,3.66-.29-.03,4.78-3.26,7.61c-3.23,2.83-6.03,4.6-6.03,4.6l3.61-7.72,2.02-4.21Z"/>
      <path class="cls-7" d="M390.95,172.3s5.13-4.12,5.09-2.23-4.01,6.79-8.12,8.72,3.03-6.49,3.03-6.49Z"/>
    </g>
  </g>
</svg>