<?xml version="1.0" encoding="UTF-8"?>
<svg id="Capa_1" data-name="Capa 1" xmlns="http://www.w3.org/2000/svg" xmlns:xlink="http://www.w3.org/1999/xlink" viewBox="0 0 423.76 300.99">
  <defs>
    <style>
      .cls-1 {
        stroke: url(#Degradado_sin_nombre_444-5);
      }

      .cls-1, .cls-2 {
        stroke-width: 1.94px;
      }

      .cls-1, .cls-2, .cls-3, .cls-4, .cls-5, .cls-6, .cls-7, .cls-8, .cls-9, .cls-10 {
        stroke-linecap: round;
        stroke-linejoin: round;
      }

      .cls-1, .cls-2, .cls-3, .cls-4, .cls-5, .cls-6, .cls-7, .cls-10 {
        fill: none;
      }

      .cls-2 {
        stroke: url(#Degradado_sin_nombre_444-6);
      }

      .cls-11 {
        fill: #f7d500;
      }

      .cls-12 {
        fill: #fff;
      }

      .cls-13 {
        fill: #a53030;
      }

      .cls-14 {
        fill: #134668;
      }

      .cls-15 {
        fill: #1f7da4;
      }

      .cls-16 {
        fill: #42acd1;
      }

      .cls-3 {
        stroke: url(#Degradado_sin_nombre_444-3);
      }

      .cls-3, .cls-4, .cls-5 {
        stroke-width: 2px;
      }

      .cls-4 {
        stroke: url(#Degradado_sin_nombre_444-4);
      }

      .cls-5 {
        stroke: url(#Degradado_sin_nombre_444-2);
      }

      .cls-17 {
        fill: url(#Degradado_sin_nombre_445);
      }

      .cls-18 {
        fill: url(#Degradado_sin_nombre_435);
      }

      .cls-19 {
        fill: url(#Degradado_sin_nombre_346);
      }

      .cls-20 {
        fill: url(#Degradado_sin_nombre_287);
      }

      .cls-6 {
        stroke-width: 2.72px;
      }

      .cls-6, .cls-8, .cls-9 {
        stroke: #134668;
      }

      .cls-21 {
        fill: url(#Degradado_sin_nombre_287-7);
      }

      .cls-22 {
        fill: url(#Degradado_sin_nombre_287-9);
      }

      .cls-23 {
        fill: url(#Degradado_sin_nombre_287-8);
      }

      .cls-24 {
        fill: url(#Degradado_sin_nombre_287-3);
      }

      .cls-25 {
        fill: url(#Degradado_sin_nombre_287-5);
      }

      .cls-26 {
        fill: url(#Degradado_sin_nombre_287-2);
      }

      .cls-27 {
        fill: url(#Degradado_sin_nombre_287-6);
      }

      .cls-28 {
        fill: url(#Degradado_sin_nombre_287-4);
      }

      .cls-29 {
        fill: url(#Degradado_sin_nombre_346-3);
      }

      .cls-30 {
        fill: url(#Degradado_sin_nombre_346-4);
      }

      .cls-31 {
        fill: url(#Degradado_sin_nombre_346-2);
      }

      .cls-32 {
        fill: url(#Degradado_sin_nombre_346-5);
      }

      .cls-33 {
        fill: url(#Degradado_sin_nombre_435-2);
      }

      .cls-34 {
        fill: url(#Degradado_sin_nombre_435-3);
      }

      .cls-7 {
        stroke: #1e5f89;
        stroke-width: 7.67px;
      }

      .cls-8 {
        fill: #1e628d;
      }

      .cls-8, .cls-9 {
        stroke-width: 3px;
      }

      .cls-9 {
        fill: #1c618a;
      }

      .cls-10 {
        stroke: url(#Degradado_sin_nombre_444);
        stroke-width: 12.47px;
      }

      .cls-35 {
        fill: url(#Degradado_sin_nombre_287-11);
      }

      .cls-36 {
        fill: url(#Degradado_sin_nombre_287-10);
      }

      .cls-37 {
        fill: url(#Degradado_sin_nombre_287-19);
      }

      .cls-38 {
        fill: url(#Degradado_sin_nombre_287-16);
      }

      .cls-39 {
        fill: url(#Degradado_sin_nombre_287-18);
      }

      .cls-40 {
        fill: url(#Degradado_sin_nombre_287-13);
      }

      .cls-41 {
        fill: url(#Degradado_sin_nombre_287-15);
      }

      .cls-42 {
        fill: url(#Degradado_sin_nombre_287-14);
      }

      .cls-43 {
        fill: url(#Degradado_sin_nombre_287-12);
      }

      .cls-44 {
        fill: url(#Degradado_sin_nombre_287-17);
      }

      .cls-45 {
        fill: url(#Degradado_sin_nombre_287-21);
      }

      .cls-46 {
        fill: url(#Degradado_sin_nombre_287-20);
      }

      .cls-47 {
        fill: url(#Degradado_sin_nombre_287-22);
      }
    </style>
    <linearGradient id="Degradado_sin_nombre_444" data-name="Degradado sin nombre 444" x1="270.6" y1="180.95" x2="375.79" y2="180.95" gradientUnits="userSpaceOnUse">
      <stop offset="0" stop-color="#134668"/>
      <stop offset="1" stop-color="#134668"/>
    </linearGradient>
    <radialGradient id="Degradado_sin_nombre_346" data-name="Degradado sin nombre 346" cx="254.38" cy="91.09" fx="254.38" fy="91.09" r="31.47" gradientUnits="userSpaceOnUse">
      <stop offset=".13" stop-color="#fff1e6"/>
      <stop offset=".42" stop-color="#efcaac"/>
      <stop offset=".79" stop-color="#deb28b"/>
    </radialGradient>
    <linearGradient id="Degradado_sin_nombre_287" data-name="Degradado sin nombre 287" x1="119.15" y1="131.45" x2="122.06" y2="175.07" gradientUnits="userSpaceOnUse">
      <stop offset="0" stop-color="#5dadcc"/>
      <stop offset="1" stop-color="#274173"/>
    </linearGradient>
    <linearGradient id="Degradado_sin_nombre_287-2" data-name="Degradado sin nombre 287" x1="256.58" y1="119.13" x2="267.15" y2="152.17" xlink:href="#Degradado_sin_nombre_287"/>
    <linearGradient id="Degradado_sin_nombre_435" data-name="Degradado sin nombre 435" x1="289.95" y1="170.48" x2="306.08" y2="173.65" gradientUnits="userSpaceOnUse">
      <stop offset="0" stop-color="#e2cc2d"/>
      <stop offset=".5" stop-color="#fcea10"/>
      <stop offset="1" stop-color="#f9b233"/>
    </linearGradient>
    <linearGradient id="Degradado_sin_nombre_435-2" data-name="Degradado sin nombre 435" x1="205.11" y1="256.02" x2="223.35" y2="250.2" xlink:href="#Degradado_sin_nombre_435"/>
    <linearGradient id="Degradado_sin_nombre_287-3" data-name="Degradado sin nombre 287" x1="222.57" y1="57.72" x2="289.55" y2="57.72" xlink:href="#Degradado_sin_nombre_287"/>
    <linearGradient id="Degradado_sin_nombre_287-4" data-name="Degradado sin nombre 287" x1="234.61" y1="189.89" x2="288.99" y2="189.89" xlink:href="#Degradado_sin_nombre_287"/>
    <radialGradient id="Degradado_sin_nombre_346-2" data-name="Degradado sin nombre 346" cx="197.25" cy="148.57" fx="197.25" fy="148.57" r="20.19" xlink:href="#Degradado_sin_nombre_346"/>
    <linearGradient id="Degradado_sin_nombre_287-5" data-name="Degradado sin nombre 287" x1="203.9" y1="199.88" x2="216.07" y2="210.19" xlink:href="#Degradado_sin_nombre_287"/>
    <linearGradient id="Degradado_sin_nombre_435-3" data-name="Degradado sin nombre 435" x1="158.45" y1="244.95" x2="206.75" y2="244.95" xlink:href="#Degradado_sin_nombre_435"/>
    <linearGradient id="Degradado_sin_nombre_287-6" data-name="Degradado sin nombre 287" x1="262.54" y1="168.48" x2="269.94" y2="177.73" xlink:href="#Degradado_sin_nombre_287"/>
    <linearGradient id="Degradado_sin_nombre_287-7" data-name="Degradado sin nombre 287" x1="286.18" y1="146.71" x2="295.44" y2="154.9" xlink:href="#Degradado_sin_nombre_287"/>
    <linearGradient id="Degradado_sin_nombre_287-8" data-name="Degradado sin nombre 287" x1="237.58" y1="169.98" x2="237.05" y2="180.55" xlink:href="#Degradado_sin_nombre_287"/>
    <radialGradient id="Degradado_sin_nombre_346-3" data-name="Degradado sin nombre 346" cx="184.17" cy="119.51" fx="184.17" fy="119.51" r="21.81" xlink:href="#Degradado_sin_nombre_346"/>
    <linearGradient id="Degradado_sin_nombre_287-9" data-name="Degradado sin nombre 287" x1="173.05" y1="201.63" x2="191.58" y2="201.63" xlink:href="#Degradado_sin_nombre_287"/>
    <linearGradient id="Degradado_sin_nombre_445" data-name="Degradado sin nombre 445" x1="105.09" y1="176.32" x2="143.13" y2="176.32" gradientUnits="userSpaceOnUse">
      <stop offset="0" stop-color="#173b68"/>
      <stop offset="1" stop-color="#274173"/>
    </linearGradient>
    <linearGradient id="Degradado_sin_nombre_287-10" data-name="Degradado sin nombre 287" x1="198.57" y1="226.73" x2="219.54" y2="226.73" xlink:href="#Degradado_sin_nombre_287"/>
    <linearGradient id="Degradado_sin_nombre_287-11" data-name="Degradado sin nombre 287" x1="171.11" y1="273.66" x2="234.33" y2="273.66" xlink:href="#Degradado_sin_nombre_287"/>
    <linearGradient id="Degradado_sin_nombre_287-12" data-name="Degradado sin nombre 287" x1="214.84" y1="164.56" x2="212.2" y2="175.93" xlink:href="#Degradado_sin_nombre_287"/>
    <linearGradient id="Degradado_sin_nombre_287-13" data-name="Degradado sin nombre 287" x1="255.31" y1="199.68" x2="254.51" y2="209.73" xlink:href="#Degradado_sin_nombre_287"/>
    <linearGradient id="Degradado_sin_nombre_287-14" data-name="Degradado sin nombre 287" x1="235.18" y1="195.62" x2="234.92" y2="209.11" xlink:href="#Degradado_sin_nombre_287"/>
    <linearGradient id="Degradado_sin_nombre_287-15" data-name="Degradado sin nombre 287" x1="177.92" y1="219.54" x2="196.91" y2="219.54" xlink:href="#Degradado_sin_nombre_287"/>
    <linearGradient id="Degradado_sin_nombre_287-16" data-name="Degradado sin nombre 287" x1="244.59" y1="157.5" x2="268.54" y2="157.5" xlink:href="#Degradado_sin_nombre_287"/>
    <linearGradient id="Degradado_sin_nombre_287-17" data-name="Degradado sin nombre 287" x1="196.82" y1="148.14" x2="213.38" y2="148.14" xlink:href="#Degradado_sin_nombre_287"/>
    <linearGradient id="Degradado_sin_nombre_287-18" data-name="Degradado sin nombre 287" x1="231.85" y1="158.01" x2="243.66" y2="158.01" xlink:href="#Degradado_sin_nombre_287"/>
    <linearGradient id="Degradado_sin_nombre_287-19" data-name="Degradado sin nombre 287" x1="214.29" y1="158.69" x2="231.49" y2="158.69" xlink:href="#Degradado_sin_nombre_287"/>
    <radialGradient id="Degradado_sin_nombre_346-4" data-name="Degradado sin nombre 346" cx="155.7" cy="122.89" fx="155.7" fy="122.89" r="6.32" xlink:href="#Degradado_sin_nombre_346"/>
    <linearGradient id="Degradado_sin_nombre_287-20" data-name="Degradado sin nombre 287" x1="212.02" y1="93.58" x2="215.43" y2="93.58" xlink:href="#Degradado_sin_nombre_287"/>
    <linearGradient id="Degradado_sin_nombre_287-21" data-name="Degradado sin nombre 287" x1="158.34" y1="264.71" x2="168.02" y2="264.71" xlink:href="#Degradado_sin_nombre_287"/>
    <radialGradient id="Degradado_sin_nombre_346-5" data-name="Degradado sin nombre 346" cx="155.41" cy="112.07" fx="155.41" fy="112.07" r="3.47" xlink:href="#Degradado_sin_nombre_346"/>
    <linearGradient id="Degradado_sin_nombre_287-22" data-name="Degradado sin nombre 287" x1="239.74" y1="97.61" x2="252.02" y2="97.61" xlink:href="#Degradado_sin_nombre_287"/>
    <linearGradient id="Degradado_sin_nombre_444-2" data-name="Degradado sin nombre 444" x1="309.57" y1="206.67" x2="319.4" y2="206.67" xlink:href="#Degradado_sin_nombre_444"/>
    <linearGradient id="Degradado_sin_nombre_444-3" data-name="Degradado sin nombre 444" x1="320.45" y1="188.3" x2="330.28" y2="188.3" gradientTransform="translate(-49.9 210.57) rotate(-33.46)" xlink:href="#Degradado_sin_nombre_444"/>
    <linearGradient id="Degradado_sin_nombre_444-4" data-name="Degradado sin nombre 444" x1="337.82" y1="173.51" x2="347.65" y2="173.51" gradientTransform="translate(-49.9 210.57) rotate(-33.46)" xlink:href="#Degradado_sin_nombre_444"/>
    <linearGradient id="Degradado_sin_nombre_444-5" data-name="Degradado sin nombre 444" x1="363.28" y1="173.18" x2="372.82" y2="173.18" gradientTransform="translate(325.68 -251.78) rotate(60.46)" xlink:href="#Degradado_sin_nombre_444"/>
    <linearGradient id="Degradado_sin_nombre_444-6" data-name="Degradado sin nombre 444" x1="384.64" y1="170.28" x2="394.18" y2="170.28" gradientTransform="translate(700.94 -93.27) rotate(117.67)" xlink:href="#Degradado_sin_nombre_444"/>
  </defs>
  <path class="cls-9" d="M223.84,83.12s-5.37-7.9-16.79-6.23-12.58,14.36-11.07,20.8c2.52,10.69,12.33,11.94,16.69,12.26s5.14,1.46,5.14,1.46l-.39-9.31s2.95-2.8,2.82-7.46-.64-7.86-.64-7.86l4.24-3.65Z"/>
  <path class="cls-6" d="M212.68,83.5c-3.62-1.47-8.1,1.14-9.99,5.83s-.49,9.67,3.13,11.13"/>
  <g>
    <path class="cls-10" d="M276.83,200.81s12.25,12.22,28.25,9.43c16-2.79,19.85-19.85,22.45-31.72,2.68-12.25,10.94-29.63,23.36-27.01,12.41,2.62,19.15,17.08,18.64,23.23s-6.65,15.03-14.68,10.63"/>
    <path class="cls-7" d="M276.83,200.81s12.25,12.22,28.25,9.43c16-2.79,19.85-19.85,22.45-31.72,2.68-12.25,10.94-29.63,23.36-27.01,12.41,2.62,19.15,17.08,18.64,23.23s-6.65,15.03-14.68,10.63"/>
  </g>
  <g>
    <path class="cls-14" d="M219.03,219.54c.09,.35,.14,.62,.23,.88,2.36,6.49,4.71,12.99,7.08,19.48,1.05,2.87,2.09,5.74,3.2,8.59,1.58,4.07,3.17,8.14,4.83,12.18,1.38,3.35,2.31,6.86,3.21,10.34,.77,2.94-1.11,5.49-4.12,6.04-1.9,.35-3.85,.58-5.78,.63-9.93,.22-19.79,1.1-29.6,2.6-2.96,.46-5.93,.92-8.9,1.28-3.42,.42-6.77-.16-10.1-.91-2.47-.56-4.82-1.37-7.02-2.65-1.72-1-2.97-2.26-3.42-4.25-.18-.82-.31-1.84-.86-2.33-.53-.48-1.56-.4-2.37-.56-2.77-.55-5.37-1.52-7.82-2.95-1.47-.87-2.29-2.1-2.49-3.77-.41-3.43-.24-6.84,.26-10.24,.27-1.79,.7-3.51,1.42-5.18,1.23-2.84,3.37-4.65,6.3-5.33,2.41-.56,4.9-.84,7.37-1.03,5.38-.42,10.78-.71,16.17-1.05,.47-.03,.94-.1,1.53-.17-.27-.59-.46-1.06-.69-1.51-3.55-6.85-7.13-13.68-10.66-20.53-2.77-5.39-5.27-10.91-6.78-16.81-.64-2.47-.55-4.99-.1-7.49,.35-1.94,1.41-3.47,3.03-4.61,2.14-1.51,4.54-2.34,7.13-2.38,5.71-.1,11.42-.23,17.12,.42,3.6,.41,7.26,.41,10.84,.93,5.82,.84,11.6,1.97,17.41,2.94,1.6,.27,3.23,.43,4.84,.6,.23,.02,.59-.14,.7-.32,.87-1.53,1.7-3.08,2.62-4.76-1.57-.23-2.91-.41-4.25-.63-4.85-.81-9.66-1.86-14.3-3.51-4.47-1.59-8.55-3.99-12.3-6.86-3.13-2.39-6.08-5.01-9.13-7.51-.29-.24-.69-.48-1.04-.48-2.06,.02-4.11,.11-6.16,.17-1.2,.03-1.96,.59-2.34,1.75-.28,.83-.69,1.62-1.1,2.57,.38,.04,.68,.1,.97,.1,2.6,0,5.2-.02,7.8,0,2.05,.01,4.02,.38,5.91,1.22,2.35,1.04,3.43,2.89,3.51,5.15,.08,2.2-1.82,4.62-3.87,5.27-.43,.14-.9,.21-1.35,.2-6.54-.12-13.08-.24-19.62-.4-8.25-.2-16.51-.44-24.76-.66-.31,0-.63,.02-.94,0-.68-.06-1.07,.07-1.21,.9-.18,1.08-.99,1.76-1.97,2.22-1.86,.88-3.86,1.05-5.86,1.02-.9-.01-1.07,.27-1.07,1.11,.03,21.14,.03,42.29,.07,63.43,0,1.13-.75,1.57-1.47,1.76-1.67,.44-3.4,.7-5.12,.92-5.21,.67-10.43,1.32-15.53,2.63-.43,.11-.85,.25-1.28,.38,0,.08,0,.15,0,.23,.79,.14,1.58,.3,2.38,.41,8.28,1.07,16.59,.95,24.91,.8,1.86-.03,3.71-.11,5.57-.16,.34,0,.69-.02,1.03,.02,.9,.11,1.52,.74,1.56,1.55,.04,.82-.5,1.52-1.38,1.71-.44,.1-.91,.13-1.36,.15-8.83,.42-17.65,.54-26.47-.17-2.72-.22-5.43-.72-8.12-1.22-.84-.15-1.68-.61-2.37-1.12-1.36-1.03-1.38-2.77-.03-3.81,.77-.6,1.7-1.13,2.64-1.37,3.46-.86,6.93-1.71,10.44-2.31,3.43-.58,6.91-.88,10.38-1.24,.67-.07,.77-.32,.77-.9-.02-4.29-.02-8.57-.01-12.86,0-16.31,.02-32.63,.03-48.94,0-.28,0-.56,0-.93-.76-.05-1.47-.06-2.17-.16-.9-.13-1.82-.25-2.68-.53-1.65-.54-2.79-1.55-2.69-3.54-.35-.02-.66-.04-.97-.04-16.77-.22-33.54-.44-50.31-.67-.37,0-.75,0-1.11-.07-.88-.17-1.46-.85-1.46-1.66,0-.81,.58-1.49,1.47-1.64,.45-.07,.91-.06,1.37-.06,6.2,.08,12.4,.16,18.6,.24,.28,0,.56,0,1.09,0-.41-.44-.66-.71-.93-.98-1.48-1.48-2.57-3.13-3.01-5.26-.97-4.64-2.14-9.24-3.16-13.87-1.35-6.16-2.64-12.34-3.91-18.52-.84-4.11-1.62-8.24-2.39-12.37-.73-3.9-1.06-7.8-.32-11.75,.27-1.46,.92-2.69,1.82-3.82,2.26-2.87,5.23-4.56,8.8-5.19,4.67-.83,9.39-.66,14.1-.61,2.17,.02,4.34,.08,6.51,.1,7.04,.06,14.04,.54,21.02,1.46,3.58,.47,6.7,2.07,9.24,4.51,1.47,1.41,2.42,3.36,3.59,5.07,.16,.23,.26,.5,.42,.83,.33-.72,.62-1.36,.92-2.02-.34-.23-.68-.44-.99-.69-2-1.55-2.41-4.4-.75-6.31,1.06-1.22,2.26-2.36,3.55-3.32,2.28-1.7,4.95-1.46,6.89,.6,.92,.98,1.63,2.18,2.3,3.36,.29,.5,.54,.63,1.05,.57,2.3-.26,4.6-.45,6.9-.75,3.22-.42,6.06,.4,8.76,2.18,3.32,2.19,6.14,4.91,8.86,7.78,3.44,3.63,6.98,7.15,10.48,10.72,3.76,3.83,7.51,7.68,11.31,11.48,2.14,2.14,4.33,4.24,6.59,6.26,1.69,1.5,3.7,2.5,5.95,2.86,1.58,.25,3.17,.42,4.77,.53,2.26,.16,3.99-1.07,5.92-2.3-1.3-.49-2.38-.93-3.47-1.3-3.78-1.28-7.33-3.08-10.31-5.68-5.17-4.5-9.12-9.98-10.22-16.88-.84-5.31-.27-10.67,1.17-15.88,.62-2.23,1.77-4.2,3.12-5.81-1-1.31-2.04-2.47-2.85-3.78-1.62-2.62-1.59-5.56-1.24-8.49,.18-1.5,.44-3,.84-4.46,.78-2.79,2.22-5.07,5.24-5.93,.18-.05,.37-.47,.36-.71-.19-6.3,1.46-12.24,3.7-18.01,2.42-6.24,6.84-11.02,12.18-14.85,6.21-4.45,13.11-7.42,20.77-8.38,.06,0,.11-.02,.17-.03,.66-.11,1.54,0,1.93-.4,.36-.36,.22-1.24,.28-1.89,.34-4.21,.69-8.43,.99-12.64,.03-.35-.15-.88-.42-1.07-1.22-.9-1.86-2.03-1.52-3.55,.34-1.53,1.4-2.47,2.9-2.66,1.04-.13,2.2-.07,3.2,.23,2,.62,2.59,2.6,1.43,4.34-.3,.44-.66,.9-1.11,1.17-.7,.43-.87,.97-.93,1.75-.34,4.36-.74,8.71-1.12,13.06-.04,.42-.06,.85-.1,1.38,.32,.03,.59,.06,.86,.09,3.32,.36,6.67,.56,9.96,1.1,5.84,.96,10.87,3.59,14.93,7.95,2.49,2.68,5,5.34,6.54,8.74,2.09,4.63,3.29,9.5,3.88,14.51,.33,2.81,.46,5.64,.72,8.45,.03,.28,.28,.72,.52,.78,3.92,1.06,5.93,3.96,6.98,7.56,.8,2.76,.69,5.68,.32,8.51-.4,3.04-2.16,5.36-4.51,7.24-1.18,.95-1.61,1.83-1.5,3.55,.37,.05,.75,.13,1.14,.14,3.77,.05,7.46,.74,11.07,1.72,4.71,1.28,8.73,6.21,8.37,11.27-.28,3.95-.82,7.89-1.47,11.8-1.35,8.14-2.75,16.28-4.32,24.38-2.98,15.39-5.98,30.79-9.88,45.99-1.4,5.44-3.83,10.27-7.75,14.29-1.15,1.18-2.56,2.22-4.02,2.99-3.77,2-7.84,2.94-12.12,2.96-3.4,.02-6.8,.09-10.2,.11-.56,0-.87,.06-.97,.72-.17,1.13-.91,1.92-1.94,2.34-.78,.32-1.63,.57-2.46,.68-.7,.09-.81,.38-.81,.99,.02,6.71,.01,13.43,.05,20.14,0,.58,.22,1.19,.48,1.71,.12,.23,.6,.37,.93,.38,5.14,.16,10.28,.3,15.42,.45,1.06,.03,2.11,.08,3.16,.2,2.9,.33,5.14,2.31,5.87,5.14,.52,2.03-.49,4.05-2.52,4.74-1.04,.35-2.18,.57-3.27,.58-3.34,.01-6.68-.07-10.02-.19-6.62-.24-13.25-.5-19.87-.79-3.54-.16-7.08-.34-10.61-.65-1.43-.13-2.85-.55-4.24-.99-1.36-.43-2.15-1.46-2.36-2.89-.06-.42-.14-.85-.17-1.27-.19-2.76,1.29-4.57,4.07-4.64,3.19-.08,6.4,.05,9.59,.14,1.15,.03,1.88,.83,1.82,1.76-.06,.95-.85,1.5-2.05,1.45-2.03-.09-4.05-.21-6.08-.26-.85-.02-1.72,.01-2.55,.19-1.09,.24-1.31,1.03-.66,1.92,.56,.75,1.26,1.25,2.21,1.31,1.28,.09,2.56,.16,3.85,.21,9.53,.39,19.07,.8,28.6,1.14,3.11,.11,6.22,.06,9.33,0,.53,0,1.06-.4,1.59-.61-.27-.61-.43-1.31-.84-1.8-.62-.75-1.56-1.01-2.54-1.05-5.31-.23-10.62-.47-15.93-.69-1.11-.05-2.22-.05-3.34-.1-1.37-.06-2.48-.65-2.95-1.97-.32-.89-.53-1.88-.53-2.83,0-6.89,.05-13.77,.11-20.66,0-.57-.23-.75-.74-.79-.63-.05-1.27-.07-1.87-.24-1.17-.33-2.36-.65-3.46-1.16-1.07-.5-1.79-1.45-2.02-2.63-.14-.72-.51-.88-1.17-.91-4.11-.16-8.23-.24-12.33-.58-4.86-.41-9.76-.7-14.42-2.33-.8-.28-1.6-.57-2.51-.91Zm56.22-103.2s.01-.06,.02-.09c.82-.07,1.65-.15,2.47-.22,2.47-.21,4.34-1.25,5.24-3.69,.41-1.12,.97-2.21,1.28-3.35,.58-2.11,.83-4.18,.25-6.45-1.19-4.62-.87-9.32,.45-13.89,.85-2.96,2.63-5.23,5.56-6.46,.21-.09,.42-.49,.41-.74-.08-1.57-.29-3.13-.31-4.7-.02-1.46-.59-2.63-1.45-3.75-1.1-1.44-2.64-2.27-4.18-3.06-6.97-3.56-14.07-3.87-21.37-.98-2.27,.9-4.64,1.62-7.03,2.15-6.24,1.39-12.26,.76-17.76-2.66-3.19-1.98-6.62-2.7-10.28-2.75-1.9-.02-3.66,.51-5.34,1.38-1.54,.8-2.45,2.12-2.94,3.73-1.03,3.35-1.45,6.78-1.48,10.3-.03,4.88-.19,9.77-.42,14.64-.18,3.61-.8,7.18-.39,10.82,.27,2.39,.62,4.73,2.02,6.73,.62,.88,1.46,1.97,2.39,2.19,3.02,.72,6.1,1.31,9.25,.82,1.84-.28,3.68-.53,5.52-.74,4.45-.51,8.9-1.09,13.37-1.45,5.08-.4,10.08,.56,15.1,1.11,3.21,.35,6.41,.74,9.62,1.11Zm-121.89,64.23l.12-.22c-.23-.28-.44-.58-.69-.84-2.08-2.28-3.59-4.92-4.4-7.86-1.14-4.09-2.24-8.22-3.01-12.39-1.25-6.77-2.17-13.59-3.34-20.38-.79-4.58-1.66-9.16-2.67-13.7-.81-3.65-3.84-5.95-7.48-6.28-4.01-.36-8.03-.72-12.05-.9-7.7-.34-15.41-.55-23.12-.8-.85-.03-1.72,.1-2.56,.04-1.69-.12-3.26,.25-4.67,1.11-1.3,.8-2.15,1.97-2.02,3.61,.13,1.68,.17,3.38,.47,5.03,1.14,6.26,2.28,12.53,3.6,18.76,1.9,8.94,3.94,17.85,5.97,26.75,.41,1.81,.97,3.62,2.63,4.76,.96,.66,1.94,1.32,2.97,1.86,.55,.29,1.24,.34,1.91,.51,0-.26,.01-.29,0-.31-.07-.12-.16-.23-.23-.35-1.26-1.95-2.47-3.93-2.73-6.31-.26-2.38,.62-3.38,2.94-3.36,11.68,.1,23.37,.23,35.05,.34,.9,0,1.4,.47,1.7,1.28,1.14,3.12,2.78,5.95,5.1,8.34,.49,.5,1.07,1.19,1.67,1.25,1.6,.17,3.23,.06,4.85,.06Zm139.35-95.19c-.05-.1-.1-.19-.15-.29-.67,.32-1.41,.55-1.99,.98-1.16,.85-1.9,2.05-2.29,3.44-1.24,4.49-1.4,9.03-.34,13.56,.33,1.39,.46,2.7,.24,4.11-.92,6-3.76,10.68-9.13,13.74-4.01,2.28-8.36,3.54-12.85,4.32-11.46,2.01-22.87,1.63-34.17-1.17-3.85-.95-7.45-2.52-10.75-4.77-3.42-2.33-5.57-5.43-6.24-9.53-.08-.46-.15-.93-.27-1.64-.96,1.45-1.52,2.81-1.85,4.25-.73,3.16-.91,6.37-1.07,9.6-.23,4.75,1.23,8.88,3.92,12.67,1.53,2.16,2.95,4.44,5.09,6.09,4.26,3.27,9.06,5.45,14.24,6.72,6.17,1.52,12.48,1.64,18.81,1.64,6.45,0,12.36-2.34,18.49-3.77,2.7-.63,4.25-3,6.36-4.52,2.31-1.66,4.36-3.67,6.59-5.46,1.02-.82,2.18-1.45,3.26-2.2,.32-.22,.67-.5,.82-.83,.97-2.06,1.74-4.2,2.24-6.43,.17-.75,.31-1.52,.34-2.28,.13-3.02,.19-6.05,.34-9.07,.13-2.59,.23-5.2,.59-7.77,.17-1.18,.17-1.93-.77-2.84-1.48-1.45-1.87-3.5-2.04-5.52-.39-4.59,.18-9,2.58-13.05Zm3.27,26.71c-.2,6.48,.16,12.79-1.67,18.67,1.28,.39,2.49,.69,3.65,1.13,5.03,1.9,8.35,8.03,7.09,13.23-.41,1.7-1.15,3.34-1.85,4.95-2.02,4.59-5.51,8.09-8.8,11.74-.47,.53-.9,1.2-1.06,1.88-1.08,4.41-2.07,8.84-3.11,13.27-1.58,6.73-3.05,13.48-4.79,20.17-1.44,5.57-3.92,10.66-8.02,14.84-2.09,2.13-4.54,3.6-7.5,3.98-3.72,.48-7.48,.52-11.2,.07-8.02-.98-16.04-2.03-24.05-3.1-3.81-.51-7.6-1.25-11.42-1.69-1.53-.18-3.12,.11-4.67,.28-.76,.08-1.05,.63-1.03,1.42,.04,1.38,.83,2.24,1.91,2.85,.94,.53,1.95,.94,2.97,1.3,2.11,.74,4.3,1.1,6.53,1.28,1.9,.15,3.77,.64,5.67,.78,6.69,.49,13.39,1.03,20.09,1.31,7.33,.31,14.66,.75,22.01,.31,3.86-.23,7.6-.83,11.04-2.66,1.09-.58,2.16-1.32,3.02-2.2,3.42-3.51,5.73-7.66,6.85-12.46,1.79-7.65,3.75-15.26,5.31-22.95,2.6-12.88,4.96-25.8,7.38-38.71,.88-4.68,1.61-9.4,2.54-14.07,.45-2.24,.68-4.46,.42-6.72-.42-3.66-2.38-6.53-6.48-7.28-.98-.18-1.96-.42-2.95-.56-2.59-.37-5.18-.69-7.89-1.05Zm-90.86,125.51c.18,.47,.28,.76,.41,1.03,.55,1.25,1.16,2.49,1.65,3.76,.99,2.55,1.98,5.11,2.85,7.71,.56,1.67-.22,3.09-1.86,3.7-.64,.24-1.32,.46-1.99,.5-2.39,.14-4.79,.33-7.18,.27-6.98-.18-13.93,.36-20.87,.96-2.1,.18-3.88,1.15-4.93,3.01-1.17,2.06-1.86,4.28-1.72,6.71,.05,.87,.35,1.49,1.16,1.81,1.62,.65,3.21,1.35,4.86,1.9,4.29,1.43,8.68,2.31,13.23,1.76,3.4-.41,6.79-.92,10.18-1.41,5.06-.74,10.09-1.62,15.22-1.78,3.63-.11,7.25-.25,10.87-.49,1.29-.09,2.59-.44,3.84-.81,1.1-.32,1.35-.95,1.05-2.05-.08-.3-.17-.61-.28-.9-1.83-4.58-3.7-9.15-5.48-13.75-1.61-4.15-3.13-8.34-4.69-12.51-.16-.41-.35-.82-.56-1.31-5.02,2.54-10.22,2.98-15.75,1.88ZM241.3,47.1c-5.86,1.1-18.36,12.72-18.73,17.3,1.31-.39,2.61-1,3.98-1.16,4.68-.56,9.13,.09,13.26,2.6,3.47,2.11,7.23,3.34,11.39,3.12,3.81-.2,7.47-.97,10.97-2.46,2.75-1.17,5.6-1.96,8.57-2.31,3.99-.47,7.89,0,11.6,1.48,2.48,.99,4.85,2.23,7.2,3.32,.1-7.59-9.57-20.88-16.59-22.53-.1,2.59-1.85,3.93-3.9,4.97-1.01,.52-2.09,.94-3.18,1.26-4.35,1.32-8.81,1.6-13.32,1.27-2.66-.2-5.29-.59-7.72-1.78-2.09-1.02-3.81-2.38-3.55-5.08Zm-6.69,146.16s.11,.03,.25,.04c5.16,.63,10.31,1.28,15.48,1.86,2.54,.29,5.07,.21,7.57-.43,.43-.11,.98,.13,1.45,.27,.29,.09,.53,.33,.82,.43,1.28,.43,2.37,1.17,3.21,2.21,2.87,3.55,4.08,7.61,3.55,12.15-.11,.96-.5,1.9-.76,2.85,3.19,.23,6.02-.87,8.34-2.9,2.21-1.94,3.97-4.38,5.1-7.13,1.07-2.61,2.13-5.26,2.81-7.99,2.28-9.03,4.38-18.1,6.55-27.15,.02-.08,0-.16,0-.37-.26,.22-.45,.37-.63,.53-3.37,3.26-6.61,6.66-10.13,9.73-3.28,2.86-6.68,5.68-10.36,7.98-5.68,3.54-12.13,4.4-18.73,3.92-3.53-.25-7.05-.71-10.57-1.08-1.6-.17-1.57-.16-2.21,1.33-.53,1.24-1.14,2.45-1.74,3.74ZM90.22,114.28c.06,.09,.12,.19,.17,.28,2.79-.7,5.62-.46,8.44-.33,1.65,.08,3.31,.26,4.96,.2,9.76-.37,19.49,.09,29.16,1.4,3.98,.54,7.25,2.61,8.77,6.65,.33,.87,.53,1.79,.72,2.71,1.55,7.73,3.24,15.43,4.58,23.19,1.1,6.39,1.97,12.82,3.52,19.12,.94,3.79,2.46,7.28,5.13,10.23,1.5,1.67,3.32,2.73,5.45,2.9,3.84,.31,7.7,.37,11.56,.47,7.48,.19,14.96,.34,22.45,.49,.45,0,.92-.05,1.35-.18,.83-.24,1.51-1.12,1.49-1.9-.03-.79-.36-1.52-1.1-1.79-.82-.29-1.71-.43-2.58-.51-1.05-.1-2.1-.07-3.16-.1-6.11-.17-12.22-.32-18.33-.5-3.08-.09-6.16-.24-9.25-.31-1.27-.03-2.23-.56-3.1-1.41-1.7-1.66-2.74-3.71-3.42-5.96-2.99-9.99-4.52-20.29-6.5-30.49-.95-4.91-1.56-9.89-2.69-14.75-1.42-6.09-5.34-9.92-11.55-11.13-2.37-.46-4.81-.71-7.22-.86-3.65-.23-7.31-.2-10.96-.44-6.23-.41-12.45-.4-18.67-.06-2.2,.12-4.4,.4-6.42,1.36-.98,.47-1.87,1.13-2.79,1.71Zm82.71,58.13c.08-.29,.13-.51,.2-.72,.87-2.78,1.68-5.57,2.64-8.32,1.04-3,3.48-4.12,6.43-4.46,2.41-.28,4.81-.57,7.22-.87,.79-.1,1.58-.31,2.37-.34,.34-.02,.86,.18,.99,.44,.14,.26,.02,.85-.2,1.06-.58,.56-1.23,1.17-1.96,1.43-1.06,.37-2.23,.45-3.35,.62-1.97,.3-3.96,.54-5.92,.89-1.24,.22-2.07,1.01-2.5,2.22-.66,1.89-1.36,3.76-2.03,5.64-.38,1.07-.71,2.15-1.07,3.22,1.63,.5,3.44-.23,4.17-1.65,.38-.74,.72-1.5,.99-2.28,.88-2.51,2.7-3.75,5.28-3.95,1.74-.13,3.49-.04,5.22-.26,1.26-.16,2.22,.22,3.16,.94,2.03,1.58,4.07,3.14,6.11,4.7,1.05,.81,1.46,.78,2.33-.25,1.19-1.41,1.98-3.05,2.14-4.88,.18-2.21,.13-4.45,.23-6.67,.06-1.42-.33-2.57-1.43-3.54-.62-.55-1-1.36-1.54-2.01-2.87-3.44-5.64-6.99-8.69-10.27-3.01-3.23-6.77-5.06-11.35-4.92-3.28,.1-6.38,.95-9.42,2.05-1.57,.57-3.02,1.45-4.5,2.24-.36,.19-.68,.53-.93,.87-.53,.75-.27,1.35,.61,1.61,1.01,.3,1.96,.04,2.94-.22,2.81-.75,5.62-1.53,8.47-2.08,2.28-.44,4.37,.32,6.11,1.84,1.12,.98,.91,1.69-.43,2.27-4.11,1.77-8.22,3.57-12.3,5.41-1.39,.63-2.4,1.77-3.13,3.08-2.14,3.87-2.38,8.11-2.29,12.4,.02,.81,.32,1.59,1.11,2.19,.14-.82,.25-1.55,.4-2.27,.75-3.58,1.51-7.16,3.52-10.32,.77-1.2,1.69-2.28,3.01-2.85,1.49-.65,3.04-1.14,4.57-1.7,.72-.26,1.45-.5,2.18-.75,1.49-.5,2.96-1.05,4.47-1.46,.39-.1,.9,.24,1.35,.38-.16,.48-.17,1.13-.5,1.39-.64,.53-1.43,.95-2.22,1.23-1.9,.69-3.84,1.29-5.77,1.89-2.55,.8-4.48,2.25-5.51,4.84-1.32,3.32-2.1,6.76-2.71,10.25-.24,1.35-.22,1.36,1.1,1.82,.11,.04,.22,.05,.43,.1Zm27.98,19.52c-.74,0-1.49-.03-2.23,0-3.09,.13-5.07,1.5-5.84,4.77-.34,1.43-.26,3.02-.06,4.49,.56,4.16,2.2,8.03,3.59,11.96,.07,.21,.21,.41,.37,.56,1.49,1.42,3.12,2.72,5.2,2.97,2.57,.31,5.17,.45,7.75,.43,1.12,0,2.27-.51,3.36-.92,1.28-.49,1.25-.56,1.09-1.95-.04-.37-.07-.74-.08-1.11-.11-2.75,.96-4.39,3.66-5,1.7-.39,3.51-.49,5.26-.46,.97,.02,1.45-.25,1.51-1.1,.1-1.41,.14-2.84,.06-4.26-.13-2.23-.76-4.31-1.94-6.24-.54-.88-1.17-1.44-2.26-1.52-.96-.07-1.91-.32-2.87-.49-5.49-.98-10.98-1.85-16.56-2.14Zm5.83,59.15c-3-7.53-5.91-14.81-8.85-22.2-3.66,1.59-7.58,1.16-11.61,.69,.17,.37,.25,.58,.35,.78,1.27,2.52,2.53,5.06,3.84,7.57,.67,1.27,1.09,2.5,.68,3.99-.3,1.1-.79,1.9-1.85,2.27-.61,.21-1.27,.35-1.92,.39-5.24,.37-10.49,.67-15.73,1.07-2.42,.19-4.84,.45-7.23,.87-2.12,.37-3.7,1.6-4.47,3.7-.4,1.07-.84,2.12-1.2,3.21-.66,2.04-.29,3.26,1.35,4.63,2.26,1.88,4.97,2.63,7.81,2.98,.2,.02,.54-.25,.65-.46,.28-.59,.46-1.23,.7-1.84,1.53-3.9,4.45-6.15,8.55-6.6,4.17-.46,8.37-.71,12.57-.85,4.05-.13,8.11,0,12.17-.01,1.31,0,2.61-.11,4.19-.18Zm44.91-83.79c1.79,2.88,2.75,5.88,3.43,8.99,.7,3.19,.02,6.28-.89,9.48,1.59-.17,3.04-.23,4.46-.5,3.71-.71,6.99-2.37,10.05-4.57,4.4-3.16,8.25-6.95,12.1-10.72,.17-.17,.36-.43,.36-.64-.04-1.11,.03-2.26-.25-3.32-1.5-5.62-5.31-9.23-10.41-11.67-.72-.35-1.24-.17-1.81,.4-3.47,3.45-7.21,6.59-11.22,9.39-1.77,1.23-3.29,2.97-5.82,3.16Zm32.46-.6c.15-.09,.25-.14,.33-.21,3.69-3.73,7.46-7.39,11.05-11.22,3-3.21,5.12-6.95,6.17-11.29,.9-3.75-1.21-7.09-4.1-8.7-.83-.46-2.01-.62-2.97-.49-2.36,.34-4.57,1.21-6.53,2.62-5.66,4.1-10.59,9.04-15.68,13.78-.14,.13-.24,.29-.38,.47,6.22,3.28,10.9,7.74,12.12,15.05Zm-62.42,15c.52,.14,.84,.24,1.17,.3,3.62,.67,7.22,1.47,10.87,1.96,5.46,.73,10.96,1.21,16.43,1.83,.74,.08,1.1-.2,1.29-.88,.85-2.95,1.32-5.9,.54-8.95-.66-2.55-1.37-5.07-2.77-7.34-.32-.53-.68-.69-1.33-.6-1.27,.16-2.58,.33-3.84,.21-5.37-.53-10.73-1.14-16.09-1.76-1.49-.17-2.97-.49-4.55-.75,1.12,5.56,1.51,10.91-1.73,16Zm-54.94-42.43c-.22-.12-.4-.17-.53-.28-2.67-2.53-1.84-6.5,1.64-7.65,1.32-.43,2.71-.66,4.07-.97,.62-.14,1.24-.26,1.88-.4-2.04-2.18-3.99-4.25-6-6.39-.55,.76-1.09,1.54-1.66,2.28-1.38,1.78-2.63,3.68-4.19,5.28-1.93,1.98-3.7,2-6,.52-.04-.03-.11-.02-.16-.02-.66,.82-1.26,1.7-2.01,2.43-.44,.43-.53,.78-.42,1.33,1.95,9.88,3.48,19.86,6.04,29.62,.56,2.15,1.08,4.33,2.33,6.23,1.38,2.08,3.59,3.02,5.94,2.47-.22-.18-.41-.35-.6-.5-1.8-1.38-2.94-3.18-2.98-5.45-.06-3.78,.16-7.54,1.42-11.16,1.21-3.5,3.35-6.21,6.8-7.74,1.3-.58,2.61-1.17,3.91-1.75,.27-.12,.53-.26,.79-.39-.03-.07-.05-.13-.08-.2-1.6,.49-3.22,.95-4.8,1.49-1.73,.6-3.46,.7-5.21,.17-2.6-.79-3.84-3.11-2.87-5.64,.34-.89,1.08-1.64,1.68-2.42,.22-.28,.55-.48,1.01-.87Zm28.18,.53c.75-.87,1.53-1.6,2.09-2.47,.53-.82,.47-1.5-.32-2.28-4.36-4.28-8.77-8.51-12.72-13.2-2.04-2.42-4.1-4.86-7.11-6.33-2.43-1.19-4.82-1.88-7.5-1.38-1.07,.2-2.15,.33-3.19,.62-.64,.18-1.33,.48-1.8,.92-3.1,2.95-5.39,6.49-7.18,10.36-.55,1.18-.15,2.31,.85,3.14,.47,.4,.95,.46,1.38,.03,.63-.62,1.27-1.24,1.78-1.95,1.44-1.99,2.79-4.04,4.23-6.03,1.81-2.49,5.88-3.42,8.64-2.03,.61,.31,.98,.8,.91,1.51-.07,.71-.52,1.15-1.2,1.28-.47,.08-.96,.04-1.44,.02-.6-.02-1.2-.08-1.79-.12,.08-.02,.17-.05,.25-.07,1.8,2.01,3.6,4.02,5.39,6.01,.28-.2,.37-.27,.46-.33,.85-.65,1.61-.67,2.23-.07,.63,.6,.75,1.65,.03,2.31-1.77,1.63-3.45,3.41-6.08,3.72-1.32,.16-2.63,.51-3.92,.86-.94,.26-1.23,.9-.92,1.76,.34,.94,1.44,1.65,2.14,1.44,2.18-.67,4.35-1.43,6.57-1.94,3.95-.91,7.9-1.06,11.81,.41,2.3,.87,4.34,2.14,6.4,3.78Zm-3.36,51.66c-4.26,0-8.37-.05-12.47,.04-.96,.02-1.94,.46-2.86,.82-2.19,.87-3.21,2.56-3.21,4.88,0,3.48,.66,6.85,1.8,10.14,.7,2,2.14,3.1,4.04,3.74,.51,.17,1.04,.34,1.58,.39,2.16,.16,4.32,.34,6.49,.37,.69,.01,1.42-.35,2.08-.65,.65-.29,1.21-.75,1.85-1.07,.45-.22,.46-.48,.31-.89-.29-.8-.58-1.61-.8-2.44-.96-3.48-1.88-6.97-1.13-10.62,.23-1.11,.28-2.31,1.23-3.18,.42-.39,.69-.95,1.08-1.53Zm-86.5-19.22c.5,2.97,1.94,5.23,4.05,7.1,.71,.62,1.52,1,2.49,.95,.85-.04,1.71-.06,2.57-.05,9.28,.05,18.55,.12,27.83,.18,.33,0,.65,0,1.1,0-.14-.26-.18-.39-.26-.5-1.63-2-2.78-4.25-3.49-6.72-.15-.54-.51-.51-.92-.52-10.85-.15-21.7-.3-32.54-.45-.25,0-.51,0-.83,0Zm109.87,46.37c-5.5,2.41-10.92,1.86-16.39,.12,.02,.13,.03,.23,.06,.33,1.59,4.7,3.19,9.4,4.75,14.11,.25,.76,.71,1.13,1.44,1.25,4.83,.8,9.55,.63,14.1-1.42,.65-.29,.73-.6,.5-1.24-1.32-3.77-2.59-7.56-3.88-11.34-.2-.59-.38-1.19-.59-1.83Zm18.57,50.37c-.79,.31-1.42,.57-2.06,.8-2.24,.8-4.58,.95-6.92,1.01-7.6,.2-15.18,.63-22.69,1.98-3.32,.6-6.67,.97-10.01,1.43-5.61,.77-10.98-.27-16.24-2.12-1.42-.5-2.82-1.06-4.48-1.69,.46,1.44,.85,2.71,1.29,3.96,.06,.18,.33,.3,.53,.41,2.19,1.27,4.51,2.2,6.99,2.74,2.72,.6,5.47,1.07,8.24,.78,3.23-.34,6.45-.91,9.67-1.39,9.81-1.46,19.67-2.42,29.6-2.54,1.76-.02,3.53-.25,5.29-.47,1.16-.14,1.81-1.1,1.57-2.22-.19-.89-.49-1.75-.76-2.67Zm-29.51-95.66c.19,.13,.31,.21,.43,.3,4.21,3.05,8.72,5.53,13.7,7.1,.64,.2,.94-.04,1.22-.55,2.6-4.65,2.38-9.52,1.1-14.46-.07-.27-.46-.56-.75-.63-.83-.2-1.69-.26-2.53-.43-3.15-.67-5.77-2.4-8.34-4.22-.22-.15-.43-.32-.82-.61,.31,5.08,.15,9.82-4.01,13.51Zm42.05,24.88c.43,2.11,1.01,4.17,1.22,6.27,.21,2.14,.05,4.31,.05,6.53,.92,.13,1.79,.26,2.66,.36,3.77,.44,7.54,.87,11.31,1.29,.3,.03,.76,.05,.88-.12,.6-.81,1.42-1.63,1.6-2.56,.73-3.85-.29-7.35-2.67-10.44-.39-.5-.95-.91-1.51-1.23-.33-.19-.83-.23-1.21-.15-2.58,.6-5.19,.76-7.82,.53-1.56-.14-3.11-.34-4.5-.49Zm-18.9,9.93c.22,.05,.43,.11,.65,.14,5.14,.74,10.29,1.47,15.43,2.2,1.14,.16,1.26,.12,1.28-1.04,.05-2.77,.02-5.55-.7-8.25-.18-.68-.48-1.34-.76-1.99-.46-1.06-1.24-1.51-2.44-1.64-4.79-.55-9.57-1.22-14.36-1.85-.21-.03-.42-.04-.72-.07,1.9,4.04,2.6,8.14,1.6,12.5Zm-49.25,5.67c.23,.5,.35,.79,.49,1.06,1.85,3.45,3.72,6.88,5.53,10.34,.37,.72,.8,1.09,1.61,1.1,.74,0,1.47,.17,2.21,.21,2.82,.14,5.64,.38,8.4-.58,.68-.24,.9-.48,.63-1.21-1.46-3.93-2.88-7.88-4.31-11.82-.05-.13-.13-.24-.24-.43-.42,.26-.82,.47-1.18,.74-1.48,1.1-3.11,1.61-4.96,1.54-2.68-.09-5.36-.1-8.18-.95Zm66.67-49.02c.3,0,.58,.04,.85,0,1.97-.31,3.97-.51,5.9-.99,1.16-.29,2.33-.85,3.31-1.55,4.94-3.52,9.52-7.47,13.75-11.82,.09-.1,.16-.21,.13-.17-3.48,.73-7.04,1.72-10.66,2.15-3.66,.43-7.38,.3-10.99,.42-.75,3.92-1.51,7.89-2.28,11.96Zm9.24-121.02c-.18-.02-.33-.06-.46-.04-2.08,.38-4.18,.66-6.21,1.21-.97,.26-1.88,.96-2.67,1.62-.95,.8-.89,1.66,.17,2.31,1.01,.61,2.12,1.14,3.25,1.48,4.03,1.21,8.16,1.25,12.31,.75,2.5-.31,4.97-.82,7.24-1.95,.8-.4,1.53-.98,2.22-1.57,.43-.37,.54-.99,.05-1.36-.78-.58-1.62-1.32-2.52-1.47-2.95-.48-5.95-.72-8.93-1.04-.3-.03-.6,0-.89,0-.29,2.14-.76,2.72-2.12,2.71-.98,0-1.3-.58-1.44-2.65Zm-19.04,75.6c.11,1.88,.1,1.88,1.87,2.25,.67,.14,1.34,.29,2.02,.36,6.02,.66,12.04,1.34,18.1,.84,3.26-.27,6.51-.78,9.76-1.22,.3-.04,.71-.32,.8-.58,.21-.6,.26-1.26,.35-1.81-11-2.4-21.93-1.86-32.91,.15Zm-37.96,22.31c.35,.41,.75,.85,1.13,1.3,.95,1.1,1.89,2.21,2.83,3.32,2.74,3.25,5.45,6.52,8.21,9.76,.63,.73,1.4,1.34,2.12,1.99,.16,.14,.37,.22,.67,.38,.28-.61,.62-1.12,.75-1.68,.32-1.33,.53-2.68,.8-4.02,.15-.72-.11-1.21-.63-1.73-4.13-4.06-8.22-8.15-12.31-12.25-.23-.23-.32-.6-.44-.84-1.2,1.45-2.14,2.59-3.13,3.78Zm35.03,13.49c.57,1.31,1.29,2.65,1.73,4.07,.39,1.27,.52,2.63,.69,3.96,.06,.48,.18,.71,.68,.76,1.76,.17,3.52,.36,5.28,.56,.49,.06,.75-.12,.86-.59,.29-1.28,.6-2.56,.89-3.84,.57-2.53,1.13-5.05,1.69-7.59-.09-.04-.16-.1-.24-.11-2.24-.29-4.47-.58-6.71-.85-.2-.02-.47,.03-.63,.15-1.46,1.17-2.9,2.36-4.24,3.47Zm-.36,8.55c-.33-2.39-.58-4.45-1.67-6.3-.47-.8-.9-1.22-2.09-1.19-3.81,.1-7.59-.3-11.01-2.25-.23-.13-.49-.22-.61-.27-.6,2.12-1.18,4.15-1.82,6.39,5.29,2.34,11.3,2.16,17.19,3.62Zm68.43-68.95c-.37-2.08-.69-4.25-1.17-6.38-.16-.71-.66-1.38-1.11-1.99-.41-.55-1.03-.6-1.45-.02-.56,.77-1.16,1.58-1.48,2.46-1.01,2.81-1.28,5.73-.84,8.68,.24,1.62,.69,3.18,1.77,4.48,.45,.54,1.02,.68,1.47,.19,.68-.74,1.44-1.53,1.75-2.45,.52-1.55,.71-3.21,1.07-4.97Zm-139.81,20.37c-.2,.01-.42,0-.64,.03-2.39,.27-3.98,1.73-5.22,3.64-.99,1.53-1.9,3.12-2.84,4.69-.09,.15-.14,.37-.11,.54,.38,2.02,.78,4.03,1.18,6.05,.03,.17,.12,.34,.22,.6,.69-.96,1.36-1.69,1.06-2.98-.2-.87,.08-1.93,.39-2.82,.39-1.09,.96-2.14,1.59-3.12,1.4-2.21,2.88-4.37,4.38-6.63Zm54.27-13.65c.09-.02,.18-.04,.27-.07,.26-5.24,.52-10.47,.78-15.71-1.56,.62-2.21,1.76-2.57,3.08-.7,2.55-.97,5.16-.79,7.8,.13,1.92,1,3.53,2.31,4.89Zm-56.04,159.96c.09,.8,.19,1.5,.23,2.2,.05,.76,.38,1.27,1.1,1.56,.84,.34,1.64,.83,2.5,1.11,1.86,.6,3.75,1.1,5.84,1.7,0-1.04-.03-1.85,0-2.66,.03-.6-.27-.72-.79-.84-1.88-.44-3.77-.87-5.6-1.46-1.09-.35-2.08-1.01-3.29-1.61Zm.97-149.33c-.72-.87-1.26-1.59-1.89-2.24-.88-.91-1.77-1.02-2.73-.22-1.02,.86-1.95,1.83-2.84,2.83-.26,.29-.37,.85-.33,1.26,.08,.9,1.29,1.64,1.81,1.15,1.61-1.53,3.53-2.38,5.98-2.78Z"/>
    <path class="cls-13" d="M154.62,97.68c2.63,.01,5.01,.37,7.15,1.7,.36,.22,.73,.48,.99,.8,.5,.62,.54,1.33,.08,1.99-.46,.67-1.14,.86-1.89,.6-.48-.17-.92-.46-1.4-.65-3.86-1.55-7.61-1.32-11.16,.87-.83,.51-1.49,1.32-2.17,2.04-.55,.58-1.1,1.03-1.94,.65-.68-.31-1.04-1.22-.65-2.08,.37-.82,.85-1.63,1.47-2.28,2.13-2.24,4.89-3.17,7.89-3.52,.6-.07,1.2-.08,1.63-.11Z"/>
    <path class="cls-13" d="M173.14,102.58c4.36,.14,8.05,1.67,11.08,4.77,.36,.36,.7,.77,.94,1.21,.44,.77,.26,1.66-.36,2.18-.62,.53-1.49,.53-2.21,0-.21-.15-.39-.33-.56-.52-2.2-2.41-4.93-3.73-8.18-4.01-1.17-.1-2.33-.21-3.5-.33-.72-.07-1.39-.27-1.51-1.11-.12-.84,.4-1.42,1.12-1.62,1.03-.29,2.11-.39,3.17-.56Z"/>
    <path class="cls-13" d="M158.48,94.68c-.19-.06-.53-.12-.84-.26-2.67-1.26-5.42-1.19-8.2-.47-.75,.19-1.49,.48-2.24,.51-.46,.02-1.16-.25-1.33-.6-.17-.35,.08-1.03,.35-1.42,.27-.4,.77-.69,1.22-.91,3.86-1.84,7.75-1.94,11.65-.13,.26,.12,.51,.28,.71,.47,.56,.52,.72,1.16,.41,1.87-.3,.68-.87,.95-1.74,.95Z"/>
    <path class="cls-13" d="M175.74,95.33c1.35,.31,2.72,.59,4.06,.95,.48,.13,.94,.42,1.35,.71,.83,.59,1.05,1.55,.59,2.33-.43,.74-1.32,.98-2.26,.62-.8-.3-1.58-.69-2.41-.83-1.08-.18-2.2-.2-3.3-.2-.64,0-1.23-.02-1.54-.65-.31-.65-.07-1.23,.4-1.71,.84-.85,1.93-1.04,3.1-1.21Z"/>
    <path class="cls-13" d="M127.94,103.3c-1.3,.13-2.6,.27-3.9,.4-.48,.05-.97,.13-1.44,.09-.99-.08-1.41-.94-.76-1.7,.45-.52,1.07-.96,1.7-1.23,2.16-.92,4.44-.99,6.72-.62,1.04,.17,1.65,.96,1.56,1.83-.09,.89-.81,1.46-1.9,1.45-.65,0-1.31-.08-1.96-.12,0-.04,0-.07-.01-.11Z"/>
    <path class="cls-13" d="M192.76,115.45c.76,.31,1.41,.44,1.88,.8,1.32,1.03,2.62,2.11,3.82,3.27,.83,.8,.78,1.92,.09,2.61-.71,.7-1.73,.66-2.6-.15-1.38-1.28-2.75-2.57-4.12-3.86-.47-.44-.84-1.02-.45-1.58,.31-.46,.91-.73,1.38-1.09Z"/>
    <path class="cls-19" d="M275.25,116.34c-3.21-.37-6.41-.75-9.62-1.11-5.02-.55-10.03-1.52-15.1-1.11-4.47,.36-8.92,.94-13.37,1.45-1.84,.21-3.69,.46-5.52,.74-3.15,.49-6.23-.1-9.25-.82-.93-.22-1.77-1.31-2.39-2.19-1.4-1.99-1.76-4.33-2.02-6.73-.41-3.64,.22-7.22,.39-10.82,.24-4.88,.39-9.76,.42-14.64,.02-3.52,.45-6.95,1.48-10.3,.49-1.61,1.4-2.93,2.94-3.73,1.67-.87,3.43-1.4,5.34-1.38,3.66,.05,7.09,.76,10.28,2.75,5.5,3.41,11.52,4.05,17.76,2.66,2.39-.53,4.76-1.25,7.03-2.15,7.29-2.89,14.4-2.59,21.37,.98,1.55,.79,3.08,1.62,4.18,3.06,.86,1.12,1.43,2.29,1.45,3.75,.02,1.57,.24,3.13,.31,4.7,.01,.25-.2,.65-.41,.74-2.94,1.23-4.71,3.51-5.56,6.46-1.32,4.58-1.64,9.27-.45,13.89,.58,2.27,.33,4.33-.25,6.45-.31,1.15-.87,2.23-1.28,3.35-.9,2.44-2.77,3.49-5.24,3.69-.83,.07-1.65,.15-2.47,.22,0,.03-.01,.06-.02,.09Zm-26.33-30.69s0,.05,0,.08c6.82,0,13.65,0,20.47,0,.48,0,.98-.02,1.44-.13,.86-.22,1.35-.95,1.3-1.78-.05-.79-.61-1.42-1.45-1.58-.28-.05-.57-.08-.85-.08-13.65,.01-27.3,.03-40.95,.06-.68,0-1.37,.08-2.04,.19-.95,.16-1.51,.74-1.54,1.47-.03,.76,.54,1.4,1.53,1.57,.7,.12,1.42,.19,2.13,.19,6.65,.01,13.31,0,19.96,0Zm-3.01,19.03c0-.07,.02-.14,.02-.21,.71-.04,1.44,0,2.13-.13,1.75-.36,3.52-.71,5.21-1.27,1.14-.37,2.02-1.21,2.16-2.53,.14-1.35-.02-2.66-.58-3.93-1.28-2.93-3.57-4.61-6.52-5.64-5.79-2.02-11.35,2.89-12.01,7.91-.09,.71,0,1.68,.42,2.19,1.21,1.44,2.61,2.76,4.59,3.07,1.51,.24,3.04,.37,4.56,.55Z"/>
    <path class="cls-20" d="M153.35,180.57c-1.62,0-3.25,.12-4.85-.06-.6-.07-1.18-.75-1.67-1.25-2.32-2.39-3.96-5.22-5.1-8.34-.3-.82-.8-1.28-1.7-1.28-11.68-.11-23.37-.23-35.05-.34-2.32-.02-3.2,.98-2.94,3.36,.26,2.37,1.47,4.35,2.73,6.31,.08,.12,.16,.23,.23,.35,.01,.02,0,.05,0,.31-.67-.17-1.36-.21-1.91-.51-1.03-.54-2-1.2-2.97-1.86-1.66-1.14-2.22-2.95-2.63-4.76-2.03-8.91-4.07-17.82-5.97-26.75-1.32-6.23-2.46-12.5-3.6-18.76-.3-1.65-.33-3.35-.47-5.03-.13-1.64,.71-2.82,2.02-3.61,1.41-.86,2.99-1.23,4.67-1.11,.85,.06,1.71-.07,2.56-.04,7.71,.25,15.41,.46,23.12,.8,4.02,.18,8.04,.54,12.05,.9,3.64,.33,6.67,2.63,7.48,6.28,1.01,4.54,1.88,9.12,2.67,13.7,1.16,6.78,2.08,13.61,3.34,20.38,.77,4.17,1.87,8.3,3.01,12.39,.82,2.94,2.33,5.58,4.4,7.86,.24,.27,.46,.56,.69,.84l-.12,.22Zm-37.55-44.33c.13,.24,.22,.41,.32,.58,.78,1.3,.63,2-.58,2.9-.16,.12-.26,.3-.38,.46-2.87,3.86-2.76,7.9,.27,11.72,2.73,3.44,6.53,4.5,10.66,4.86,2.06-.67,4.15-1.26,6.15-2.09,.38-.16,.36-1.25,.53-1.91-.38-.07-.78-.26-1.15-.21-2.77,.39-5.38,.04-7.91-1.22-3.08-1.54-4.84-5.52-3.83-8.79,.16-.51,.1-1.2-.12-1.69-.52-1.19-.81-2.38-.63-3.66,.11-.81-.29-1.3-.98-1.47-.82-.2-1.61,.01-2.35,.52Z"/>
    <path class="cls-26" d="M292.71,85.38c-2.4,4.05-2.97,8.46-2.58,13.05,.17,2.02,.56,4.06,2.04,5.52,.94,.92,.93,1.66,.77,2.84-.36,2.57-.46,5.17-.59,7.77-.15,3.02-.2,6.05-.34,9.07-.03,.76-.17,1.53-.34,2.28-.51,2.23-1.27,4.37-2.24,6.43-.16,.33-.5,.61-.82,.83-1.08,.75-2.24,1.38-3.26,2.2-2.22,1.79-4.28,3.8-6.59,5.46-2.11,1.52-3.66,3.89-6.36,4.52-6.12,1.42-12.04,3.76-18.49,3.77-6.33,0-12.64-.12-18.81-1.64-5.18-1.27-9.98-3.45-14.24-6.72-2.15-1.65-3.56-3.92-5.09-6.09-2.69-3.79-4.15-7.93-3.92-12.67,.16-3.23,.35-6.44,1.07-9.6,.33-1.44,.89-2.8,1.85-4.25,.11,.71,.19,1.17,.27,1.64,.67,4.1,2.82,7.2,6.24,9.53,3.3,2.25,6.91,3.82,10.75,4.77,11.3,2.8,22.71,3.18,34.17,1.17,4.48-.79,8.83-2.04,12.85-4.32,5.38-3.06,8.21-7.74,9.13-13.74,.22-1.41,.08-2.72-.24-4.11-1.06-4.53-.89-9.07,.34-13.56,.38-1.39,1.12-2.58,2.29-3.44,.59-.43,1.32-.66,1.99-.98,.05,.1,.1,.19,.15,.29Z"/>
    <path class="cls-18" d="M295.98,112.09c2.71,.36,5.31,.68,7.89,1.05,.99,.14,1.96,.38,2.95,.56,4.1,.75,6.05,3.62,6.48,7.28,.26,2.26,.03,4.48-.42,6.72-.94,4.67-1.66,9.39-2.54,14.07-2.43,12.91-4.78,25.84-7.38,38.71-1.56,7.69-3.52,15.31-5.31,22.95-1.12,4.79-3.43,8.95-6.85,12.46-.86,.88-1.93,1.62-3.02,2.2-3.44,1.83-7.19,2.42-11.04,2.66-7.35,.45-14.68,0-22.01-.31-6.7-.29-13.4-.82-20.09-1.31-1.9-.14-3.77-.63-5.67-.78-2.24-.18-4.42-.54-6.53-1.28-1.02-.36-2.04-.77-2.97-1.3-1.07-.61-1.87-1.47-1.91-2.85-.02-.79,.28-1.34,1.03-1.42,1.55-.17,3.14-.46,4.67-.28,3.82,.44,7.6,1.18,11.42,1.69,8.01,1.08,16.03,2.12,24.05,3.1,3.73,.45,7.48,.41,11.2-.07,2.96-.38,5.41-1.85,7.5-3.98,4.1-4.18,6.58-9.27,8.02-14.84,1.73-6.69,3.21-13.44,4.79-20.17,1.04-4.42,2.03-8.85,3.11-13.27,.17-.68,.59-1.35,1.06-1.88,3.29-3.65,6.78-7.15,8.8-11.74,.71-1.61,1.44-3.25,1.85-4.95,1.26-5.21-2.06-11.33-7.09-13.23-1.16-.44-2.36-.74-3.65-1.13,1.83-5.88,1.46-12.19,1.67-18.67Z"/>
    <path class="cls-33" d="M205.12,237.6c5.53,1.1,10.73,.66,15.75-1.88,.21,.49,.4,.89,.56,1.31,1.56,4.17,3.08,8.36,4.69,12.51,1.78,4.6,3.66,9.16,5.48,13.75,.12,.29,.2,.6,.28,.9,.3,1.1,.05,1.73-1.05,2.05-1.25,.37-2.55,.72-3.84,.81-3.62,.24-7.24,.39-10.87,.49-5.13,.15-10.16,1.04-15.22,1.78-3.39,.49-6.78,1-10.18,1.41-4.55,.55-8.94-.33-13.23-1.76-1.65-.55-3.25-1.25-4.86-1.9-.81-.32-1.11-.94-1.16-1.81-.13-2.43,.55-4.66,1.72-6.71,1.06-1.86,2.84-2.83,4.93-3.01,6.94-.6,13.89-1.14,20.87-.96,2.39,.06,4.79-.13,7.18-.27,.67-.04,1.35-.26,1.99-.5,1.64-.61,2.42-2.03,1.86-3.7-.87-2.6-1.86-5.15-2.85-7.71-.49-1.28-1.1-2.51-1.65-3.76-.12-.28-.22-.56-.41-1.03Z"/>
    <path class="cls-24" d="M241.3,47.1c-.26,2.7,1.46,4.06,3.55,5.08,2.42,1.18,5.06,1.58,7.72,1.78,4.51,.33,8.97,.05,13.32-1.27,1.09-.33,2.17-.75,3.18-1.26,2.05-1.05,3.8-2.38,3.9-4.97,7.02,1.65,16.69,14.94,16.59,22.53-2.35-1.09-4.72-2.33-7.2-3.32-3.72-1.48-7.61-1.95-11.6-1.48-2.97,.35-5.82,1.14-8.57,2.31-3.5,1.49-7.16,2.26-10.97,2.46-4.16,.22-7.92-1.01-11.39-3.12-4.13-2.51-8.58-3.17-13.26-2.6-1.36,.16-2.67,.77-3.98,1.16,.37-4.58,12.87-16.2,18.73-17.3Z"/>
    <path class="cls-28" d="M234.61,193.26c.6-1.29,1.21-2.5,1.74-3.74,.64-1.49,.61-1.5,2.21-1.33,3.52,.37,7.04,.83,10.57,1.08,6.6,.47,13.05-.38,18.73-3.92,3.68-2.3,7.08-5.11,10.36-7.98,3.53-3.07,6.77-6.48,10.13-9.73,.17-.17,.37-.32,.63-.53,0,.2,.02,.29,0,.37-2.17,9.05-4.27,18.12-6.55,27.15-.69,2.73-1.74,5.38-2.81,7.99-1.13,2.75-2.89,5.19-5.1,7.13-2.32,2.04-5.15,3.13-8.34,2.9,.26-.95,.65-1.89,.76-2.85,.53-4.54-.68-8.6-3.55-12.15-.84-1.04-1.93-1.77-3.21-2.21-.29-.1-.53-.35-.82-.43-.47-.14-1.02-.38-1.45-.27-2.5,.64-5.03,.72-7.57,.43-5.16-.58-10.32-1.24-15.48-1.86-.13-.02-.27-.05-.25-.04Z"/>
    <path class="cls-16" d="M90.22,114.28c.93-.58,1.81-1.24,2.79-1.71,2.02-.97,4.22-1.24,6.42-1.36,6.22-.35,12.44-.36,18.67,.06,3.65,.24,7.31,.21,10.96,.44,2.42,.15,4.85,.4,7.22,.86,6.21,1.21,10.13,5.04,11.55,11.13,1.13,4.86,1.74,9.84,2.69,14.75,1.97,10.2,3.51,20.5,6.5,30.49,.67,2.24,1.71,4.29,3.42,5.96,.87,.85,1.84,1.38,3.1,1.41,3.08,.07,6.16,.22,9.25,.31,6.11,.18,12.22,.33,18.33,.5,1.05,.03,2.11,0,3.16,.1,.87,.08,1.76,.22,2.58,.51,.75,.27,1.08,.99,1.1,1.79,.03,.78-.65,1.66-1.49,1.9-.43,.12-.9,.19-1.35,.18-7.48-.15-14.97-.3-22.45-.49-3.86-.1-7.72-.16-11.56-.47-2.13-.17-3.95-1.23-5.45-2.9-2.67-2.96-4.19-6.45-5.13-10.23-1.56-6.3-2.42-12.73-3.52-19.12-1.33-7.76-3.03-15.47-4.58-23.19-.18-.92-.39-1.84-.72-2.71-1.52-4.04-4.78-6.11-8.77-6.65-9.66-1.31-19.4-1.77-29.16-1.4-1.65,.06-3.31-.12-4.96-.2-2.82-.13-5.65-.38-8.44,.33-.06-.09-.12-.19-.17-.28Z"/>
    <path class="cls-31" d="M172.94,172.41c-.21-.05-.32-.06-.43-.1-1.32-.46-1.33-.47-1.1-1.82,.61-3.49,1.39-6.94,2.71-10.25,1.03-2.59,2.96-4.03,5.51-4.84,1.93-.61,3.87-1.21,5.77-1.89,.79-.29,1.57-.7,2.22-1.23,.33-.27,.34-.92,.5-1.39-.45-.14-.96-.49-1.35-.38-1.51,.41-2.99,.96-4.47,1.46-.73,.24-1.46,.49-2.18,.75-1.53,.55-3.08,1.05-4.57,1.7-1.32,.57-2.24,1.64-3.01,2.85-2.01,3.15-2.77,6.73-3.52,10.32-.15,.72-.26,1.45-.4,2.27-.79-.59-1.09-1.38-1.11-2.19-.09-4.28,.15-8.53,2.29-12.4,.73-1.31,1.73-2.46,3.13-3.08,4.08-1.84,8.19-3.63,12.3-5.41,1.33-.57,1.55-1.29,.43-2.27-1.74-1.52-3.83-2.28-6.11-1.84-2.85,.55-5.66,1.33-8.47,2.08-.98,.26-1.92,.52-2.94,.22-.88-.26-1.14-.86-.61-1.61,.24-.34,.56-.68,.93-.87,1.48-.79,2.94-1.67,4.5-2.24,3.04-1.1,6.14-1.95,9.42-2.05,4.58-.14,8.35,1.68,11.35,4.92,3.05,3.28,5.81,6.83,8.69,10.27,.54,.65,.92,1.46,1.54,2.01,1.1,.97,1.5,2.12,1.43,3.54-.1,2.22-.04,4.46-.23,6.67-.15,1.83-.95,3.46-2.14,4.88-.87,1.04-1.28,1.06-2.33,.25-2.04-1.57-4.08-3.13-6.11-4.7-.94-.73-1.9-1.1-3.16-.94-1.72,.21-3.48,.13-5.22,.26-2.57,.19-4.4,1.44-5.28,3.95-.27,.78-.61,1.54-.99,2.28-.73,1.43-2.55,2.15-4.17,1.65,.35-1.07,.69-2.16,1.07-3.22,.66-1.88,1.37-3.76,2.03-5.64,.43-1.22,1.26-2,2.5-2.22,1.96-.35,3.95-.58,5.92-.89,1.13-.17,2.29-.26,3.35-.62,.74-.25,1.38-.87,1.96-1.43,.22-.21,.34-.8,.2-1.06-.14-.26-.65-.46-.99-.44-.79,.04-1.58,.25-2.37,.34-2.41,.3-4.81,.59-7.22,.87-2.95,.34-5.39,1.46-6.43,4.46-.96,2.75-1.77,5.55-2.64,8.32-.07,.21-.12,.43-.2,.72Z"/>
    <path class="cls-25" d="M200.92,191.93c5.58,.29,11.08,1.16,16.56,2.14,.96,.17,1.91,.42,2.87,.49,1.09,.08,1.72,.64,2.26,1.52,1.18,1.92,1.81,4.01,1.94,6.24,.08,1.41,.04,2.84-.06,4.26-.06,.85-.54,1.12-1.51,1.1-1.75-.03-3.56,.07-5.26,.46-2.69,.62-3.76,2.25-3.66,5,.01,.37,.04,.74,.08,1.11,.17,1.39,.19,1.46-1.09,1.95-1.08,.42-2.23,.92-3.36,.92-2.58,.02-5.19-.12-7.75-.43-2.08-.25-3.71-1.55-5.2-2.97-.16-.15-.3-.36-.37-.56-1.38-3.93-3.02-7.8-3.59-11.96-.2-1.47-.27-3.06,.06-4.49,.77-3.27,2.75-4.64,5.84-4.77,.74-.03,1.48,0,2.23,0Z"/>
    <path class="cls-34" d="M206.75,251.08c-1.58,.07-2.88,.17-4.19,.18-4.06,.01-8.12-.12-12.17,.01-4.19,.14-8.4,.39-12.57,.85-4.1,.45-7.02,2.7-8.55,6.6-.24,.61-.42,1.25-.7,1.84-.1,.22-.45,.49-.65,.46-2.84-.35-5.55-1.1-7.81-2.98-1.65-1.37-2.02-2.59-1.35-4.63,.35-1.09,.8-2.14,1.2-3.21,.78-2.1,2.35-3.33,4.47-3.7,2.39-.41,4.81-.68,7.23-.87,5.24-.4,10.49-.7,15.73-1.07,.65-.05,1.31-.18,1.92-.39,1.05-.37,1.55-1.17,1.85-2.27,.41-1.49-.01-2.72-.68-3.99-1.31-2.5-2.56-5.04-3.84-7.57-.1-.2-.19-.4-.35-.78,4.03,.47,7.95,.9,11.61-.69,2.95,7.39,5.85,14.67,8.85,22.2Z"/>
    <path class="cls-27" d="M251.66,167.29c2.52-.19,4.05-1.93,5.82-3.16,4.01-2.8,7.75-5.93,11.22-9.39,.57-.57,1.09-.74,1.81-.4,5.09,2.45,8.9,6.06,10.41,11.67,.28,1.05,.21,2.21,.25,3.32,0,.21-.19,.47-.36,.64-3.85,3.78-7.7,7.56-12.1,10.72-3.06,2.2-6.34,3.85-10.05,4.57-1.41,.27-2.87,.33-4.46,.5,.9-3.21,1.59-6.29,.89-9.48-.68-3.11-1.64-6.11-3.43-8.99Z"/>
    <path class="cls-21" d="M284.12,166.68c-1.22-7.31-5.9-11.76-12.12-15.05,.14-.17,.24-.34,.38-.47,5.09-4.75,10.02-9.69,15.68-13.78,1.96-1.42,4.17-2.29,6.53-2.62,.96-.14,2.13,.02,2.97,.49,2.89,1.61,5,4.96,4.1,8.7-1.04,4.35-3.17,8.09-6.17,11.29-3.58,3.83-7.35,7.49-11.05,11.22-.07,.07-.18,.12-.33,.21Z"/>
    <path class="cls-23" d="M221.7,181.69c3.24-5.09,2.85-10.44,1.73-16,1.58,.27,3.06,.58,4.55,.75,5.36,.62,10.72,1.24,16.09,1.76,1.26,.12,2.57-.05,3.84-.21,.65-.08,1.01,.08,1.33,.6,1.39,2.27,2.11,4.79,2.77,7.34,.78,3.05,.31,6-.54,8.95-.2,.68-.55,.97-1.29,.88-5.48-.61-10.97-1.1-16.43-1.83-3.65-.48-7.25-1.29-10.87-1.96-.33-.06-.65-.17-1.17-.3Z"/>
    <path class="cls-29" d="M194.94,139.79c-2.06-1.64-4.1-2.91-6.4-3.78-3.9-1.47-7.86-1.31-11.81-.41-2.22,.51-4.38,1.27-6.57,1.94-.7,.21-1.8-.5-2.14-1.44-.31-.86-.02-1.51,.92-1.76,1.29-.35,2.6-.71,3.92-.86,2.62-.31,4.31-2.09,6.08-3.72,.72-.67,.6-1.71-.03-2.31-.63-.6-1.38-.58-2.23,.07-.09,.07-.18,.13-.46,.33-1.79-2-3.59-4.01-5.39-6.01-.08,.02-.17,.05-.25,.07,.6,.04,1.2,.09,1.79,.12,.48,.02,.98,.06,1.44-.02,.68-.12,1.13-.57,1.2-1.28,.07-.71-.3-1.2-.91-1.51-2.76-1.39-6.83-.46-8.64,2.03-1.44,1.99-2.79,4.04-4.23,6.03-.51,.71-1.16,1.33-1.78,1.95-.43,.42-.91,.36-1.38-.03-1-.84-1.39-1.96-.85-3.14,1.79-3.86,4.08-7.4,7.18-10.36,.47-.45,1.16-.75,1.8-.92,1.04-.29,2.13-.42,3.19-.62,2.68-.5,5.07,.19,7.5,1.38,3.01,1.47,5.06,3.91,7.11,6.33,3.95,4.68,8.36,8.91,12.72,13.2,.79,.78,.84,1.46,.32,2.28-.56,.87-1.34,1.6-2.09,2.47Z"/>
    <path class="cls-22" d="M191.58,191.45c-.4,.58-.66,1.14-1.08,1.53-.95,.87-1,2.07-1.23,3.18-.75,3.65,.17,7.14,1.13,10.62,.23,.82,.51,1.63,.8,2.44,.15,.41,.14,.67-.31,.89-.64,.32-1.2,.78-1.85,1.07-.66,.3-1.39,.66-2.08,.65-2.16-.03-4.33-.21-6.49-.37-.53-.04-1.06-.21-1.58-.39-1.9-.64-3.34-1.74-4.04-3.74-1.15-3.29-1.8-6.65-1.8-10.14,0-2.32,1.02-4.01,3.21-4.88,.92-.37,1.9-.8,2.86-.82,4.1-.09,8.21-.04,12.47-.04Z"/>
    <path class="cls-17" d="M105.09,172.23c.32,0,.58,0,.83,0,10.85,.15,21.7,.3,32.54,.45,.41,0,.76-.03,.92,.52,.7,2.47,1.86,4.72,3.49,6.72,.08,.1,.13,.24,.26,.5-.44,0-.77,0-1.1,0-9.28-.06-18.55-.12-27.83-.18-.86,0-1.71,.02-2.57,.05-.98,.04-1.79-.33-2.49-.95-2.11-1.87-3.55-4.14-4.05-7.1Z"/>
    <path class="cls-36" d="M214.96,218.6c.21,.64,.39,1.24,.59,1.83,1.29,3.78,2.56,7.57,3.88,11.34,.22,.64,.14,.95-.5,1.24-4.55,2.04-9.27,2.22-14.1,1.42-.73-.12-1.19-.49-1.44-1.25-1.56-4.71-3.17-9.41-4.75-14.11-.03-.1-.04-.21-.06-.33,5.47,1.74,10.89,2.29,16.39-.12Z"/>
    <path class="cls-35" d="M233.52,268.97c.27,.93,.57,1.79,.76,2.67,.24,1.12-.41,2.08-1.57,2.22-1.75,.22-3.52,.45-5.29,.47-9.93,.12-19.79,1.08-29.6,2.54-3.22,.48-6.43,1.05-9.67,1.39-2.77,.3-5.52-.18-8.24-.78-2.48-.54-4.8-1.47-6.99-2.74-.19-.11-.47-.23-.53-.41-.44-1.25-.82-2.52-1.29-3.96,1.66,.63,3.06,1.19,4.48,1.69,5.26,1.85,10.64,2.89,16.24,2.12,3.34-.46,6.7-.83,10.01-1.43,7.51-1.35,15.08-1.79,22.69-1.98,2.35-.06,4.68-.21,6.92-1.01,.64-.23,1.27-.49,2.06-.8Z"/>
    <path class="cls-43" d="M204.01,173.31c4.17-3.69,4.32-8.44,4.01-13.51,.39,.29,.6,.46,.82,.61,2.57,1.83,5.19,3.55,8.34,4.22,.84,.18,1.7,.23,2.53,.43,.29,.07,.69,.37,.75,.63,1.27,4.94,1.5,9.81-1.1,14.46-.29,.51-.58,.75-1.22,.55-4.98-1.57-9.49-4.05-13.7-7.1-.11-.08-.23-.16-.43-.3Z"/>
    <path class="cls-40" d="M246.06,198.19c1.4,.15,2.95,.36,4.5,.49,2.63,.23,5.24,.06,7.82-.53,.38-.09,.88-.04,1.21,.15,.56,.32,1.12,.73,1.51,1.23,2.38,3.09,3.4,6.59,2.67,10.44-.17,.92-1,1.74-1.6,2.56-.12,.17-.59,.16-.88,.12-3.77-.42-7.54-.85-11.31-1.29-.87-.1-1.74-.24-2.66-.36,0-2.22,.16-4.39-.05-6.53-.21-2.1-.79-4.16-1.22-6.27Z"/>
    <path class="cls-42" d="M227.16,208.12c.99-4.36,.29-8.46-1.6-12.5,.29,.03,.51,.04,.72,.07,4.78,.63,9.56,1.3,14.36,1.85,1.2,.14,1.98,.58,2.44,1.64,.28,.65,.58,1.31,.76,1.99,.72,2.71,.74,5.48,.7,8.25-.02,1.16-.14,1.2-1.28,1.04-5.15-.73-10.29-1.47-15.43-2.2-.22-.03-.43-.09-.65-.14Z"/>
    <path class="cls-41" d="M177.92,213.78c2.82,.84,5.5,.85,8.18,.95,1.85,.06,3.49-.44,4.96-1.54,.36-.27,.76-.48,1.18-.74,.11,.19,.2,.3,.24,.43,1.43,3.94,2.85,7.89,4.31,11.82,.27,.73,.05,.97-.63,1.21-2.75,.96-5.58,.72-8.4,.58-.74-.04-1.48-.2-2.21-.21-.82,0-1.24-.38-1.61-1.1-1.81-3.47-3.68-6.9-5.53-10.34-.15-.27-.26-.56-.49-1.06Z"/>
    <path class="cls-38" d="M244.59,164.76c.78-4.07,1.53-8.03,2.28-11.96,3.61-.11,7.33,.02,10.99-.42,3.62-.43,7.18-1.43,10.66-2.15,.04-.05-.03,.07-.13,.17-4.23,4.35-8.82,8.29-13.75,11.82-.98,.7-2.15,1.26-3.31,1.55-1.93,.48-3.93,.68-5.9,.99-.27,.04-.55,0-.85,0Z"/>
    <path class="cls-15" d="M253.82,43.75c.14,2.07,.46,2.64,1.44,2.65,1.36,.01,1.83-.56,2.12-2.71,.29,0,.59-.03,.89,0,2.98,.32,5.97,.57,8.93,1.04,.9,.15,1.74,.88,2.52,1.47,.49,.36,.38,.99-.05,1.36-.69,.58-1.41,1.17-2.22,1.57-2.27,1.13-4.74,1.64-7.24,1.95-4.15,.51-8.27,.47-12.31-.75-1.13-.34-2.24-.86-3.25-1.48-1.06-.64-1.12-1.51-.17-2.31,.79-.67,1.7-1.36,2.67-1.62,2.03-.55,4.13-.83,6.21-1.21,.13-.02,.27,.02,.46,.04Z"/>
    <path class="cls-12" d="M234.78,119.34c10.97-2.01,21.91-2.55,32.91-.15-.1,.54-.14,1.2-.35,1.81-.09,.26-.5,.54-.8,.58-3.25,.44-6.49,.95-9.76,1.22-6.06,.5-12.09-.18-18.1-.84-.68-.08-1.35-.22-2.02-.36-1.76-.37-1.76-.38-1.87-2.25Z"/>
    <path class="cls-44" d="M196.82,141.66c.99-1.19,1.93-2.33,3.13-3.78,.12,.24,.21,.61,.44,.84,4.09,4.1,8.19,8.19,12.31,12.25,.52,.51,.78,1.01,.63,1.73-.27,1.34-.48,2.69-.8,4.02-.13,.56-.47,1.07-.75,1.68-.3-.17-.51-.24-.67-.38-.72-.65-1.49-1.26-2.12-1.99-2.76-3.23-5.48-6.5-8.21-9.76-.94-1.11-1.89-2.22-2.83-3.32-.39-.45-.78-.89-1.13-1.3Z"/>
    <path class="cls-39" d="M231.85,155.14c1.35-1.11,2.79-2.3,4.24-3.47,.15-.12,.42-.18,.63-.15,2.24,.27,4.47,.56,6.71,.85,.08,.01,.15,.07,.24,.11-.57,2.54-1.12,5.07-1.69,7.59-.29,1.28-.6,2.56-.89,3.84-.11,.48-.36,.65-.86,.59-1.76-.2-3.52-.39-5.28-.56-.5-.05-.62-.28-.68-.76-.17-1.33-.29-2.69-.69-3.96-.44-1.42-1.16-2.76-1.73-4.07Z"/>
    <path class="cls-37" d="M231.49,163.7c-5.9-1.46-11.91-1.28-17.19-3.62,.64-2.24,1.21-4.27,1.82-6.39,.12,.05,.38,.14,.61,.27,3.42,1.95,7.2,2.35,11.01,2.25,1.19-.03,1.62,.39,2.09,1.19,1.08,1.85,1.33,3.91,1.67,6.3Z"/>
    <path class="cls-12" d="M299.92,94.75c-.36,1.77-.55,3.42-1.07,4.97-.31,.91-1.07,1.71-1.75,2.45-.45,.49-1.01,.36-1.47-.19-1.09-1.3-1.53-2.86-1.77-4.48-.43-2.96-.16-5.87,.84-8.68,.32-.89,.92-1.69,1.48-2.46,.42-.57,1.04-.53,1.45,.02,.45,.61,.95,1.27,1.11,1.99,.48,2.13,.8,4.3,1.17,6.38Zm-2.06-.36c0-.67,.02-1.19,0-1.7-.03-.62-.26-1.16-.96-1.21-.73-.05-1.23,.4-1.31,1.09-.13,1.13-.18,2.27-.17,3.4,0,.69,.4,1.22,1.16,1.23,.76,.02,1.12-.51,1.2-1.19,.07-.59,.06-1.19,.08-1.63Z"/>
    <path class="cls-30" d="M160.11,115.12c-1.5,2.26-2.98,4.42-4.38,6.63-.62,.98-1.2,2.03-1.59,3.12-.32,.89-.59,1.95-.39,2.82,.29,1.3-.37,2.02-1.06,2.98-.1-.27-.18-.43-.22-.6-.4-2.01-.8-4.03-1.18-6.05-.03-.17,.02-.39,.11-.54,.93-1.57,1.84-3.15,2.84-4.69,1.24-1.91,2.83-3.37,5.22-3.64,.22-.03,.44-.02,.64-.03Z"/>
    <path class="cls-46" d="M214.38,101.47c-1.31-1.37-2.17-2.97-2.31-4.89-.18-2.64,.09-5.25,.79-7.8,.36-1.32,1.01-2.46,2.57-3.08-.26,5.24-.52,10.47-.78,15.71-.09,.02-.18,.04-.27,.07Z"/>
    <path class="cls-45" d="M158.34,261.43c1.21,.61,2.2,1.26,3.29,1.61,1.83,.59,3.72,1.02,5.6,1.46,.52,.12,.82,.23,.79,.84-.04,.81,0,1.62,0,2.66-2.1-.6-3.99-1.11-5.84-1.7-.86-.28-1.65-.76-2.5-1.11-.72-.29-1.05-.8-1.1-1.56-.04-.7-.15-1.4-.23-2.2Z"/>
    <path class="cls-32" d="M159.31,112.1c-2.46,.4-4.38,1.25-5.98,2.78-.52,.49-1.73-.24-1.81-1.15-.04-.41,.07-.97,.33-1.26,.89-1,1.82-1.97,2.84-2.83,.96-.81,1.85-.7,2.73,.22,.62,.65,1.16,1.37,1.89,2.24Z"/>
    <path class="cls-14" d="M248.91,85.64c-6.65,0-13.31,0-19.96,0-.71,0-1.43-.07-2.13-.19-.98-.18-1.56-.81-1.53-1.57,.03-.74,.59-1.31,1.54-1.47,.67-.11,1.36-.19,2.04-.19,13.65-.03,27.3-.04,40.95-.06,.28,0,.57,.02,.85,.08,.83,.16,1.39,.79,1.45,1.58,.06,.83-.44,1.56-1.3,1.78-.46,.12-.96,.13-1.44,.13-6.82,0-13.65,0-20.47,0,0-.03,0-.05,0-.08Z"/>
    <path class="cls-14" d="M245.9,104.67c-1.52-.18-3.05-.32-4.56-.55-1.98-.31-3.38-1.63-4.59-3.07-.42-.5-.52-1.47-.42-2.19,.66-5.03,6.22-9.94,12.01-7.91,2.95,1.03,5.24,2.71,6.52,5.64,.55,1.27,.71,2.58,.58,3.93-.14,1.32-1.02,2.16-2.16,2.53-1.7,.55-3.46,.9-5.21,1.27-.69,.14-1.42,.1-2.13,.13,0,.07-.02,.14-.02,.21Zm-1.23-3.49s.02-.08,.03-.12c.85-.06,1.72-.06,2.56-.18,1.35-.2,2.69-.48,4.03-.72,.65-.12,.85-.56,.67-1.14-.2-.62-.42-1.25-.73-1.81-1.54-2.74-5.54-4.01-8.17-2.59-1.51,.81-2.51,2.13-3.24,3.66-.08,.18-.11,.48-.02,.63,.45,.73,.96,1.44,1.87,1.65,1,.23,2,.42,3,.63Z"/>
    <path class="cls-11" d="M115.8,136.24c.74-.51,1.53-.73,2.35-.52,.69,.17,1.1,.66,.98,1.47-.18,1.28,.11,2.48,.63,3.66,.22,.49,.27,1.18,.12,1.69-1.01,3.27,.75,7.25,3.83,8.79,2.53,1.27,5.14,1.62,7.91,1.22,.36-.05,.76,.13,1.15,.21-.17,.66-.15,1.75-.53,1.91-2,.82-4.09,1.42-6.15,2.09-4.13-.36-7.93-1.42-10.66-4.86-3.04-3.82-3.14-7.86-.27-11.72,.12-.16,.23-.34,.38-.46,1.22-.9,1.36-1.6,.58-2.9-.1-.17-.19-.34-.32-.58Z"/>
    <path d="M297.86,94.39c-.02,.44-.01,1.04-.08,1.63-.08,.69-.44,1.21-1.2,1.19-.76-.01-1.15-.54-1.16-1.23,0-1.13,.04-2.28,.17-3.4,.08-.68,.58-1.14,1.31-1.09,.7,.05,.92,.59,.96,1.21,.03,.51,0,1.02,0,1.7Z"/>
    <path class="cls-47" d="M244.67,101.18c-1-.21-2-.4-3-.63-.91-.21-1.42-.92-1.87-1.65-.09-.15-.07-.45,.02-.63,.73-1.52,1.72-2.84,3.24-3.66,2.63-1.42,6.63-.15,8.17,2.59,.32,.56,.54,1.19,.73,1.81,.18,.58-.01,1.02-.67,1.14-1.34,.25-2.68,.53-4.03,.72-.84,.12-1.71,.13-2.56,.18,0,.04-.02,.08-.03,.12Z"/>
  </g>
  <path class="cls-8" d="M288.07,85.69s5.37-7.9,16.79-6.23,12.58,14.36,11.07,20.8c-2.52,10.69-12.33,11.94-16.69,12.26s-5.14,1.46-5.14,1.46l.39-9.31s-2.95-2.8-2.82-7.46,.64-7.86,.64-7.86l-4.24-3.65Z"/>
  <path class="cls-6" d="M299.23,86.07c3.62-1.47,8.1,1.14,9.99,5.83,1.89,4.68,.49,9.67-3.13,11.13"/>
  <path class="cls-5" d="M310.57,203.07c4.37-3.45,10.73,4.6,6.36,8.05"/>
  <path class="cls-3" d="M320.12,187.45c1.74-5.29,11.49-2.08,9.74,3.21"/>
  <path class="cls-4" d="M326.45,165.53c1.74-5.29,11.49-2.08,9.74,3.21"/>
  <path class="cls-1" d="M357.64,148.78c5.01,2.04,1.25,11.26-3.76,9.22"/>
  <path class="cls-2" d="M374.17,170.79c1,5.32-8.79,7.15-9.79,1.84"/>
</svg>