<svg width="253" height="31" viewBox="0 0 253 31" fill="none" xmlns="http://www.w3.org/2000/svg"><path d="M12.064 30.576c-1.45 0-2.926-.107-4.43-.322a30.098 30.098 0 0 1-4.127-.866c-1.248-.376-2.208-.785-2.88-1.228l2.296-8.134c.86.59 1.785 1.108 2.779 1.55.993.43 1.993.765 3 1.007a13.38 13.38 0 0 0 2.919.342c.604 0 1.08-.053 1.43-.16.362-.108.63-.262.805-.464.188-.214.315-.476.382-.785.08-.376-.033-.731-.342-1.067-.295-.349-.758-.685-1.39-1.007a20.557 20.557 0 0 0-2.254-1.026c-1.49-.591-2.759-1.29-3.806-2.094a6.497 6.497 0 0 1-2.174-3.101c-.403-1.248-.41-2.819-.02-4.711.362-1.759.98-3.222 1.852-4.39.886-1.18 2.1-2.066 3.644-2.657 1.544-.59 3.497-.886 5.86-.886 1.046 0 2.107.067 3.18.201 1.088.135 2.141.323 3.161.564 1.034.228 1.987.504 2.86.826.872.308 1.617.65 2.234 1.027l-2.376 7.811a11.304 11.304 0 0 0-2.698-1.47 17.574 17.574 0 0 0-2.859-.865c-.899-.188-1.61-.282-2.134-.282-.456 0-.865.047-1.228.14a2.117 2.117 0 0 0-.865.444 1.394 1.394 0 0 0-.443.785c-.068.336 0 .671.2 1.007.202.335.551.678 1.048 1.027.51.335 1.194.677 2.053 1.026 1.987.792 3.524 1.631 4.611 2.517 1.087.886 1.792 1.9 2.114 3.04.322 1.128.322 2.456 0 3.987-.416 1.986-1.1 3.584-2.054 4.792-.953 1.194-2.268 2.067-3.946 2.617-1.678.537-3.812.805-6.402.805Z" class="logo-letters"/><path fill-rule="evenodd" clip-rule="evenodd" d="M236.067 30.576c-2.833 0-5.235-.456-7.208-1.369-1.973-.926-3.53-2.181-4.671-3.765-1.141-1.597-1.879-3.402-2.215-5.416-.322-2.027-.255-4.134.201-6.322.564-2.684 1.544-5.006 2.94-6.966a13.87 13.87 0 0 1 5.396-4.55c2.214-1.074 4.818-1.61 7.812-1.61 2.724 0 5.067.442 7.026 1.328 1.973.886 3.55 2.1 4.732 3.644 1.181 1.544 1.953 3.322 2.315 5.336.362 2 .302 4.12-.181 6.362-.564 2.63-1.544 4.946-2.94 6.946s-3.201 3.564-5.416 4.691c-2.201 1.127-4.798 1.691-7.791 1.691Zm.161-7.973c.711 0 1.375-.14 1.993-.423a5.29 5.29 0 0 0 1.691-1.268c.51-.55.946-1.215 1.309-1.993.376-.792.671-1.685.886-2.678.214-.98.288-1.926.221-2.839-.054-.912-.241-1.731-.564-2.456-.322-.738-.778-1.322-1.369-1.752-.59-.43-1.322-.644-2.194-.644a4.78 4.78 0 0 0-2.094.463 5.578 5.578 0 0 0-1.732 1.309 8.43 8.43 0 0 0-1.328 2.013 12.04 12.04 0 0 0-.846 2.577 9.927 9.927 0 0 0-.201 2.92c.08.912.295 1.731.644 2.456.362.711.845 1.275 1.45 1.691.604.416 1.315.624 2.134.624Z" class="logo-letters"/><path d="M191.249 29.932c.323-1.49.631-2.933.927-4.329.295-1.396.644-3.027 1.047-4.893l2.093-9.865c.403-1.92.759-3.61 1.068-5.074.322-1.463.651-2.98.986-4.55h8.577c.591 1.503 1.141 2.92 1.651 4.248l1.49 3.846 1.933 4.953h.684l.725-3.423 1.067-5.053c.322-1.464.651-2.987.987-4.57h9.221a616.43 616.43 0 0 1-.987 4.57 6163.31 6163.31 0 0 1-1.067 5.053l-2.094 9.825c-.402 1.893-.751 3.53-1.047 4.913l-.926 4.349h-8.335a580.138 580.138 0 0 0-1.611-3.906c-.523-1.289-1.087-2.671-1.691-4.148l-2.054-4.993h-.644l-.805 3.785a12705.933 12705.933 0 0 1-1.973 9.262h-9.222Z" class="logo-letters"/><path fill-rule="evenodd" clip-rule="evenodd" d="M125.52 25.563a961.43 961.43 0 0 0-1.245 3.695c-.19-.573-.405-1.208-.643-1.903-.336-.98-.678-1.987-1.027-3.02-.349-1.034-.678-2-.986-2.9l-1.204-3.548.177-.056c1.557-.496 2.805-1.281 3.745-2.355.939-1.087 1.597-2.51 1.973-4.269.483-2.322.396-4.214-.262-5.677-.658-1.477-1.819-2.564-3.483-3.262-1.651-.698-3.732-1.047-6.242-1.047h-12.402a570.414 570.414 0 0 1-.986 4.57c-.309 1.45-.665 3.135-1.068 5.054l-2.093 9.865c-.403 1.866-.752 3.497-1.047 4.893l-.927 4.329h9.705l.926-4.35c.295-1.382.644-3.026 1.047-4.932l.174-.825h1.331l1.153 4.409c.241.913.483 1.832.724 2.758l.766 2.94h19.525c.47-1.423.919-2.772 1.349-4.047.429-1.275.832-2.483 1.208-3.624l1.631-4.893h.644l.604 5.195.282 2.496.282 2.477c.107.819.201 1.617.282 2.396h6.483c.523-1.155 1.06-2.35 1.61-3.584.564-1.235 1.141-2.503 1.732-3.805l2.335-5.175h.645l-.423 4.873a378.354 378.354 0 0 1-.322 3.624l-.343 4.067h9.383c.107-1.477.221-2.947.342-4.41.121-1.463.248-3.067.382-4.811l.765-9.785c.148-1.759.282-3.43.403-5.014.121-1.584.242-3.147.363-4.69H152.56l-6.765 13.529h-.604l-.846-6.584a213.534 213.534 0 0 0-.423-3.302c-.134-1.1-.288-2.315-.463-3.644h-9.785a923.503 923.503 0 0 0-1.59 4.732c-.524 1.57-1.081 3.234-1.671 4.993l-3.262 9.744a667.899 667.899 0 0 1-1.631 4.873Zm-14.311-13.107-.306 1.45h2.4c.403 0 .779-.068 1.128-.202a2.12 2.12 0 0 0 .946-.725c.269-.362.477-.886.624-1.57a3.48 3.48 0 0 0 .081-1.148 2.117 2.117 0 0 0-.282-.866 1.362 1.362 0 0 0-.604-.563c-.242-.135-.537-.202-.886-.202h-2.287c-.25 1.166-.521 2.44-.814 3.826Z" class="logo-letters"/><path d="m76.599 25.603-.927 4.329H96.41l1.651-7.772H87.013c.201-.948.414-1.968.639-3.06l.017-.08h10.312l1.45-6.927H89.128l.655-3.1h10.774l1.61-7.772H81.793c-.335 1.57-.658 3.087-.966 4.55a962.658 962.658 0 0 1-1.087 5.074l-2.094 9.845c-.403 1.88-.752 3.517-1.047 4.913Z" class="logo-letters"/><path fill-rule="evenodd" clip-rule="evenodd" d="M50.59 29.932a6342.147 6342.147 0 0 0 1.973-9.242l2.094-9.845c.416-1.933.779-3.63 1.087-5.094.309-1.476.631-2.986.967-4.53h12.724c2.483 0 4.517.37 6.1 1.108 1.598.724 2.685 1.892 3.262 3.503.59 1.597.61 3.698.06 6.302-.429 2.053-1.12 3.765-2.073 5.134-.953 1.355-2.222 2.375-3.805 3.06-1.584.684-3.53 1.027-5.84 1.027h-5.023a1470.08 1470.08 0 0 1-.895 4.228 4004.42 4004.42 0 0 0-.927 4.349H50.59Zm13.409-17.436-.411 1.933h2.545c.537 0 .98-.087 1.329-.262.362-.174.651-.456.866-.845.228-.39.41-.906.543-1.55.108-.47.141-.893.101-1.27-.027-.389-.114-.717-.262-.986a1.64 1.64 0 0 0-.584-.624 1.628 1.628 0 0 0-.865-.221h-2.446c-.244 1.156-.516 2.431-.816 3.825Z" class="logo-letters"/><path d="M29.49 28.844C31.3 30 33.804 30.576 37 30.576c3.194 0 5.75-.456 7.67-1.37 1.933-.925 3.403-2.2 4.41-3.825 1.02-1.637 1.758-3.53 2.214-5.677a2454.56 2454.56 0 0 0 1.127-5.416c.256-1.181.497-2.329.725-3.443a7565.528 7565.528 0 0 0 2.014-9.624h-9.866l-.986 4.59c-.309 1.49-.665 3.182-1.067 5.074l-1.57 7.45c-.189.912-.457 1.69-.806 2.335-.336.631-.759 1.114-1.269 1.45-.51.322-1.12.483-1.832.483-.657 0-1.174-.201-1.55-.604-.362-.403-.584-.966-.664-1.691-.067-.738 0-1.598.2-2.577l1.47-6.926c.403-1.906.76-3.584 1.068-5.034.309-1.463.63-2.98.966-4.55H29.39a592.628 592.628 0 0 1-.987 4.57 962.256 962.256 0 0 1-1.087 5.074c-.175.832-.356 1.665-.544 2.497l-.483 2.275c-.148.684-.268 1.248-.362 1.691-.537 2.51-.53 4.765.02 6.765.564 2 1.745 3.584 3.543 4.751ZM169.7 29.207c1.973.913 4.375 1.37 7.207 1.37 2.994 0 5.591-.565 7.792-1.692 2.215-1.128 4.02-2.691 5.416-4.691 1.396-2 2.376-4.316 2.94-6.946.483-2.242.543-4.363.181-6.363-.363-2.013-1.134-3.791-2.316-5.335-1.181-1.543-2.758-2.758-4.731-3.644-1.96-.886-4.302-1.329-7.027-1.329-2.993 0-5.597.537-7.811 1.61a13.87 13.87 0 0 0-5.396 4.551c-1.396 1.96-2.376 4.282-2.94 6.966-.456 2.188-.523 4.295-.201 6.322.335 2.014 1.074 3.819 2.215 5.416 1.14 1.584 2.697 2.839 4.671 3.765Z" class="logo-letters"/><path d="M170.378 17.398c-.519-.11-.97.707-1.131 1.13 0 .389.141 1.112.943 2.133.802 1.02 2.695 2.693 7.292 2.49 4.596-.204 7.937-3.974 8.789-6.016.852-2.042-.138-3.373-.743-4.407-.604-1.033-.278-2.336 0-2.846.279-.51.402-1.237-.109-1.763-.511-.526-1.717.601-1.576 1.763.141 1.162.075 2.474-.715 3.385-.789.912-1.238 3.342-4.609 4.951-3.372 1.61-7.492-.682-8.141-.82Z" class="logo-banana"/></svg>